  0
SECTION
  2
HEADER
  9
$ACADVER
  1
AC1032
  9
$ACADMAINTVER
 90
4
  9
$DWGCODEPAGE
  3
ANSI_1252
  9
$LASTSAVEDBY
  1
ezdxf
  9
$REQUIREDVERSIONS
160
0
  9
$INSBASE
 10
0.0
 20
0.0
 30
0.0
  9
$EXTMIN
 10
1e+20
 20
1e+20
 30
1e+20
  9
$EXTMAX
 10
-1e+20
 20
-1e+20
 30
-1e+20
  9
$LIMMIN
 10
0.0
 20
0.0
  9
$LIMMAX
 10
420.0
 20
297.0
  9
$ORTHOMODE
 70
0
  9
$REGENMODE
 70
1
  9
$FILLMODE
 70
1
  9
$QTEXTMODE
 70
0
  9
$MIRRTEXT
 70
1
  9
$LTSCALE
 40
1.0
  9
$ATTMODE
 70
1
  9
$TEXTSIZE
 40
2.5
  9
$TRACEWID
 40
1.0
  9
$TEXTSTYLE
  7
PVSLD_STD
  9
$CLAYER
  8
0
  9
$CELTYPE
  6
ByLayer
  9
$CECOLOR
 62
256
  9
$CELTSCALE
 40
1.0
  9
$DISPSILH
 70
0
  9
$DIMSCALE
 40
1.0
  9
$DIMASZ
 40
2.5
  9
$DIMEXO
 40
0.625
  9
$DIMDLI
 40
3.75
  9
$DIMRND
 40
0.0
  9
$DIMDLE
 40
0.0
  9
$DIMEXE
 40
1.25
  9
$DIMTP
 40
0.0
  9
$DIMTM
 40
0.0
  9
$DIMTXT
 40
2.5
  9
$DIMCEN
 40
2.5
  9
$DIMTSZ
 40
0.0
  9
$DIMTOL
 70
0
  9
$DIMLIM
 70
0
  9
$DIMTIH
 70
0
  9
$DIMTOH
 70
0
  9
$DIMSE1
 70
0
  9
$DIMSE2
 70
0
  9
$DIMTAD
 70
1
  9
$DIMZIN
 70
8
  9
$DIMBLK
  1

  9
$DIMASO
 70
1
  9
$DIMSHO
 70
1
  9
$DIMPOST
  1

  9
$DIMAPOST
  1

  9
$DIMALT
 70
0
  9
$DIMALTD
 70
3
  9
$DIMALTF
 40
0.03937007874
  9
$DIMLFAC
 40
1.0
  9
$DIMTOFL
 70
1
  9
$DIMTVP
 40
0.0
  9
$DIMTIX
 70
0
  9
$DIMSOXD
 70
0
  9
$DIMSAH
 70
0
  9
$DIMBLK1
  1

  9
$DIMBLK2
  1

  9
$DIMSTYLE
  2
ISO-25
  9
$DIMCLRD
 70
0
  9
$DIMCLRE
 70
0
  9
$DIMCLRT
 70
0
  9
$DIMTFAC
 40
1.0
  9
$DIMGAP
 40
0.625
  9
$DIMJUST
 70
0
  9
$DIMSD1
 70
0
  9
$DIMSD2
 70
0
  9
$DIMTOLJ
 70
0
  9
$DIMTZIN
 70
8
  9
$DIMALTZ
 70
0
  9
$DIMALTTZ
 70
0
  9
$DIMUPT
 70
0
  9
$DIMDEC
 70
2
  9
$DIMTDEC
 70
2
  9
$DIMALTU
 70
2
  9
$DIMALTTD
 70
3
  9
$DIMTXSTY
  7
Standard
  9
$DIMAUNIT
 70
0
  9
$DIMADEC
 70
0
  9
$DIMALTRND
 40
0.0
  9
$DIMAZIN
 70
0
  9
$DIMDSEP
 70
44
  9
$DIMATFIT
 70
3
  9
$DIMFRAC
 70
0
  9
$DIMLDRBLK
  1

  9
$DIMLUNIT
 70
2
  9
$DIMLWD
 70
-2
  9
$DIMLWE
 70
-2
  9
$DIMTMOVE
 70
0
  9
$DIMFXL
 40
1.0
  9
$DIMFXLON
 70
0
  9
$DIMJOGANG
 40
0.785398163397
  9
$DIMTFILL
 70
0
  9
$DIMTFILLCLR
 70
0
  9
$DIMARCSYM
 70
0
  9
$DIMLTYPE
  6

  9
$DIMLTEX1
  6

  9
$DIMLTEX2
  6

  9
$DIMTXTDIRECTION
 70
0
  9
$LUNITS
 70
2
  9
$LUPREC
 70
4
  9
$SKETCHINC
 40
1.0
  9
$FILLETRAD
 40
10.0
  9
$AUNITS
 70
0
  9
$AUPREC
 70
2
  9
$MENU
  1
.
  9
$ELEVATION
 40
0.0
  9
$PELEVATION
 40
0.0
  9
$THICKNESS
 40
0.0
  9
$LIMCHECK
 70
0
  9
$CHAMFERA
 40
0.0
  9
$CHAMFERB
 40
0.0
  9
$CHAMFERC
 40
0.0
  9
$CHAMFERD
 40
0.0
  9
$SKPOLY
 70
0
  9
$TDCREATE
 40
2451545.0
  9
$TDUCREATE
 40
2451545.0
  9
$TDUPDATE
 40
2451545.0
  9
$TDUUPDATE
 40
2451545.0
  9
$TDINDWG
 40
0.0
  9
$TDUSRTIMER
 40
0.0
  9
$USRTIMER
 70
1
  9
$ANGBASE
 50
0.0
  9
$ANGDIR
 70
0
  9
$PDMODE
 70
0
  9
$PDSIZE
 40
0.0
  9
$PLINEWID
 40
0.0
  9
$SPLFRAME
 70
0
  9
$SPLINETYPE
 70
6
  9
$SPLINESEGS
 70
8
  9
$HANDSEED
  5
2A7
  9
$SURFTAB1
 70
6
  9
$SURFTAB2
 70
6
  9
$SURFTYPE
 70
6
  9
$SURFU
 70
6
  9
$SURFV
 70
6
  9
$UCSBASE
  2

  9
$UCSNAME
  2

  9
$UCSORG
 10
0.0
 20
0.0
 30
0.0
  9
$UCSXDIR
 10
1.0
 20
0.0
 30
0.0
  9
$UCSYDIR
 10
0.0
 20
1.0
 30
0.0
  9
$UCSORTHOREF
  2

  9
$UCSORTHOVIEW
 70
0
  9
$UCSORGTOP
 10
0.0
 20
0.0
 30
0.0
  9
$UCSORGBOTTOM
 10
0.0
 20
0.0
 30
0.0
  9
$UCSORGLEFT
 10
0.0
 20
0.0
 30
0.0
  9
$UCSORGRIGHT
 10
0.0
 20
0.0
 30
0.0
  9
$UCSORGFRONT
 10
0.0
 20
0.0
 30
0.0
  9
$UCSORGBACK
 10
0.0
 20
0.0
 30
0.0
  9
$PUCSBASE
  2

  9
$PUCSNAME
  2

  9
$PUCSORG
 10
0.0
 20
0.0
 30
0.0
  9
$PUCSXDIR
 10
1.0
 20
0.0
 30
0.0
  9
$PUCSYDIR
 10
0.0
 20
1.0
 30
0.0
  9
$PUCSORTHOREF
  2

  9
$PUCSORTHOVIEW
 70
0
  9
$PUCSORGTOP
 10
0.0
 20
0.0
 30
0.0
  9
$PUCSORGBOTTOM
 10
0.0
 20
0.0
 30
0.0
  9
$PUCSORGLEFT
 10
0.0
 20
0.0
 30
0.0
  9
$PUCSORGRIGHT
 10
0.0
 20
0.0
 30
0.0
  9
$PUCSORGFRONT
 10
0.0
 20
0.0
 30
0.0
  9
$PUCSORGBACK
 10
0.0
 20
0.0
 30
0.0
  9
$USERI1
 70
0
  9
$USERI2
 70
0
  9
$USERI3
 70
0
  9
$USERI4
 70
0
  9
$USERI5
 70
0
  9
$USERR1
 40
0.0
  9
$USERR2
 40
0.0
  9
$USERR3
 40
0.0
  9
$USERR4
 40
0.0
  9
$USERR5
 40
0.0
  9
$WORLDVIEW
 70
1
  9
$SHADEDGE
 70
3
  9
$SHADEDIF
 70
70
  9
$TILEMODE
 70
1
  9
$MAXACTVP
 70
64
  9
$PINSBASE
 10
0.0
 20
0.0
 30
0.0
  9
$PLIMCHECK
 70
0
  9
$PEXTMIN
 10
1e+20
 20
1e+20
 30
1e+20
  9
$PEXTMAX
 10
-1e+20
 20
-1e+20
 30
-1e+20
  9
$PLIMMIN
 10
-0.0
 20
-0.0
  9
$PLIMMAX
 10
420.0
 20
297.0
  9
$UNITMODE
 70
0
  9
$VISRETAIN
 70
1
  9
$PLINEGEN
 70
0
  9
$PSLTSCALE
 70
1
  9
$TREEDEPTH
 70
3020
  9
$CMLSTYLE
  2
Standard
  9
$CMLJUST
 70
0
  9
$CMLSCALE
 40
20.0
  9
$PROXYGRAPHICS
 70
1
  9
$MEASUREMENT
 70
1
  9
$CELWEIGHT
370
-1
  9
$ENDCAPS
280
0
  9
$JOINSTYLE
280
0
  9
$LWDISPLAY
290
0
  9
$INSUNITS
 70
4
  9
$HYPERLINKBASE
  1

  9
$STYLESHEET
  1

  9
$XEDIT
290
1
  9
$CEPSNTYPE
380
0
  9
$PSTYLEMODE
290
1
  9
$FINGERPRINTGUID
  2
{00000000-0000-0000-0000-000000000000}
  9
$VERSIONGUID
  2
{00000000-0000-0000-0000-000000000000}
  9
$EXTNAMES
290
1
  9
$PSVPSCALE
 40
0.0
  9
$OLESTARTUP
290
0
  9
$SORTENTS
280
127
  9
$INDEXCTL
280
0
  9
$HIDETEXT
280
1
  9
$XCLIPFRAME
280
1
  9
$HALOGAP
280
0
  9
$OBSCOLOR
 70
257
  9
$OBSLTYPE
280
0
  9
$INTERSECTIONDISPLAY
280
0
  9
$INTERSECTIONCOLOR
 70
257
  9
$DIMASSOC
280
2
  9
$PROJECTNAME
  1
pvsld-symbols-cfe
  9
$CAMERADISPLAY
290
0
  9
$LENSLENGTH
 40
50.0
  9
$CAMERAHEIGHT
 40
0.0
  9
$STEPSPERSEC
 40
24.0
  9
$STEPSIZE
 40
100.0
  9
$3DDWFPREC
 40
2.0
  9
$PSOLWIDTH
 40
0.005
  9
$PSOLHEIGHT
 40
0.08
  9
$LOFTANG1
 40
1.570796326795
  9
$LOFTANG2
 40
1.570796326795
  9
$LOFTMAG1
 40
0.0
  9
$LOFTMAG2
 40
0.0
  9
$LOFTPARAM
 70
7
  9
$LOFTNORMALS
280
1
  9
$LATITUDE
 40
37.795
  9
$LONGITUDE
 40
-122.394
  9
$NORTHDIRECTION
 40
0.0
  9
$TIMEZONE
 70
-8000
  9
$LIGHTGLYPHDISPLAY
280
1
  9
$TILEMODELIGHTSYNCH
280
1
  9
$CMATERIAL
347
20
  9
$SOLIDHIST
280
0
  9
$SHOWHIST
280
1
  9
$DWFFRAME
280
2
  9
$DGNFRAME
280
2
  9
$REALWORLDSCALE
290
1
  9
$INTERFERECOLOR
 62
256
  9
$CSHADOW
280
0
  9
$SHADOWPLANELOCATION
 40
0.0
  0
ENDSEC
  0
SECTION
  2
CLASSES
  0
CLASS
  1
ACDBDICTIONARYWDFLT
  2
AcDbDictionaryWithDefault
  3
ObjectDBX Classes
 90
0
 91
0
280
0
281
0
  0
CLASS
  1
SUN
  2
AcDbSun
  3
SCENEOE
 90
1153
 91
0
280
0
281
0
  0
CLASS
  1
VISUALSTYLE
  2
AcDbVisualStyle
  3
ObjectDBX Classes
 90
4095
 91
0
280
0
281
0
  0
CLASS
  1
MATERIAL
  2
AcDbMaterial
  3
ObjectDBX Classes
 90
1153
 91
0
280
0
281
0
  0
CLASS
  1
SCALE
  2
AcDbScale
  3
ObjectDBX Classes
 90
1153
 91
0
280
0
281
0
  0
CLASS
  1
TABLESTYLE
  2
AcDbTableStyle
  3
ObjectDBX Classes
 90
4095
 91
0
280
0
281
0
  0
CLASS
  1
MLEADERSTYLE
  2
AcDbMLeaderStyle
  3
ACDB_MLEADERSTYLE_CLASS
 90
4095
 91
0
280
0
281
0
  0
CLASS
  1
DICTIONARYVAR
  2
AcDbDictionaryVar
  3
ObjectDBX Classes
 90
0
 91
0
280
0
281
0
  0
CLASS
  1
CELLSTYLEMAP
  2
AcDbCellStyleMap
  3
ObjectDBX Classes
 90
1152
 91
0
280
0
281
0
  0
CLASS
  1
MENTALRAYRENDERSETTINGS
  2
AcDbMentalRayRenderSettings
  3
SCENEOE
 90
1024
 91
0
280
0
281
0
  0
CLASS
  1
ACDBDETAILVIEWSTYLE
  2
AcDbDetailViewStyle
  3
ObjectDBX Classes
 90
1025
 91
0
280
0
281
0
  0
CLASS
  1
ACDBSECTIONVIEWSTYLE
  2
AcDbSectionViewStyle
  3
ObjectDBX Classes
 90
1025
 91
0
280
0
281
0
  0
CLASS
  1
RASTERVARIABLES
  2
AcDbRasterVariables
  3
ISM
 90
0
 91
0
280
0
281
0
  0
CLASS
  1
ACDBPLACEHOLDER
  2
AcDbPlaceHolder
  3
ObjectDBX Classes
 90
0
 91
0
280
0
281
0
  0
CLASS
  1
LAYOUT
  2
AcDbLayout
  3
ObjectDBX Classes
 90
0
 91
0
280
0
281
0
  0
ENDSEC
  0
SECTION
  2
TABLES
  0
TABLE
  2
VPORT
  5
8
330
0
100
AcDbSymbolTable
 70
1
  0
VPORT
  5
23
330
8
100
AcDbSymbolTableRecord
100
AcDbViewportTableRecord
  2
*Active
 70
0
 10
0.0
 20
0.0
 11
1.0
 21
1.0
 12
0.0
 22
0.0
 13
0.0
 23
0.0
 14
0.5
 24
0.5
 15
0.5
 25
0.5
 16
0.0
 26
0.0
 36
1.0
 17
0.0
 27
0.0
 37
0.0
 40
1000.0
 41
1.34
 42
50.0
 43
0.0
 44
0.0
 50
0.0
 51
0.0
 71
0
 72
1000
 73
1
 74
3
 75
0
 76
0
 77
0
 78
0
281
0
 65
0
146
0.0
  0
ENDTAB
  0
TABLE
  2
LTYPE
  5
2
330
0
100
AcDbSymbolTable
 70
7
  0
LTYPE
  5
24
330
2
100
AcDbSymbolTableRecord
100
AcDbLinetypeTableRecord
  2
ByBlock
 70
0
  3

 72
65
 73
0
 40
0.0
  0
LTYPE
  5
25
330
2
100
AcDbSymbolTableRecord
100
AcDbLinetypeTableRecord
  2
ByLayer
 70
0
  3

 72
65
 73
0
 40
0.0
  0
LTYPE
  5
26
330
2
100
AcDbSymbolTableRecord
100
AcDbLinetypeTableRecord
  2
Continuous
 70
0
  3

 72
65
 73
0
 40
0.0
  0
LTYPE
  5
2F
330
2
100
AcDbSymbolTableRecord
100
AcDbLinetypeTableRecord
  2
DASHED
 70
0
  3
Dashed __ __ __ __ __ __
 72
65
 73
2
 40
15.0
 49
12.0
 74
0
 49
-3.0
 74
0
  0
LTYPE
  5
30
330
2
100
AcDbSymbolTableRecord
100
AcDbLinetypeTableRecord
  2
DASHDOT
 70
0
  3
Dash dot __ . __ . __ .
 72
65
 73
4
 40
18.0
 49
12.0
 74
0
 49
-3.0
 74
0
 49
0.0
 74
0
 49
-3.0
 74
0
  0
LTYPE
  5
44
330
2
100
AcDbSymbolTableRecord
100
AcDbLinetypeTableRecord
  2
DOTTED
 70
0
  3
Dotted .  .  .  .
 72
65
 73
2
 40
1.5
 49
0.0
 74
0
 49
-1.5
 74
0
  0
LTYPE
  5
45
330
2
100
AcDbSymbolTableRecord
100
AcDbLinetypeTableRecord
  2
DASHDOT_S
 70
0
  3
Dash dot (small) _ . _ .
 72
65
 73
4
 40
8.0
 49
5.0
 74
0
 49
-1.5
 74
0
 49
0.0
 74
0
 49
-1.5
 74
0
  0
ENDTAB
  0
TABLE
  2
LAYER
  5
1
330
0
100
AcDbSymbolTable
 70
18
  0
LAYER
  5
27
330
1
100
AcDbSymbolTableRecord
100
AcDbLayerTableRecord
  2
0
 70
0
 62
7
  6
Continuous
370
-3
390
13
347
21
  0
LAYER
  5
28
330
1
100
AcDbSymbolTableRecord
100
AcDbLayerTableRecord
  2
Defpoints
 70
0
 62
7
  6
Continuous
290
0
370
-3
390
13
347
21
  0
LAYER
  5
33
330
1
100
AcDbSymbolTableRecord
100
AcDbLayerTableRecord
  2
E-PVDC-EQPM
 70
0
 62
5
  6
CONTINUOUS
370
35
390
13
347
21
1001
AcAecLayerStandard
1000

1000
Ramas FV, desconectadores y DPS de CD
  0
LAYER
  5
35
330
1
100
AcDbSymbolTableRecord
100
AcDbLayerTableRecord
  2
E-PVDC-COND
 70
0
 62
5
  6
CONTINUOUS
370
50
390
13
347
21
1001
AcAecLayerStandard
1000

1000
Conductores de CD
  0
LAYER
  5
36
330
1
100
AcDbSymbolTableRecord
100
AcDbLayerTableRecord
  2
E-PVAC-EQPM
 70
0
 62
1
  6
CONTINUOUS
370
35
390
13
347
21
1001
AcAecLayerStandard
1000

1000
Inversor, interruptores, tableros y DPS de CA
  0
LAYER
  5
37
330
1
100
AcDbSymbolTableRecord
100
AcDbLayerTableRecord
  2
E-PVAC-COND
 70
0
 62
1
  6
CONTINUOUS
370
50
390
13
347
21
1001
AcAecLayerStandard
1000

1000
Conductores y barras de CA
  0
LAYER
  5
38
330
1
100
AcDbSymbolTableRecord
100
AcDbLayerTableRecord
  2
E-UTIL-EQPM
 70
0
 62
6
  6
CONTINUOUS
370
35
390
13
347
21
1001
AcAecLayerStandard
1000

1000
Red, medidores, TC/TP y equipo de MT
  0
LAYER
  5
39
330
1
100
AcDbSymbolTableRecord
100
AcDbLayerTableRecord
  2
E-BATT-EQPM
 70
0
 62
30
  6
CONTINUOUS
370
35
390
13
347
21
1001
AcAecLayerStandard
1000

1000
Baterías y equipo de transferencia
  0
LAYER
  5
3A
330
1
100
AcDbSymbolTableRecord
100
AcDbLayerTableRecord
  2
E-GRND-COND
 70
0
 62
3
  6
DASHED
370
35
390
13
347
21
1001
AcAecLayerStandard
1000

1000
Tierras, puentes y electrodos
  0
LAYER
  5
3B
330
1
100
AcDbSymbolTableRecord
100
AcDbLayerTableRecord
  2
E-COMM-COND
 70
0
 62
8
  6
DASHED
370
25
390
13
347
21
1001
AcAecLayerStandard
1000

1000
Monitoreo y comunicaciones
  0
LAYER
  5
3C
330
1
100
AcDbSymbolTableRecord
100
AcDbLayerTableRecord
  2
E-ANNO-ENCL
 70
0
 62
8
  6
DASHDOT
370
25
390
13
347
21
1001
AcAecLayerStandard
1000

1000
Envolventes y zonas CD/CA
  0
LAYER
  5
3D
330
1
100
AcDbSymbolTableRecord
100
AcDbLayerTableRecord
  2
E-ANNO-TAGS
 70
0
 62
7
  6
CONTINUOUS
370
25
390
13
347
21
1001
AcAecLayerStandard
1000

1000
Etiquetas de equipo y datos de conductores
  0
LAYER
  5
3E
330
1
100
AcDbSymbolTableRecord
100
AcDbLayerTableRecord
  2
E-ANNO-TABL
 70
0
 62
7
  6
CONTINUOUS
370
18
390
13
347
21
1001
AcAecLayerStandard
1000

1000
Tablas de ramas, conductores y protecciones
  0
LAYER
  5
3F
330
1
100
AcDbSymbolTableRecord
100
AcDbLayerTableRecord
  2
E-ANNO-NOTE
 70
0
 62
7
  6
CONTINUOUS
370
18
390
13
347
21
1001
AcAecLayerStandard
1000

1000
Notas generales y simbología
  0
LAYER
  5
40
330
1
100
AcDbSymbolTableRecord
100
AcDbLayerTableRecord
  2
E-ANNO-LABL
 70
0
 62
7
  6
CONTINUOUS
370
25
390
13
347
21
1001
AcAecLayerStandard
1000

1000
Rótulos y advertencias requeridos
  0
LAYER
  5
41
330
1
100
AcDbSymbolTableRecord
100
AcDbLayerTableRecord
  2
G-ANNO-TTLB
 70
0
 62
7
  6
CONTINUOUS
370
70
390
13
347
21
1001
AcAecLayerStandard
1000

1000
Marco y cuadro de datos del plano
  0
LAYER
  5
42
330
1
100
AcDbSymbolTableRecord
100
AcDbLayerTableRecord
  2
G-ANNO-REVS
 70
0
 62
7
  6
CONTINUOUS
370
25
390
13
347
21
1001
AcAecLayerStandard
1000

1000
Cuadro de revisiones
  0
LAYER
  5
43
330
1
100
AcDbSymbolTableRecord
100
AcDbLayerTableRecord
  2
G-ANNO-NPLT
 70
0
 62
9
  6
CONTINUOUS
290
0
370
25
390
13
347
21
1001
AcAecLayerStandard
1000

1000
Geometría auxiliar que no se imprime
  0
ENDTAB
  0
TABLE
  2
STYLE
  5
5
330
0
100
AcDbSymbolTable
 70
2
  0
STYLE
  5
29
330
5
100
AcDbSymbolTableRecord
100
AcDbTextStyleTableRecord
  2
Standard
 70
0
 40
0.0
 41
1.0
 50
0.0
 71
0
 42
2.5
  3
txt
  4

  0
STYLE
  5
31
330
5
100
AcDbSymbolTableRecord
100
AcDbTextStyleTableRecord
  2
PVSLD_STD
 70
0
 40
0.0
 41
1.0
 50
0.0
 71
0
 42
2.5
  3
arial.ttf
  4

  0
ENDTAB
  0
TABLE
  2
VIEW
  5
7
330
0
100
AcDbSymbolTable
 70
0
  0
ENDTAB
  0
TABLE
  2
UCS
  5
6
330
0
100
AcDbSymbolTable
 70
0
  0
ENDTAB
  0
TABLE
  2
APPID
  5
3
330
0
100
AcDbSymbolTable
 70
5
  0
APPID
  5
2A
330
3
100
AcDbSymbolTableRecord
100
AcDbRegAppTableRecord
  2
ACAD
 70
0
  0
APPID
  5
32
330
3
100
AcDbSymbolTableRecord
100
AcDbRegAppTableRecord
  2
PVSLD
 70
0
  0
APPID
  5
34
330
3
100
AcDbSymbolTableRecord
100
AcDbRegAppTableRecord
  2
AcAecLayerStandard
 70
0
  0
APPID
  5
2A4
330
3
100
AcDbSymbolTableRecord
100
AcDbRegAppTableRecord
  2
HATCHBACKGROUNDCOLOR
 70
0
  0
APPID
  5
2A5
330
3
100
AcDbSymbolTableRecord
100
AcDbRegAppTableRecord
  2
EZDXF
 70
0
  0
ENDTAB
  0
TABLE
  2
DIMSTYLE
  5
4
330
0
100
AcDbSymbolTable
 70
1
100
AcDbDimStyleTable
  0
DIMSTYLE
105
2B
330
4
100
AcDbSymbolTableRecord
100
AcDbDimStyleTableRecord
  2
Standard
 70
0
 40
1.0
 41
2.5
 42
0.625
 43
3.75
 44
1.25
 45
0.0
 46
0.0
 47
0.0
 48
0.0
 49
2.5
140
2.5
141
2.5
142
0.0
143
0.03937007874
144
1.0
145
0.0
146
1.0
147
0.625
148
0.0
 69
0
 70
0
 71
0
 72
0
 73
0
 74
0
 75
0
 76
0
 77
1
 78
8
 79
3
170
0
171
3
172
1
173
0
174
0
175
0
176
0
177
0
178
0
179
2
271
2
272
2
273
2
274
3
275
0
276
0
277
2
278
44
279
0
280
0
281
0
282
0
283
0
284
8
285
0
286
0
288
0
289
3
290
0
371
-2
372
-2
  0
ENDTAB
  0
TABLE
  2
BLOCK_RECORD
  5
9
330
0
100
AcDbSymbolTable
 70
24
  0
BLOCK_RECORD
  5
17
330
9
100
AcDbSymbolTableRecord
100
AcDbBlockTableRecord
  2
*Model_Space
340
1A
 70
0
280
1
281
0
  0
BLOCK_RECORD
  5
1B
330
9
100
AcDbSymbolTableRecord
100
AcDbBlockTableRecord
  2
*Paper_Space
340
1E
 70
0
280
1
281
0
  0
BLOCK_RECORD
  5
46
330
9
100
AcDbSymbolTableRecord
100
AcDbBlockTableRecord
  2
PVSLD_PV_MODULE
340
0
 70
0
280
1
281
0
1001
PVSLD
1000
pvsld.block/1
1000
0.4.0
1070
2
1000
POS
1000
DC
1000
up
1040
5.0
1040
10.0
1070
1
1000
NEG
1000
DC
1000
down
1040
5.0
1040
-10.0
1070
1
1000
CFE G0100-04 Apéndice C
  0
BLOCK_RECORD
  5
58
330
9
100
AcDbSymbolTableRecord
100
AcDbBlockTableRecord
  2
PVSLD_SPD
340
0
 70
0
280
1
281
0
1001
PVSLD
1000
pvsld.block/1
1000
0.4.0
1070
2
1000
L
1000
DC
1000
up
1040
0.0
1040
0.0
1070
1
1000
PE
1000
PE
1000
down
1040
0.0
1040
-20.0
1070
1
1000
CFE G0100-04 Apéndice C
  0
BLOCK_RECORD
  5
6A
330
9
100
AcDbSymbolTableRecord
100
AcDbBlockTableRecord
  2
PVSLD_CB
340
0
 70
0
280
1
281
0
1001
PVSLD
1000
pvsld.block/1
1000
0.4.0
1070
2
1000
IN
1000
AC
1000
left
1040
0.0
1040
0.0
1070
1
1000
OUT
1000
AC
1000
right
1040
20.0
1040
0.0
1070
1
1000
CFE G0100-04 Apéndice C
  0
BLOCK_RECORD
  5
7F
330
9
100
AcDbSymbolTableRecord
100
AcDbBlockTableRecord
  2
PVSLD_INV
340
0
 70
0
280
1
281
0
1001
PVSLD
1000
pvsld.block/1
1000
0.4.0
1070
4
1000
A
1000
DC
1000
left
1040
0.0
1040
10.0
1070
1
1000
B
1000
DC
1000
left
1040
0.0
1040
-10.0
1070
0
1000
AC
1000
AC
1000
right
1040
50.0
1040
0.0
1070
1
1000
PE
1000
PE
1000
down
1040
25.0
1040
-22.5
1070
1
1000
CFE G0100-04 Apéndice C
  0
BLOCK_RECORD
  5
9B
330
9
100
AcDbSymbolTableRecord
100
AcDbBlockTableRecord
  2
PVSLD_METER
340
0
 70
0
280
1
281
0
1001
PVSLD
1000
pvsld.block/1
1000
0.4.0
1070
2
1000
IN
1000
AC
1000
left
1040
0.0
1040
0.0
1070
1
1000
OUT
1000
AC
1000
right
1040
15.0
1040
0.0
1070
1
1000
CFE G0100-04 Apéndice C
  0
BLOCK_RECORD
  5
AE
330
9
100
AcDbSymbolTableRecord
100
AcDbBlockTableRecord
  2
PVSLD_GRID
340
0
 70
0
280
1
281
0
1001
PVSLD
1000
pvsld.block/1
1000
0.4.0
1070
1
1000
IN
1000
AC
1000
left
1040
0.0
1040
0.0
1070
1
1000
CFE G0100-04 Apéndice C
  0
BLOCK_RECORD
  5
BF
330
9
100
AcDbSymbolTableRecord
100
AcDbBlockTableRecord
  2
PVSLD_ENCLOSURE
340
0
 70
0
280
1
281
0
1001
PVSLD
1000
pvsld.block/1
1000
0.4.0
1070
0
1000
CFE G0100-04 Apéndice C
  0
BLOCK_RECORD
  5
CA
330
9
100
AcDbSymbolTableRecord
100
AcDbBlockTableRecord
  2
PVSLD_DIODE
340
0
 70
0
280
1
281
0
1001
PVSLD
1000
pvsld.block/1
1000
0.4.0
1070
2
1000
K
1000
DC
1000
up
1040
0.0
1040
0.0
1070
1
1000
A
1000
DC
1000
down
1040
0.0
1040
-17.5
1070
1
1000
CFE G0100-04 Apéndice C
  0
BLOCK_RECORD
  5
D9
330
9
100
AcDbSymbolTableRecord
100
AcDbBlockTableRecord
  2
PVSLD_LOAD_LIGHT
340
0
 70
0
280
1
281
0
1001
PVSLD
1000
pvsld.block/1
1000
0.4.0
1070
1
1000
IN
1000
AC
1000
left
1040
0.0
1040
0.0
1070
1
1000
CFE G0100-04 Apéndice C
  0
BLOCK_RECORD
  5
EA
330
9
100
AcDbSymbolTableRecord
100
AcDbBlockTableRecord
  2
PVSLD_CT
340
0
 70
0
280
1
281
0
1001
PVSLD
1000
pvsld.block/1
1000
0.4.0
1070
4
1000
IN
1000
AC
1000
left
1040
0.0
1040
0.0
1070
1
1000
OUT
1000
AC
1000
right
1040
15.0
1040
0.0
1070
1
1000
IN2
1000
AC
1000
left
1040
0.0
1040
-10.0
1070
0
1000
OUT2
1000
AC
1000
right
1040
15.0
1040
-10.0
1070
0
1000
CFE G0100-04 Apéndice C
  0
BLOCK_RECORD
  5
FD
330
9
100
AcDbSymbolTableRecord
100
AcDbBlockTableRecord
  2
PVSLD_SWITCH
340
0
 70
0
280
1
281
0
1001
PVSLD
1000
pvsld.block/1
1000
0.4.0
1070
2
1000
IN
1000
AC
1000
left
1040
0.0
1040
0.0
1070
1
1000
OUT
1000
AC
1000
right
1040
25.0
1040
0.0
1070
1
1000
CFE G0100-04 Apéndice C
  0
BLOCK_RECORD
  5
111
330
9
100
AcDbSymbolTableRecord
100
AcDbBlockTableRecord
  2
PVSLD_XFMR_ISO
340
0
 70
0
280
1
281
0
1001
PVSLD
1000
pvsld.block/1
1000
0.4.0
1070
4
1000
IN
1000
AC
1000
left
1040
0.0
1040
0.0
1070
1
1000
OUT
1000
AC
1000
right
1040
25.0
1040
0.0
1070
1
1000
IN2
1000
AC
1000
left
1040
0.0
1040
-20.0
1070
0
1000
OUT2
1000
AC
1000
right
1040
25.0
1040
-20.0
1070
0
1000
CFE G0100-04 Apéndice C
  0
BLOCK_RECORD
  5
12D
330
9
100
AcDbSymbolTableRecord
100
AcDbBlockTableRecord
  2
PVSLD_LOAD_RECEPT
340
0
 70
0
280
1
281
0
1001
PVSLD
1000
pvsld.block/1
1000
0.4.0
1070
1
1000
IN
1000
AC
1000
left
1040
0.0
1040
0.0
1070
1
1000
CFE G0100-04 Apéndice C
  0
BLOCK_RECORD
  5
13C
330
9
100
AcDbSymbolTableRecord
100
AcDbBlockTableRecord
  2
PVSLD_GND
340
0
 70
0
280
1
281
0
1001
PVSLD
1000
pvsld.block/1
1000
0.4.0
1070
1
1000
PE
1000
PE
1000
up
1040
0.0
1040
0.0
1070
1
1000
CFE G0100-04 Apéndice D
  0
BLOCK_RECORD
  5
14D
330
9
100
AcDbSymbolTableRecord
100
AcDbBlockTableRecord
  2
PVSLD_COND_MARK
340
0
 70
0
280
1
281
0
1001
PVSLD
1000
pvsld.block/1
1000
0.4.0
1070
0
1000
CFE G0100-04 Apéndice D
  0
BLOCK_RECORD
  5
159
330
9
100
AcDbSymbolTableRecord
100
AcDbBlockTableRecord
  2
PVSLD_POL_POS
340
0
 70
0
280
1
281
0
1001
PVSLD
1000
pvsld.block/1
1000
0.4.0
1070
0
1000
CFE G0100-04 Apéndice D
  0
BLOCK_RECORD
  5
164
330
9
100
AcDbSymbolTableRecord
100
AcDbBlockTableRecord
  2
PVSLD_POL_NEG
340
0
 70
0
280
1
281
0
1001
PVSLD
1000
pvsld.block/1
1000
0.4.0
1070
0
1000
CFE G0100-04 Apéndice D
  0
BLOCK_RECORD
  5
16E
330
9
100
AcDbSymbolTableRecord
100
AcDbBlockTableRecord
  2
PVSLD_JUNCTION
340
0
 70
0
280
1
281
0
1001
PVSLD
1000
pvsld.block/1
1000
0.4.0
1070
0
1000
CFE G0100-04 Apéndice D
  0
BLOCK_RECORD
  5
178
330
9
100
AcDbSymbolTableRecord
100
AcDbBlockTableRecord
  2
PVSLD_PV_STRING
340
0
 70
0
280
1
281
0
1001
PVSLD
1000
pvsld.block/1
1000
0.4.0
1070
1
1000
OUT
1000
DC
1000
right
1040
30.0
1040
0.0
1070
1
1000
CFE G0100-04 Apéndices C y D
  0
BLOCK_RECORD
  5
192
330
9
100
AcDbSymbolTableRecord
100
AcDbBlockTableRecord
  2
PVSLD_PANEL
340
0
 70
0
280
1
281
0
1001
PVSLD
1000
pvsld.block/1
1000
0.4.0
1070
3
1000
LEFT
1000
AC
1000
left
1040
0.0
1040
0.0
1070
1
1000
RIGHT
1000
AC
1000
right
1040
45.0
1040
0.0
1070
1
1000
PE
1000
PE
1000
down
1040
22.5
1040
-27.5
1070
1
1000
CFE G0100-04 Apéndice D
  0
BLOCK_RECORD
  5
1A7
330
9
100
AcDbSymbolTableRecord
100
AcDbBlockTableRecord
  2
PVSLD_PI
340
0
 70
0
280
1
281
0
1001
PVSLD
1000
pvsld.block/1
1000
0.4.0
1070
2
1000
IN
1000
AC
1000
left
1040
0.0
1040
0.0
1070
1
1000
OUT
1000
AC
1000
right
1040
10.0
1040
0.0
1070
1
1000
pvsld (sin símbolo en CFE G0100-04 ni IEC 60617)
  0
BLOCK_RECORD
  5
1B5
330
9
100
AcDbSymbolTableRecord
100
AcDbBlockTableRecord
  2
PVSLD_TTLB
340
0
 70
0
280
1
281
0
1001
PVSLD
1000
pvsld.block/1
1000
0.4.0
1070
0
1000
pvsld (sin símbolo en CFE G0100-04 ni IEC 60617)
  0
ENDTAB
  0
ENDSEC
  0
SECTION
  2
BLOCKS
  0
BLOCK
  5
18
330
17
100
AcDbEntity
  8
0
100
AcDbBlockBegin
  2
*Model_Space
 70
0
 10
0.0
 20
0.0
 30
0.0
  3
*Model_Space
  1

  0
ENDBLK
  5
19
330
17
100
AcDbEntity
  8
0
100
AcDbBlockEnd
  0
BLOCK
  5
1C
330
1B
100
AcDbEntity
  8
0
100
AcDbBlockBegin
  2
*Paper_Space
 70
0
 10
0.0
 20
0.0
 30
0.0
  3
*Paper_Space
  1

  0
ENDBLK
  5
1D
330
1B
100
AcDbEntity
  8
0
100
AcDbBlockEnd
  0
BLOCK
  5
47
330
46
100
AcDbEntity
  8
0
100
AcDbBlockBegin
  2
PVSLD_PV_MODULE
 70
2
 10
0.0
 20
0.0
 30
0.0
  3
PVSLD_PV_MODULE
  1

  0
LWPOLYLINE
  5
49
330
46
100
AcDbEntity
  8
E-PVDC-EQPM
100
AcDbPolyline
 90
4
 70
1
 10
0.0
 20
-10.0
 10
10.0
 20
-10.0
 10
10.0
 20
10.0
 10
0.0
 20
10.0
  0
LWPOLYLINE
  5
4A
330
46
100
AcDbEntity
  8
E-PVDC-EQPM
100
AcDbPolyline
 90
3
 70
0
 10
0.0
 20
10.0
 10
5.0
 20
2.5
 10
10.0
 20
10.0
  0
ATTDEF
  5
4B
330
46
100
AcDbEntity
  8
E-ANNO-TAGS
100
AcDbText
 10
12.5
 20
5.0
 30
0.0
 40
3.5
  1

  7
PVSLD_STD
100
AcDbAttributeDefinition
  3
Identificador
  2
TAG
 70
0
 71
1
 72
0
  0
ATTDEF
  5
4C
330
46
100
AcDbEntity
  8
E-ANNO-TAGS
100
AcDbText
 10
12.5
 20
0.5
 30
0.0
 40
2.5
  1
Módulo fotovoltaico
  7
PVSLD_STD
100
AcDbAttributeDefinition
  3
Descripción
  2
DESC
 70
0
 71
1
 72
0
  0
ATTDEF
  5
4D
330
46
100
AcDbEntity
  8
E-ANNO-TAGS
100
AcDbText
 10
0.0
 20
0.0
 30
0.0
 40
2.5
  1

  7
PVSLD_STD
100
AcDbAttributeDefinition
  3
Identificador en el modelo
  2
COMP_ID
 70
1
 71
1
 72
0
  0
ATTDEF
  5
4E
330
46
100
AcDbEntity
  8
E-ANNO-TAGS
100
AcDbText
 10
0.0
 20
0.0
 30
0.0
 40
2.5
  1
IEC 60617 S00908
  7
PVSLD_STD
100
AcDbAttributeDefinition
  3
Referencia IEC 60617
  2
IEC_REF
 70
1
 71
1
 72
0
  0
ATTDEF
  5
4F
330
46
100
AcDbEntity
  8
E-ANNO-TAGS
100
AcDbText
 10
0.0
 20
0.0
 30
0.0
 40
2.5
  1
NMX-J-136-ANCE (pendiente)
  7
PVSLD_STD
100
AcDbAttributeDefinition
  3
Referencia NMX-J-136-ANCE
  2
NMX_REF
 70
1
 71
1
 72
0
  0
ATTDEF
  5
50
330
46
100
AcDbEntity
  8
E-ANNO-TAGS
100
AcDbText
 10
0.0
 20
0.0
 30
0.0
 40
2.5
  1
CFE G0100-04 Apéndice C
  7
PVSLD_STD
100
AcDbAttributeDefinition
  3
Norma de origen del símbolo
  2
SOURCE_STANDARD
 70
1
 71
1
 72
0
  0
ATTDEF
  5
51
330
46
100
AcDbEntity
  8
E-ANNO-TAGS
100
AcDbText
 10
12.5
 20
-4.0
 30
0.0
 40
2.5
  1

  7
PVSLD_STD
100
AcDbAttributeDefinition
  3
Modelo del módulo
  2
MODEL
 70
0
 71
1
 72
0
  0
ATTDEF
  5
52
330
46
100
AcDbEntity
  8
E-ANNO-TAGS
100
AcDbText
 10
0.0
 20
0.0
 30
0.0
 40
2.5
  1

  7
PVSLD_STD
100
AcDbAttributeDefinition
  3
Fabricante del módulo
  2
MFR
 70
1
 71
1
 72
0
  0
ATTDEF
  5
53
330
46
100
AcDbEntity
  8
E-ANNO-TAGS
100
AcDbText
 10
0.0
 20
0.0
 30
0.0
 40
2.5
  1

  7
PVSLD_STD
100
AcDbAttributeDefinition
  3
Potencia del módulo (W)
  2
PMAX_W
 70
1
 71
1
 72
0
  0
ATTDEF
  5
54
330
46
100
AcDbEntity
  8
E-ANNO-TAGS
100
AcDbText
 10
0.0
 20
0.0
 30
0.0
 40
2.5
  1

  7
PVSLD_STD
100
AcDbAttributeDefinition
  3
Voc en STC (V)
  2
VOC_V
 70
1
 71
1
 72
0
  0
ATTDEF
  5
55
330
46
100
AcDbEntity
  8
E-ANNO-TAGS
100
AcDbText
 10
0.0
 20
0.0
 30
0.0
 40
2.5
  1

  7
PVSLD_STD
100
AcDbAttributeDefinition
  3
Vmp en STC (V)
  2
VMP_V
 70
1
 71
1
 72
0
  0
ATTDEF
  5
56
330
46
100
AcDbEntity
  8
E-ANNO-TAGS
100
AcDbText
 10
0.0
 20
0.0
 30
0.0
 40
2.5
  1

  7
PVSLD_STD
100
AcDbAttributeDefinition
  3
Isc del módulo (A)
  2
ISC_A
 70
1
 71
1
 72
0
  0
ATTDEF
  5
57
330
46
100
AcDbEntity
  8
E-ANNO-TAGS
100
AcDbText
 10
0.0
 20
0.0
 30
0.0
 40
2.5
  1

  7
PVSLD_STD
100
AcDbAttributeDefinition
  3
Imp del módulo (A)
  2
IMP_A
 70
1
 71
1
 72
0
  0
ENDBLK
  5
48
330
46
100
AcDbEntity
  8
0
100
AcDbBlockEnd
  0
BLOCK
  5
59
330
58
100
AcDbEntity
  8
0
100
AcDbBlockBegin
  2
PVSLD_SPD
 70
2
 10
0.0
 20
0.0
 30
0.0
  3
PVSLD_SPD
  1

  0
LINE
  5
5B
330
58
100
AcDbEntity
  8
E-PVDC-EQPM
100
AcDbLine
 10
0.0
 20
0.0
 30
0.0
 11
0.0
 21
-5.0
 31
0.0
  0
LWPOLYLINE
  5
5C
330
58
100
AcDbEntity
  8
E-PVDC-EQPM
100
AcDbPolyline
 90
4
 70
1
 10
-2.5
 20
-15.0
 10
2.5
 20
-15.0
 10
2.5
 20
-5.0
 10
-2.5
 20
-5.0
  0
LINE
  5
5D
330
58
100
AcDbEntity
  8
E-PVDC-EQPM
100
AcDbLine
 10
0.0
 20
-15.0
 30
0.0
 11
0.0
 21
-20.0
 31
0.0
  0
LWPOLYLINE
  5
5E
330
58
100
AcDbEntity
  8
E-PVDC-EQPM
100
AcDbPolyline
 90
4
 70
0
 10
-4.0
 20
-15.0
 10
-4.0
 20
-11.5
 10
4.0
 20
-8.5
 10
4.0
 20
-5.0
  0
ATTDEF
  5
5F
330
58
100
AcDbEntity
  8
E-ANNO-TAGS
100
AcDbText
 10
7.0
 20
-6.0
 30
0.0
 40
3.5
  1

  7
PVSLD_STD
100
AcDbAttributeDefinition
  3
Identificador
  2
TAG
 70
0
 71
1
 72
0
  0
ATTDEF
  5
60
330
58
100
AcDbEntity
  8
E-ANNO-TAGS
100
AcDbText
 10
7.0
 20
-10.0
 30
0.0
 40
2.5
  1
Varistor (dispositivo de protección contra sobretensiones)
  7
PVSLD_STD
100
AcDbAttributeDefinition
  3
Descripción
  2
DESC
 70
0
 71
1
 72
0
  0
ATTDEF
  5
61
330
58
100
AcDbEntity
  8
E-ANNO-TAGS
100
AcDbText
 10
0.0
 20
0.0
 30
0.0
 40
2.5
  1

  7
PVSLD_STD
100
AcDbAttributeDefinition
  3
Identificador en el modelo
  2
COMP_ID
 70
1
 71
1
 72
0
  0
ATTDEF
  5
62
330
58
100
AcDbEntity
  8
E-ANNO-TAGS
100
AcDbText
 10
0.0
 20
0.0
 30
0.0
 40
2.5
  1
-
  7
PVSLD_STD
100
AcDbAttributeDefinition
  3
Referencia IEC 60617
  2
IEC_REF
 70
1
 71
1
 72
0
  0
ATTDEF
  5
63
330
58
100
AcDbEntity
  8
E-ANNO-TAGS
100
AcDbText
 10
0.0
 20
0.0
 30
0.0
 40
2.5
  1
NMX-J-136-ANCE (pendiente)
  7
PVSLD_STD
100
AcDbAttributeDefinition
  3
Referencia NMX-J-136-ANCE
  2
NMX_REF
 70
1
 71
1
 72
0
  0
ATTDEF
  5
64
330
58
100
AcDbEntity
  8
E-ANNO-TAGS
100
AcDbText
 10
0.0
 20
0.0
 30
0.0
 40
2.5
  1
CFE G0100-04 Apéndice C
  7
PVSLD_STD
100
AcDbAttributeDefinition
  3
Norma de origen del símbolo
  2
SOURCE_STANDARD
 70
1
 71
1
 72
0
  0
ATTDEF
  5
65
330
58
100
AcDbEntity
  8
E-ANNO-TAGS
100
AcDbText
 10
7.0
 20
-14.0
 30
0.0
 40
2.5
  1

  7
PVSLD_STD
100
AcDbAttributeDefinition
  3
Datos del varistor
  2
SPEC
 70
0
 71
1
 72
0
  0
ATTDEF
  5
66
330
58
100
AcDbEntity
  8
E-ANNO-TAGS
100
AcDbText
 10
0.0
 20
0.0
 30
0.0
 40
2.5
  1

  7
PVSLD_STD
100
AcDbAttributeDefinition
  3
Tipo (1, 2, 3)
  2
SPD_TYPE
 70
1
 71
1
 72
0
  0
ATTDEF
  5
67
330
58
100
AcDbEntity
  8
E-ANNO-TAGS
100
AcDbText
 10
0.0
 20
0.0
 30
0.0
 40
2.5
  1

  7
PVSLD_STD
100
AcDbAttributeDefinition
  3
Tensión máxima de operación continua (V)
  2
UC_V
 70
1
 71
1
 72
0
  0
ATTDEF
  5
68
330
58
100
AcDbEntity
  8
E-ANNO-TAGS
100
AcDbText
 10
0.0
 20
0.0
 30
0.0
 40
2.5
  1

  7
PVSLD_STD
100
AcDbAttributeDefinition
  3
Nivel de protección (kV)
  2
UP_KV
 70
1
 71
1
 72
0
  0
ATTDEF
  5
69
330
58
100
AcDbEntity
  8
E-ANNO-TAGS
100
AcDbText
 10
0.0
 20
0.0
 30
0.0
 40
2.5
  1

  7
PVSLD_STD
100
AcDbAttributeDefinition
  3
Corriente nominal de descarga (kA)
  2
IN_KA
 70
1
 71
1
 72
0
  0
ENDBLK
  5
5A
330
58
100
AcDbEntity
  8
0
100
AcDbBlockEnd
  0
BLOCK
  5
6B
330
6A
100
AcDbEntity
  8
0
100
AcDbBlockBegin
  2
PVSLD_CB
 70
2
 10
0.0
 20
0.0
 30
0.0
  3
PVSLD_CB
  1

  0
LINE
  5
6D
330
6A
100
AcDbEntity
  8
E-PVAC-EQPM
100
AcDbLine
 10
0.0
 20
0.0
 30
0.0
 11
3.5
 21
0.0
 31
0.0
  0
ARC
  5
6E
330
6A
100
AcDbEntity
  8
E-PVAC-EQPM
100
AcDbCircle
 10
6.0
 20
-0.4455
 30
0.0
 40
3.4455
100
AcDbArc
 50
29.5
 51
150.5
  0
LINE
  5
6F
330
6A
100
AcDbEntity
  8
E-PVAC-EQPM
100
AcDbLine
 10
8.0
 20
0.0
 30
0.0
 11
11.0
 21
0.0
 31
0.0
  0
CIRCLE
  5
70
330
6A
100
AcDbEntity
  8
E-PVAC-EQPM
100
AcDbCircle
 10
12.0
 20
0.0
 30
0.0
 40
1.0
  0
LINE
  5
71
330
6A
100
AcDbEntity
  8
E-PVAC-EQPM
100
AcDbLine
 10
13.0
 20
0.0
 30
0.0
 11
15.0
 21
0.0
 31
0.0
  0
LWPOLYLINE
  5
72
330
6A
100
AcDbEntity
  8
E-PVAC-EQPM
100
AcDbPolyline
 90
4
 70
0
 10
15.0
 20
0.0
 10
16.5
 20
1.5
 10
18.5
 20
-1.5
 10
20.0
 20
0.0
  0
ATTDEF
  5
73
330
6A
100
AcDbEntity
  8
E-ANNO-TAGS
100
AcDbText
 10
0.0
 20
9.5
 30
0.0
 40
3.5
  1

  7
PVSLD_STD
100
AcDbAttributeDefinition
  3
Identificador
  2
TAG
 70
0
 71
1
 72
0
  0
ATTDEF
  5
74
330
6A
100
AcDbEntity
  8
E-ANNO-TAGS
100
AcDbText
 10
0.0
 20
-6.0
 30
0.0
 40
2.5
  1
Interruptor termomagnético (ITM)
  7
PVSLD_STD
100
AcDbAttributeDefinition
  3
Descripción
  2
DESC
 70
0
 71
1
 72
0
  0
ATTDEF
  5
75
330
6A
100
AcDbEntity
  8
E-ANNO-TAGS
100
AcDbText
 10
0.0
 20
0.0
 30
0.0
 40
2.5
  1

  7
PVSLD_STD
100
AcDbAttributeDefinition
  3
Identificador en el modelo
  2
COMP_ID
 70
1
 71
1
 72
0
  0
ATTDEF
  5
76
330
6A
100
AcDbEntity
  8
E-ANNO-TAGS
100
AcDbText
 10
0.0
 20
0.0
 30
0.0
 40
2.5
  1
IEC 60617 S00287
  7
PVSLD_STD
100
AcDbAttributeDefinition
  3
Referencia IEC 60617
  2
IEC_REF
 70
1
 71
1
 72
0
  0
ATTDEF
  5
77
330
6A
100
AcDbEntity
  8
E-ANNO-TAGS
100
AcDbText
 10
0.0
 20
0.0
 30
0.0
 40
2.5
  1
NMX-J-136-ANCE (pendiente)
  7
PVSLD_STD
100
AcDbAttributeDefinition
  3
Referencia NMX-J-136-ANCE
  2
NMX_REF
 70
1
 71
1
 72
0
  0
ATTDEF
  5
78
330
6A
100
AcDbEntity
  8
E-ANNO-TAGS
100
AcDbText
 10
0.0
 20
0.0
 30
0.0
 40
2.5
  1
CFE G0100-04 Apéndice C
  7
PVSLD_STD
100
AcDbAttributeDefinition
  3
Norma de origen del símbolo
  2
SOURCE_STANDARD
 70
1
 71
1
 72
0
  0
ATTDEF
  5
79
330
6A
100
AcDbEntity
  8
E-ANNO-TAGS
100
AcDbText
 10
0.0
 20
5.5
 30
0.0
 40
2.5
  1

  7
PVSLD_STD
100
AcDbAttributeDefinition
  3
Función (I1, I2)
  2
ROLE
 70
0
 71
1
 72
0
  0
ATTDEF
  5
7A
330
6A
100
AcDbEntity
  8
E-ANNO-TAGS
100
AcDbText
 10
0.0
 20
0.0
 30
0.0
 40
2.5
  1

  7
PVSLD_STD
100
AcDbAttributeDefinition
  3
Polos
  2
POLES
 70
1
 71
1
 72
0
  0
ATTDEF
  5
7B
330
6A
100
AcDbEntity
  8
E-ANNO-TAGS
100
AcDbText
 10
0.0
 20
0.0
 30
0.0
 40
2.5
  1

  7
PVSLD_STD
100
AcDbAttributeDefinition
  3
Corriente nominal (A)
  2
RATING_A
 70
1
 71
1
 72
0
  0
ATTDEF
  5
7C
330
6A
100
AcDbEntity
  8
E-ANNO-TAGS
100
AcDbText
 10
0.0
 20
0.0
 30
0.0
 40
2.5
  1

  7
PVSLD_STD
100
AcDbAttributeDefinition
  3
Tensión (V)
  2
VOLT_V
 70
1
 71
1
 72
0
  0
ATTDEF
  5
7D
330
6A
100
AcDbEntity
  8
E-ANNO-TAGS
100
AcDbText
 10
0.0
 20
0.0
 30
0.0
 40
2.5
  1

  7
PVSLD_STD
100
AcDbAttributeDefinition
  3
Capacidad interruptiva (kA)
  2
KAIC_KA
 70
1
 71
1
 72
0
  0
ATTDEF
  5
7E
330
6A
100
AcDbEntity
  8
E-ANNO-TAGS
100
AcDbText
 10
0.0
 20
0.0
 30
0.0
 40
2.5
  1

  7
PVSLD_STD
100
AcDbAttributeDefinition
  3
Alimentado en sentido inverso
  2
BACKFED
 70
1
 71
1
 72
0
  0
ENDBLK
  5
6C
330
6A
100
AcDbEntity
  8
0
100
AcDbBlockEnd
  0
BLOCK
  5
80
330
7F
100
AcDbEntity
  8
0
100
AcDbBlockBegin
  2
PVSLD_INV
 70
2
 10
0.0
 20
0.0
 30
0.0
  3
PVSLD_INV
  1

  0
LWPOLYLINE
  5
82
330
7F
100
AcDbEntity
  8
E-PVAC-EQPM
100
AcDbPolyline
 90
4
 70
1
 10
0.0
 20
-22.5
 10
50.0
 20
-22.5
 10
50.0
 20
22.5
 10
0.0
 20
22.5
  0
LINE
  5
83
330
7F
100
AcDbEntity
  8
E-PVAC-EQPM
100
AcDbLine
 10
0.0
 20
-22.5
 30
0.0
 11
50.0
 21
22.5
 31
0.0
  0
LINE
  5
84
330
7F
100
AcDbEntity
  8
E-PVAC-EQPM
100
AcDbLine
 10
8.0
 20
15.0
 30
0.0
 11
18.0
 21
15.0
 31
0.0
  0
LINE
  5
85
330
7F
100
AcDbEntity
  8
E-PVAC-EQPM
100
AcDbLine
 10
8.0
 20
12.0
 30
0.0
 11
18.0
 21
12.0
 31
0.0
  0
LWPOLYLINE
  5
86
330
7F
100
AcDbEntity
  8
E-PVAC-EQPM
100
AcDbPolyline
 90
25
 70
0
 10
33.0
 20
-13.0
 10
33.4167
 20
-12.353
 10
33.8333
 20
-11.75
 10
34.25
 20
-11.2322
 10
34.6667
 20
-10.8349
 10
35.0833
 20
-10.5852
 10
35.5
 20
-10.5
 10
35.9167
 20
-10.5852
 10
36.3333
 20
-10.8349
 10
36.75
 20
-11.2322
 10
37.1667
 20
-11.75
 10
37.5833
 20
-12.353
 10
38.0
 20
-13.0
 10
38.4167
 20
-13.647
 10
38.8333
 20
-14.25
 10
39.25
 20
-14.7678
 10
39.6667
 20
-15.1651
 10
40.0833
 20
-15.4148
 10
40.5
 20
-15.5
 10
40.9167
 20
-15.4148
 10
41.3333
 20
-15.1651
 10
41.75
 20
-14.7678
 10
42.1667
 20
-14.25
 10
42.5833
 20
-13.647
 10
43.0
 20
-13.0
  0
TEXT
  5
87
330
7F
100
AcDbEntity
  8
E-ANNO-TAGS
100
AcDbText
 10
1.5
 20
11.5
 30
0.0
 40
2.5
  1
A
  7
PVSLD_STD
 11
1.5
 21
11.5
 31
0.0
100
AcDbText
  0
TEXT
  5
88
330
7F
100
AcDbEntity
  8
E-ANNO-TAGS
100
AcDbText
 10
1.5
 20
-14.0
 30
0.0
 40
2.5
  1
B
  7
PVSLD_STD
 11
1.5
 21
-14.0
 31
0.0
100
AcDbText
  0
ATTDEF
  5
89
330
7F
100
AcDbEntity
  8
E-ANNO-TAGS
100
AcDbText
 10
0.0
 20
36.5
 30
0.0
 40
3.5
  1

  7
PVSLD_STD
100
AcDbAttributeDefinition
  3
Identificador
  2
TAG
 70
0
 71
1
 72
0
  0
ATTDEF
  5
8A
330
7F
100
AcDbEntity
  8
E-ANNO-TAGS
100
AcDbText
 10
0.0
 20
32.5
 30
0.0
 40
2.5
  1
Inversor de red de cadena
  7
PVSLD_STD
100
AcDbAttributeDefinition
  3
Descripción
  2
DESC
 70
0
 71
1
 72
0
  0
ATTDEF
  5
8B
330
7F
100
AcDbEntity
  8
E-ANNO-TAGS
100
AcDbText
 10
0.0
 20
0.0
 30
0.0
 40
2.5
  1

  7
PVSLD_STD
100
AcDbAttributeDefinition
  3
Identificador en el modelo
  2
COMP_ID
 70
1
 71
1
 72
0
  0
ATTDEF
  5
8C
330
7F
100
AcDbEntity
  8
E-ANNO-TAGS
100
AcDbText
 10
0.0
 20
0.0
 30
0.0
 40
2.5
  1
IEC 60617 S00896
  7
PVSLD_STD
100
AcDbAttributeDefinition
  3
Referencia IEC 60617
  2
IEC_REF
 70
1
 71
1
 72
0
  0
ATTDEF
  5
8D
330
7F
100
AcDbEntity
  8
E-ANNO-TAGS
100
AcDbText
 10
0.0
 20
0.0
 30
0.0
 40
2.5
  1
NMX-J-136-ANCE (pendiente)
  7
PVSLD_STD
100
AcDbAttributeDefinition
  3
Referencia NMX-J-136-ANCE
  2
NMX_REF
 70
1
 71
1
 72
0
  0
ATTDEF
  5
8E
330
7F
100
AcDbEntity
  8
E-ANNO-TAGS
100
AcDbText
 10
0.0
 20
0.0
 30
0.0
 40
2.5
  1
CFE G0100-04 Apéndice C
  7
PVSLD_STD
100
AcDbAttributeDefinition
  3
Norma de origen del símbolo
  2
SOURCE_STANDARD
 70
1
 71
1
 72
0
  0
ATTDEF
  5
8F
330
7F
100
AcDbEntity
  8
E-ANNO-TAGS
100
AcDbText
 10
0.0
 20
28.5
 30
0.0
 40
2.5
  1

  7
PVSLD_STD
100
AcDbAttributeDefinition
  3
Fabricante
  2
MFR
 70
0
 71
1
 72
0
  0
ATTDEF
  5
90
330
7F
100
AcDbEntity
  8
E-ANNO-TAGS
100
AcDbText
 10
0.0
 20
24.5
 30
0.0
 40
2.5
  1

  7
PVSLD_STD
100
AcDbAttributeDefinition
  3
Modelo
  2
MODEL
 70
0
 71
1
 72
0
  0
ATTDEF
  5
91
330
7F
100
AcDbEntity
  8
E-ANNO-TAGS
100
AcDbText
 10
0.0
 20
0.0
 30
0.0
 40
2.5
  1

  7
PVSLD_STD
100
AcDbAttributeDefinition
  3
Potencia CA nominal (W)
  2
PAC_W
 70
1
 71
1
 72
0
  0
ATTDEF
  5
92
330
7F
100
AcDbEntity
  8
E-ANNO-TAGS
100
AcDbText
 10
0.0
 20
0.0
 30
0.0
 40
2.5
  1

  7
PVSLD_STD
100
AcDbAttributeDefinition
  3
Tensión CA nominal (V)
  2
VAC_V
 70
1
 71
1
 72
0
  0
ATTDEF
  5
93
330
7F
100
AcDbEntity
  8
E-ANNO-TAGS
100
AcDbText
 10
0.0
 20
0.0
 30
0.0
 40
2.5
  1

  7
PVSLD_STD
100
AcDbAttributeDefinition
  3
Conductores energizados
  2
PHASES
 70
1
 71
1
 72
0
  0
ATTDEF
  5
94
330
7F
100
AcDbEntity
  8
E-ANNO-TAGS
100
AcDbText
 10
0.0
 20
0.0
 30
0.0
 40
2.5
  1

  7
PVSLD_STD
100
AcDbAttributeDefinition
  3
Corriente CA máxima (A)
  2
IAC_MAX_A
 70
1
 71
1
 72
0
  0
ATTDEF
  5
95
330
7F
100
AcDbEntity
  8
E-ANNO-TAGS
100
AcDbText
 10
0.0
 20
0.0
 30
0.0
 40
2.5
  1

  7
PVSLD_STD
100
AcDbAttributeDefinition
  3
Tensión CD máxima (V)
  2
VDC_MAX_V
 70
1
 71
1
 72
0
  0
ATTDEF
  5
96
330
7F
100
AcDbEntity
  8
E-ANNO-TAGS
100
AcDbText
 10
0.0
 20
0.0
 30
0.0
 40
2.5
  1

  7
PVSLD_STD
100
AcDbAttributeDefinition
  3
Número de MPPT
  2
MPPT_N
 70
1
 71
1
 72
0
  0
ATTDEF
  5
97
330
7F
100
AcDbEntity
  8
E-ANNO-TAGS
100
AcDbText
 10
0.0
 20
0.0
 30
0.0
 40
2.5
  1

  7
PVSLD_STD
100
AcDbAttributeDefinition
  3
Protección máxima CA (A)
  2
OCPD_MAX_A
 70
1
 71
1
 72
0
  0
ATTDEF
  5
98
330
7F
100
AcDbEntity
  8
E-ANNO-TAGS
100
AcDbText
 10
0.0
 20
0.0
 30
0.0
 40
2.5
  1

  7
PVSLD_STD
100
AcDbAttributeDefinition
  3
Aislamiento
  2
ISOLATION
 70
1
 71
1
 72
0
  0
ATTDEF
  5
99
330
7F
100
AcDbEntity
  8
E-ANNO-TAGS
100
AcDbText
 10
0.0
 20
0.0
 30
0.0
 40
2.5
  1

  7
PVSLD_STD
100
AcDbAttributeDefinition
  3
Desconectador CD integrado
  2
DC_SWITCH
 70
1
 71
1
 72
0
  0
ATTDEF
  5
9A
330
7F
100
AcDbEntity
  8
E-ANNO-TAGS
100
AcDbText
 10
0.0
 20
0.0
 30
0.0
 40
2.5
  1

  7
PVSLD_STD
100
AcDbAttributeDefinition
  3
DPS CD integrado
  2
DC_SPD
 70
1
 71
1
 72
0
  0
ENDBLK
  5
81
330
7F
100
AcDbEntity
  8
0
100
AcDbBlockEnd
  0
BLOCK
  5
9C
330
9B
100
AcDbEntity
  8
0
100
AcDbBlockBegin
  2
PVSLD_METER
 70
2
 10
0.0
 20
0.0
 30
0.0
  3
PVSLD_METER
  1

  0
LWPOLYLINE
  5
9E
330
9B
100
AcDbEntity
  8
E-UTIL-EQPM
100
AcDbPolyline
 90
4
 70
1
 10
0.0
 20
-10.0
 10
15.0
 20
-10.0
 10
15.0
 20
10.0
 10
0.0
 20
10.0
  0
LINE
  5
9F
330
9B
100
AcDbEntity
  8
E-UTIL-EQPM
100
AcDbLine
 10
0.0
 20
0.0
 30
0.0
 11
15.0
 21
0.0
 31
0.0
  0
LINE
  5
A0
330
9B
100
AcDbEntity
  8
E-UTIL-EQPM
100
AcDbLine
 10
3.0
 20
5.0
 30
0.0
 11
12.0
 21
5.0
 31
0.0
  0
LWPOLYLINE
  5
A1
330
9B
100
AcDbEntity
  8
E-UTIL-EQPM
100
AcDbPolyline
 90
3
 70
0
 10
4.5
 20
6.2
 10
3.0
 20
5.0
 10
4.5
 20
3.8
  0
LWPOLYLINE
  5
A2
330
9B
100
AcDbEntity
  8
E-UTIL-EQPM
100
AcDbPolyline
 90
3
 70
0
 10
10.5
 20
6.2
 10
12.0
 20
5.0
 10
10.5
 20
3.8
  0
TEXT
  5
A3
330
9B
100
AcDbEntity
  8
E-ANNO-TAGS
100
AcDbText
 10
4.6
 20
-7.0
 30
0.0
 40
3.2
  1
kWh
  7
PVSLD_STD
 11
4.6
 21
-7.0
 31
0.0
100
AcDbText
  0
ATTDEF
  5
A4
330
9B
100
AcDbEntity
  8
E-ANNO-TAGS
100
AcDbText
 10
0.0
 20
13.0
 30
0.0
 40
3.5
  1

  7
PVSLD_STD
100
AcDbAttributeDefinition
  3
Identificador
  2
TAG
 70
0
 71
1
 72
0
  0
ATTDEF
  5
A5
330
9B
100
AcDbEntity
  8
E-ANNO-TAGS
100
AcDbText
 10
0.0
 20
-14.0
 30
0.0
 40
2.5
  1
Medidor de energía bidireccional
  7
PVSLD_STD
100
AcDbAttributeDefinition
  3
Descripción
  2
DESC
 70
0
 71
1
 72
0
  0
ATTDEF
  5
A6
330
9B
100
AcDbEntity
  8
E-ANNO-TAGS
100
AcDbText
 10
0.0
 20
0.0
 30
0.0
 40
2.5
  1

  7
PVSLD_STD
100
AcDbAttributeDefinition
  3
Identificador en el modelo
  2
COMP_ID
 70
1
 71
1
 72
0
  0
ATTDEF
  5
A7
330
9B
100
AcDbEntity
  8
E-ANNO-TAGS
100
AcDbText
 10
0.0
 20
0.0
 30
0.0
 40
2.5
  1
IEC 60617 S00937
  7
PVSLD_STD
100
AcDbAttributeDefinition
  3
Referencia IEC 60617
  2
IEC_REF
 70
1
 71
1
 72
0
  0
ATTDEF
  5
A8
330
9B
100
AcDbEntity
  8
E-ANNO-TAGS
100
AcDbText
 10
0.0
 20
0.0
 30
0.0
 40
2.5
  1
NMX-J-136-ANCE (pendiente)
  7
PVSLD_STD
100
AcDbAttributeDefinition
  3
Referencia NMX-J-136-ANCE
  2
NMX_REF
 70
1
 71
1
 72
0
  0
ATTDEF
  5
A9
330
9B
100
AcDbEntity
  8
E-ANNO-TAGS
100
AcDbText
 10
0.0
 20
0.0
 30
0.0
 40
2.5
  1
CFE G0100-04 Apéndice C
  7
PVSLD_STD
100
AcDbAttributeDefinition
  3
Norma de origen del símbolo
  2
SOURCE_STANDARD
 70
1
 71
1
 72
0
  0
ATTDEF
  5
AA
330
9B
100
AcDbEntity
  8
E-ANNO-TAGS
100
AcDbText
 10
0.0
 20
0.0
 30
0.0
 40
2.5
  1

  7
PVSLD_STD
100
AcDbAttributeDefinition
  3
Tipo (MF, MCE)
  2
METER_TYPE
 70
1
 71
1
 72
0
  0
ATTDEF
  5
AB
330
9B
100
AcDbEntity
  8
E-ANNO-TAGS
100
AcDbText
 10
0.0
 20
0.0
 30
0.0
 40
2.5
  1

  7
PVSLD_STD
100
AcDbAttributeDefinition
  3
Bidireccional
  2
BIDIRECTIONAL
 70
1
 71
1
 72
0
  0
ATTDEF
  5
AC
330
9B
100
AcDbEntity
  8
E-ANNO-TAGS
100
AcDbText
 10
0.0
 20
0.0
 30
0.0
 40
2.5
  1

  7
PVSLD_STD
100
AcDbAttributeDefinition
  3
Propietario
  2
OWNER
 70
1
 71
1
 72
0
  0
ATTDEF
  5
AD
330
9B
100
AcDbEntity
  8
E-ANNO-TAGS
100
AcDbText
 10
0.0
 20
0.0
 30
0.0
 40
2.5
  1

  7
PVSLD_STD
100
AcDbAttributeDefinition
  3
Número de medidor
  2
METER_NO
 70
1
 71
1
 72
0
  0
ENDBLK
  5
9D
330
9B
100
AcDbEntity
  8
0
100
AcDbBlockEnd
  0
BLOCK
  5
AF
330
AE
100
AcDbEntity
  8
0
100
AcDbBlockBegin
  2
PVSLD_GRID
 70
2
 10
0.0
 20
0.0
 30
0.0
  3
PVSLD_GRID
  1

  0
CIRCLE
  5
B1
330
AE
100
AcDbEntity
  8
E-UTIL-EQPM
100
AcDbCircle
 10
10.0
 20
0.0
 30
0.0
 40
10.0
  0
LWPOLYLINE
  5
B2
330
AE
100
AcDbEntity
  8
E-UTIL-EQPM
100
AcDbPolyline
 90
25
 70
0
 10
5.5
 20
0.0
 10
5.875
 20
1.0858
 10
6.25
 20
2.09
 10
6.625
 20
2.9373
 10
7.0
 20
3.564
 10
7.375
 20
3.9231
 10
7.75
 20
3.9877
 10
8.125
 20
3.7528
 10
8.5
 20
3.2361
 10
8.875
 20
2.4764
 10
9.25
 20
1.5307
 10
9.625
 20
0.4701
 10
10.0
 20
-0.6257
 10
10.375
 20
-1.6746
 10
10.75
 20
-2.5978
 10
11.125
 20
-3.3259
 10
11.5
 20
-3.8042
 10
11.875
 20
-3.9969
 10
12.25
 20
-3.8895
 10
12.625
 20
-3.49
 10
13.0
 20
-2.8284
 10
13.375
 20
-1.9545
 10
13.75
 20
-0.9338
 10
14.125
 20
0.157
 10
14.5
 20
1.2361
  0
ATTDEF
  5
B3
330
AE
100
AcDbEntity
  8
E-ANNO-TAGS
100
AcDbText
 10
0.0
 20
12.5
 30
0.0
 40
3.5
  1

  7
PVSLD_STD
100
AcDbAttributeDefinition
  3
Identificador
  2
TAG
 70
0
 71
1
 72
0
  0
ATTDEF
  5
B4
330
AE
100
AcDbEntity
  8
E-ANNO-TAGS
100
AcDbText
 10
0.0
 20
-15.0
 30
0.0
 40
2.5
  1
Red eléctrica de distribución
  7
PVSLD_STD
100
AcDbAttributeDefinition
  3
Descripción
  2
DESC
 70
0
 71
1
 72
0
  0
ATTDEF
  5
B5
330
AE
100
AcDbEntity
  8
E-ANNO-TAGS
100
AcDbText
 10
0.0
 20
0.0
 30
0.0
 40
2.5
  1

  7
PVSLD_STD
100
AcDbAttributeDefinition
  3
Identificador en el modelo
  2
COMP_ID
 70
1
 71
1
 72
0
  0
ATTDEF
  5
B6
330
AE
100
AcDbEntity
  8
E-ANNO-TAGS
100
AcDbText
 10
0.0
 20
0.0
 30
0.0
 40
2.5
  1
-
  7
PVSLD_STD
100
AcDbAttributeDefinition
  3
Referencia IEC 60617
  2
IEC_REF
 70
1
 71
1
 72
0
  0
ATTDEF
  5
B7
330
AE
100
AcDbEntity
  8
E-ANNO-TAGS
100
AcDbText
 10
0.0
 20
0.0
 30
0.0
 40
2.5
  1
NMX-J-136-ANCE (pendiente)
  7
PVSLD_STD
100
AcDbAttributeDefinition
  3
Referencia NMX-J-136-ANCE
  2
NMX_REF
 70
1
 71
1
 72
0
  0
ATTDEF
  5
B8
330
AE
100
AcDbEntity
  8
E-ANNO-TAGS
100
AcDbText
 10
0.0
 20
0.0
 30
0.0
 40
2.5
  1
CFE G0100-04 Apéndice C
  7
PVSLD_STD
100
AcDbAttributeDefinition
  3
Norma de origen del símbolo
  2
SOURCE_STANDARD
 70
1
 71
1
 72
0
  0
ATTDEF
  5
B9
330
AE
100
AcDbEntity
  8
E-ANNO-TAGS
100
AcDbText
 10
0.0
 20
-19.0
 30
0.0
 40
2.5
  1

  7
PVSLD_STD
100
AcDbAttributeDefinition
  3
Tensión y sistema
  2
SPEC
 70
0
 71
1
 72
0
  0
ATTDEF
  5
BA
330
AE
100
AcDbEntity
  8
E-ANNO-TAGS
100
AcDbText
 10
0.0
 20
0.0
 30
0.0
 40
2.5
  1

  7
PVSLD_STD
100
AcDbAttributeDefinition
  3
Tensión nominal (V)
  2
VOLT_V
 70
1
 71
1
 72
0
  0
ATTDEF
  5
BB
330
AE
100
AcDbEntity
  8
E-ANNO-TAGS
100
AcDbText
 10
0.0
 20
0.0
 30
0.0
 40
2.5
  1

  7
PVSLD_STD
100
AcDbAttributeDefinition
  3
Sistema
  2
SYSTEM
 70
1
 71
1
 72
0
  0
ATTDEF
  5
BC
330
AE
100
AcDbEntity
  8
E-ANNO-TAGS
100
AcDbText
 10
0.0
 20
0.0
 30
0.0
 40
2.5
  1

  7
PVSLD_STD
100
AcDbAttributeDefinition
  3
Frecuencia (Hz)
  2
FREQ_HZ
 70
1
 71
1
 72
0
  0
ATTDEF
  5
BD
330
AE
100
AcDbEntity
  8
E-ANNO-TAGS
100
AcDbText
 10
0.0
 20
0.0
 30
0.0
 40
2.5
  1

  7
PVSLD_STD
100
AcDbAttributeDefinition
  3
Suministrador
  2
OWNER
 70
1
 71
1
 72
0
  0
ATTDEF
  5
BE
330
AE
100
AcDbEntity
  8
E-ANNO-TAGS
100
AcDbText
 10
0.0
 20
0.0
 30
0.0
 40
2.5
  1

  7
PVSLD_STD
100
AcDbAttributeDefinition
  3
Corriente de falla disponible (kA)
  2
ISC_KA
 70
1
 71
1
 72
0
  0
ENDBLK
  5
B0
330
AE
100
AcDbEntity
  8
0
100
AcDbBlockEnd
  0
BLOCK
  5
C0
330
BF
100
AcDbEntity
  8
0
100
AcDbBlockBegin
  2
PVSLD_ENCLOSURE
 70
2
 10
0.0
 20
0.0
 30
0.0
  3
PVSLD_ENCLOSURE
  1

  0
LWPOLYLINE
  5
C2
330
BF
100
AcDbEntity
  8
E-ANNO-ENCL
  6
DASHDOT_S
100
AcDbPolyline
 90
4
 70
1
 10
0.0
 20
-15.0
 10
40.0
 20
-15.0
 10
40.0
 20
15.0
 10
0.0
 20
15.0
  0
ATTDEF
  5
C3
330
BF
100
AcDbEntity
  8
E-ANNO-TAGS
100
AcDbText
 10
0.0
 20
18.0
 30
0.0
 40
3.5
  1

  7
PVSLD_STD
100
AcDbAttributeDefinition
  3
Identificador
  2
TAG
 70
0
 71
1
 72
0
  0
ATTDEF
  5
C4
330
BF
100
AcDbEntity
  8
E-ANNO-TAGS
100
AcDbText
 10
0.0
 20
-19.0
 30
0.0
 40
2.5
  1
Gabinete o estructura metálica
  7
PVSLD_STD
100
AcDbAttributeDefinition
  3
Descripción
  2
DESC
 70
0
 71
1
 72
0
  0
ATTDEF
  5
C5
330
BF
100
AcDbEntity
  8
E-ANNO-TAGS
100
AcDbText
 10
0.0
 20
0.0
 30
0.0
 40
2.5
  1

  7
PVSLD_STD
100
AcDbAttributeDefinition
  3
Identificador en el modelo
  2
COMP_ID
 70
1
 71
1
 72
0
  0
ATTDEF
  5
C6
330
BF
100
AcDbEntity
  8
E-ANNO-TAGS
100
AcDbText
 10
0.0
 20
0.0
 30
0.0
 40
2.5
  1
-
  7
PVSLD_STD
100
AcDbAttributeDefinition
  3
Referencia IEC 60617
  2
IEC_REF
 70
1
 71
1
 72
0
  0
ATTDEF
  5
C7
330
BF
100
AcDbEntity
  8
E-ANNO-TAGS
100
AcDbText
 10
0.0
 20
0.0
 30
0.0
 40
2.5
  1
NMX-J-136-ANCE (pendiente)
  7
PVSLD_STD
100
AcDbAttributeDefinition
  3
Referencia NMX-J-136-ANCE
  2
NMX_REF
 70
1
 71
1
 72
0
  0
ATTDEF
  5
C8
330
BF
100
AcDbEntity
  8
E-ANNO-TAGS
100
AcDbText
 10
0.0
 20
0.0
 30
0.0
 40
2.5
  1
CFE G0100-04 Apéndice C
  7
PVSLD_STD
100
AcDbAttributeDefinition
  3
Norma de origen del símbolo
  2
SOURCE_STANDARD
 70
1
 71
1
 72
0
  0
ATTDEF
  5
C9
330
BF
100
AcDbEntity
  8
E-ANNO-TAGS
100
AcDbText
 10
0.0
 20
0.0
 30
0.0
 40
2.5
  1

  7
PVSLD_STD
100
AcDbAttributeDefinition
  3
Tipo de gabinete
  2
ENCL_TYPE
 70
1
 71
1
 72
0
  0
ENDBLK
  5
C1
330
BF
100
AcDbEntity
  8
0
100
AcDbBlockEnd
  0
BLOCK
  5
CB
330
CA
100
AcDbEntity
  8
0
100
AcDbBlockBegin
  2
PVSLD_DIODE
 70
2
 10
0.0
 20
0.0
 30
0.0
  3
PVSLD_DIODE
  1

  0
LINE
  5
CD
330
CA
100
AcDbEntity
  8
E-PVDC-EQPM
100
AcDbLine
 10
0.0
 20
0.0
 30
0.0
 11
0.0
 21
-5.0
 31
0.0
  0
LINE
  5
CE
330
CA
100
AcDbEntity
  8
E-PVDC-EQPM
100
AcDbLine
 10
-4.0
 20
-5.0
 30
0.0
 11
4.0
 21
-5.0
 31
0.0
  0
LWPOLYLINE
  5
CF
330
CA
100
AcDbEntity
  8
E-PVDC-EQPM
100
AcDbPolyline
 90
3
 70
1
 10
0.0
 20
-5.0
 10
-3.5
 20
-12.5
 10
3.5
 20
-12.5
  0
LINE
  5
D0
330
CA
100
AcDbEntity
  8
E-PVDC-EQPM
100
AcDbLine
 10
0.0
 20
-12.5
 30
0.0
 11
0.0
 21
-17.5
 31
0.0
  0
ATTDEF
  5
D1
330
CA
100
AcDbEntity
  8
E-ANNO-TAGS
100
AcDbText
 10
6.0
 20
-6.0
 30
0.0
 40
3.5
  1

  7
PVSLD_STD
100
AcDbAttributeDefinition
  3
Identificador
  2
TAG
 70
0
 71
1
 72
0
  0
ATTDEF
  5
D2
330
CA
100
AcDbEntity
  8
E-ANNO-TAGS
100
AcDbText
 10
6.0
 20
-10.0
 30
0.0
 40
2.5
  1
Diodo de paso
  7
PVSLD_STD
100
AcDbAttributeDefinition
  3
Descripción
  2
DESC
 70
0
 71
1
 72
0
  0
ATTDEF
  5
D3
330
CA
100
AcDbEntity
  8
E-ANNO-TAGS
100
AcDbText
 10
0.0
 20
0.0
 30
0.0
 40
2.5
  1

  7
PVSLD_STD
100
AcDbAttributeDefinition
  3
Identificador en el modelo
  2
COMP_ID
 70
1
 71
1
 72
0
  0
ATTDEF
  5
D4
330
CA
100
AcDbEntity
  8
E-ANNO-TAGS
100
AcDbText
 10
0.0
 20
0.0
 30
0.0
 40
2.5
  1
-
  7
PVSLD_STD
100
AcDbAttributeDefinition
  3
Referencia IEC 60617
  2
IEC_REF
 70
1
 71
1
 72
0
  0
ATTDEF
  5
D5
330
CA
100
AcDbEntity
  8
E-ANNO-TAGS
100
AcDbText
 10
0.0
 20
0.0
 30
0.0
 40
2.5
  1
NMX-J-136-ANCE (pendiente)
  7
PVSLD_STD
100
AcDbAttributeDefinition
  3
Referencia NMX-J-136-ANCE
  2
NMX_REF
 70
1
 71
1
 72
0
  0
ATTDEF
  5
D6
330
CA
100
AcDbEntity
  8
E-ANNO-TAGS
100
AcDbText
 10
0.0
 20
0.0
 30
0.0
 40
2.5
  1
CFE G0100-04 Apéndice C
  7
PVSLD_STD
100
AcDbAttributeDefinition
  3
Norma de origen del símbolo
  2
SOURCE_STANDARD
 70
1
 71
1
 72
0
  0
ATTDEF
  5
D7
330
CA
100
AcDbEntity
  8
E-ANNO-TAGS
100
AcDbText
 10
0.0
 20
0.0
 30
0.0
 40
2.5
  1

  7
PVSLD_STD
100
AcDbAttributeDefinition
  3
Corriente nominal (A)
  2
RATING_A
 70
1
 71
1
 72
0
  0
ATTDEF
  5
D8
330
CA
100
AcDbEntity
  8
E-ANNO-TAGS
100
AcDbText
 10
0.0
 20
0.0
 30
0.0
 40
2.5
  1

  7
PVSLD_STD
100
AcDbAttributeDefinition
  3
Tensión inversa (V)
  2
VRRM_V
 70
1
 71
1
 72
0
  0
ENDBLK
  5
CC
330
CA
100
AcDbEntity
  8
0
100
AcDbBlockEnd
  0
BLOCK
  5
DA
330
D9
100
AcDbEntity
  8
0
100
AcDbBlockBegin
  2
PVSLD_LOAD_LIGHT
 70
2
 10
0.0
 20
0.0
 30
0.0
  3
PVSLD_LOAD_LIGHT
  1

  0
CIRCLE
  5
DC
330
D9
100
AcDbEntity
  8
E-PVAC-EQPM
100
AcDbCircle
 10
5.0
 20
0.0
 30
0.0
 40
5.0
  0
LINE
  5
DD
330
D9
100
AcDbEntity
  8
E-PVAC-EQPM
100
AcDbLine
 10
1.4645
 20
-3.5355
 30
0.0
 11
-0.3033
 21
-5.3033
 31
0.0
  0
LINE
  5
DE
330
D9
100
AcDbEntity
  8
E-PVAC-EQPM
100
AcDbLine
 10
1.4645
 20
3.5355
 30
0.0
 11
-0.3033
 21
5.3033
 31
0.0
  0
LINE
  5
DF
330
D9
100
AcDbEntity
  8
E-PVAC-EQPM
100
AcDbLine
 10
8.5355
 20
-3.5355
 30
0.0
 11
10.3033
 21
-5.3033
 31
0.0
  0
LINE
  5
E0
330
D9
100
AcDbEntity
  8
E-PVAC-EQPM
100
AcDbLine
 10
8.5355
 20
3.5355
 30
0.0
 11
10.3033
 21
5.3033
 31
0.0
  0
ATTDEF
  5
E1
330
D9
100
AcDbEntity
  8
E-ANNO-TAGS
100
AcDbText
 10
0.0
 20
10.0
 30
0.0
 40
3.5
  1

  7
PVSLD_STD
100
AcDbAttributeDefinition
  3
Identificador
  2
TAG
 70
0
 71
1
 72
0
  0
ATTDEF
  5
E2
330
D9
100
AcDbEntity
  8
E-ANNO-TAGS
100
AcDbText
 10
0.0
 20
-11.0
 30
0.0
 40
2.5
  1
Cargas de iluminación
  7
PVSLD_STD
100
AcDbAttributeDefinition
  3
Descripción
  2
DESC
 70
0
 71
1
 72
0
  0
ATTDEF
  5
E3
330
D9
100
AcDbEntity
  8
E-ANNO-TAGS
100
AcDbText
 10
0.0
 20
0.0
 30
0.0
 40
2.5
  1

  7
PVSLD_STD
100
AcDbAttributeDefinition
  3
Identificador en el modelo
  2
COMP_ID
 70
1
 71
1
 72
0
  0
ATTDEF
  5
E4
330
D9
100
AcDbEntity
  8
E-ANNO-TAGS
100
AcDbText
 10
0.0
 20
0.0
 30
0.0
 40
2.5
  1
-
  7
PVSLD_STD
100
AcDbAttributeDefinition
  3
Referencia IEC 60617
  2
IEC_REF
 70
1
 71
1
 72
0
  0
ATTDEF
  5
E5
330
D9
100
AcDbEntity
  8
E-ANNO-TAGS
100
AcDbText
 10
0.0
 20
0.0
 30
0.0
 40
2.5
  1
NMX-J-136-ANCE (pendiente)
  7
PVSLD_STD
100
AcDbAttributeDefinition
  3
Referencia NMX-J-136-ANCE
  2
NMX_REF
 70
1
 71
1
 72
0
  0
ATTDEF
  5
E6
330
D9
100
AcDbEntity
  8
E-ANNO-TAGS
100
AcDbText
 10
0.0
 20
0.0
 30
0.0
 40
2.5
  1
CFE G0100-04 Apéndice C
  7
PVSLD_STD
100
AcDbAttributeDefinition
  3
Norma de origen del símbolo
  2
SOURCE_STANDARD
 70
1
 71
1
 72
0
  0
ATTDEF
  5
E7
330
D9
100
AcDbEntity
  8
E-ANNO-TAGS
100
AcDbText
 10
0.0
 20
0.0
 30
0.0
 40
2.5
  1

  7
PVSLD_STD
100
AcDbAttributeDefinition
  3
Carga (W)
  2
LOAD_W
 70
1
 71
1
 72
0
  0
ATTDEF
  5
E8
330
D9
100
AcDbEntity
  8
E-ANNO-TAGS
100
AcDbText
 10
0.0
 20
0.0
 30
0.0
 40
2.5
  1

  7
PVSLD_STD
100
AcDbAttributeDefinition
  3
Tensión (V)
  2
VOLT_V
 70
1
 71
1
 72
0
  0
ATTDEF
  5
E9
330
D9
100
AcDbEntity
  8
E-ANNO-TAGS
100
AcDbText
 10
0.0
 20
0.0
 30
0.0
 40
2.5
  1

  7
PVSLD_STD
100
AcDbAttributeDefinition
  3
Circuito
  2
CIRCUIT
 70
1
 71
1
 72
0
  0
ENDBLK
  5
DB
330
D9
100
AcDbEntity
  8
0
100
AcDbBlockEnd
  0
BLOCK
  5
EB
330
EA
100
AcDbEntity
  8
0
100
AcDbBlockBegin
  2
PVSLD_CT
 70
2
 10
0.0
 20
0.0
 30
0.0
  3
PVSLD_CT
  1

  0
LINE
  5
ED
330
EA
100
AcDbEntity
  8
E-UTIL-EQPM
100
AcDbLine
 10
0.0
 20
0.0
 30
0.0
 11
15.0
 21
0.0
 31
0.0
  0
LINE
  5
EE
330
EA
100
AcDbEntity
  8
E-UTIL-EQPM
100
AcDbLine
 10
0.0
 20
-10.0
 30
0.0
 11
15.0
 21
-10.0
 31
0.0
  0
LINE
  5
EF
330
EA
100
AcDbEntity
  8
E-UTIL-EQPM
100
AcDbLine
 10
4.5
 20
-12.0
 30
0.0
 11
4.5
 21
2.0
 31
0.0
  0
LINE
  5
F0
330
EA
100
AcDbEntity
  8
E-UTIL-EQPM
100
AcDbLine
 10
10.5
 20
-12.0
 30
0.0
 11
10.5
 21
2.0
 31
0.0
  0
ARC
  5
F1
330
EA
100
AcDbEntity
  8
E-UTIL-EQPM
100
AcDbCircle
 10
7.5
 20
2.0
 30
0.0
 40
3.0
100
AcDbArc
 50
0.0
 51
180.0
  0
ARC
  5
F2
330
EA
100
AcDbEntity
  8
E-UTIL-EQPM
100
AcDbCircle
 10
7.5
 20
-12.0
 30
0.0
 40
3.0
100
AcDbArc
 50
180.0
 51
360.0
  0
ATTDEF
  5
F3
330
EA
100
AcDbEntity
  8
E-ANNO-TAGS
100
AcDbText
 10
0.0
 20
8.0
 30
0.0
 40
3.5
  1

  7
PVSLD_STD
100
AcDbAttributeDefinition
  3
Identificador
  2
TAG
 70
0
 71
1
 72
0
  0
ATTDEF
  5
F4
330
EA
100
AcDbEntity
  8
E-ANNO-TAGS
100
AcDbText
 10
0.0
 20
-19.0
 30
0.0
 40
2.5
  1
Sensor de corriente
  7
PVSLD_STD
100
AcDbAttributeDefinition
  3
Descripción
  2
DESC
 70
0
 71
1
 72
0
  0
ATTDEF
  5
F5
330
EA
100
AcDbEntity
  8
E-ANNO-TAGS
100
AcDbText
 10
0.0
 20
0.0
 30
0.0
 40
2.5
  1

  7
PVSLD_STD
100
AcDbAttributeDefinition
  3
Identificador en el modelo
  2
COMP_ID
 70
1
 71
1
 72
0
  0
ATTDEF
  5
F6
330
EA
100
AcDbEntity
  8
E-ANNO-TAGS
100
AcDbText
 10
0.0
 20
0.0
 30
0.0
 40
2.5
  1
-
  7
PVSLD_STD
100
AcDbAttributeDefinition
  3
Referencia IEC 60617
  2
IEC_REF
 70
1
 71
1
 72
0
  0
ATTDEF
  5
F7
330
EA
100
AcDbEntity
  8
E-ANNO-TAGS
100
AcDbText
 10
0.0
 20
0.0
 30
0.0
 40
2.5
  1
NMX-J-136-ANCE (pendiente)
  7
PVSLD_STD
100
AcDbAttributeDefinition
  3
Referencia NMX-J-136-ANCE
  2
NMX_REF
 70
1
 71
1
 72
0
  0
ATTDEF
  5
F8
330
EA
100
AcDbEntity
  8
E-ANNO-TAGS
100
AcDbText
 10
0.0
 20
0.0
 30
0.0
 40
2.5
  1
CFE G0100-04 Apéndice C
  7
PVSLD_STD
100
AcDbAttributeDefinition
  3
Norma de origen del símbolo
  2
SOURCE_STANDARD
 70
1
 71
1
 72
0
  0
ATTDEF
  5
F9
330
EA
100
AcDbEntity
  8
E-ANNO-TAGS
100
AcDbText
 10
0.0
 20
-23.0
 30
0.0
 40
2.5
  1

  7
PVSLD_STD
100
AcDbAttributeDefinition
  3
Relación de transformación
  2
SPEC
 70
0
 71
1
 72
0
  0
ATTDEF
  5
FA
330
EA
100
AcDbEntity
  8
E-ANNO-TAGS
100
AcDbText
 10
0.0
 20
0.0
 30
0.0
 40
2.5
  1

  7
PVSLD_STD
100
AcDbAttributeDefinition
  3
Relación (A/A)
  2
RATIO
 70
1
 71
1
 72
0
  0
ATTDEF
  5
FB
330
EA
100
AcDbEntity
  8
E-ANNO-TAGS
100
AcDbText
 10
0.0
 20
0.0
 30
0.0
 40
2.5
  1

  7
PVSLD_STD
100
AcDbAttributeDefinition
  3
Carga (VA)
  2
BURDEN_VA
 70
1
 71
1
 72
0
  0
ATTDEF
  5
FC
330
EA
100
AcDbEntity
  8
E-ANNO-TAGS
100
AcDbText
 10
0.0
 20
0.0
 30
0.0
 40
2.5
  1

  7
PVSLD_STD
100
AcDbAttributeDefinition
  3
Clase
  2
CLASS
 70
1
 71
1
 72
0
  0
ENDBLK
  5
EC
330
EA
100
AcDbEntity
  8
0
100
AcDbBlockEnd
  0
BLOCK
  5
FE
330
FD
100
AcDbEntity
  8
0
100
AcDbBlockBegin
  2
PVSLD_SWITCH
 70
2
 10
0.0
 20
0.0
 30
0.0
  3
PVSLD_SWITCH
  1

  0
LINE
  5
100
330
FD
100
AcDbEntity
  8
E-PVAC-EQPM
100
AcDbLine
 10
0.0
 20
0.0
 30
0.0
 11
5.0
 21
0.0
 31
0.0
  0
LINE
  5
101
330
FD
100
AcDbEntity
  8
E-PVAC-EQPM
100
AcDbLine
 10
5.0
 20
0.0
 30
0.0
 11
12.5
 21
7.5
 31
0.0
  0
LINE
  5
102
330
FD
100
AcDbEntity
  8
E-PVAC-EQPM
100
AcDbLine
 10
12.5
 20
0.0
 30
0.0
 11
25.0
 21
0.0
 31
0.0
  0
LINE
  5
103
330
FD
100
AcDbEntity
  8
E-PVAC-EQPM
  6
DOTTED
100
AcDbLine
 10
8.75
 20
3.75
 30
0.0
 11
5.0
 21
8.75
 31
0.0
  0
LINE
  5
104
330
FD
100
AcDbEntity
  8
E-PVAC-EQPM
  6
DOTTED
100
AcDbLine
 10
8.75
 20
3.75
 30
0.0
 11
8.75
 21
-6.25
 31
0.0
  0
LINE
  5
105
330
FD
100
AcDbEntity
  8
E-PVAC-EQPM
100
AcDbLine
 10
5.0
 20
8.75
 30
0.0
 11
8.75
 21
8.0
 31
0.0
  0
LINE
  5
106
330
FD
100
AcDbEntity
  8
E-PVAC-EQPM
100
AcDbLine
 10
5.0
 20
8.75
 30
0.0
 11
5.25
 21
4.75
 31
0.0
  0
ATTDEF
  5
107
330
FD
100
AcDbEntity
  8
E-ANNO-TAGS
100
AcDbText
 10
15.0
 20
5.0
 30
0.0
 40
3.5
  1

  7
PVSLD_STD
100
AcDbAttributeDefinition
  3
Identificador
  2
TAG
 70
0
 71
1
 72
0
  0
ATTDEF
  5
108
330
FD
100
AcDbEntity
  8
E-ANNO-TAGS
100
AcDbText
 10
0.0
 20
-10.0
 30
0.0
 40
2.5
  1
Interruptor manual
  7
PVSLD_STD
100
AcDbAttributeDefinition
  3
Descripción
  2
DESC
 70
0
 71
1
 72
0
  0
ATTDEF
  5
109
330
FD
100
AcDbEntity
  8
E-ANNO-TAGS
100
AcDbText
 10
0.0
 20
0.0
 30
0.0
 40
2.5
  1

  7
PVSLD_STD
100
AcDbAttributeDefinition
  3
Identificador en el modelo
  2
COMP_ID
 70
1
 71
1
 72
0
  0
ATTDEF
  5
10A
330
FD
100
AcDbEntity
  8
E-ANNO-TAGS
100
AcDbText
 10
0.0
 20
0.0
 30
0.0
 40
2.5
  1
-
  7
PVSLD_STD
100
AcDbAttributeDefinition
  3
Referencia IEC 60617
  2
IEC_REF
 70
1
 71
1
 72
0
  0
ATTDEF
  5
10B
330
FD
100
AcDbEntity
  8
E-ANNO-TAGS
100
AcDbText
 10
0.0
 20
0.0
 30
0.0
 40
2.5
  1
NMX-J-136-ANCE (pendiente)
  7
PVSLD_STD
100
AcDbAttributeDefinition
  3
Referencia NMX-J-136-ANCE
  2
NMX_REF
 70
1
 71
1
 72
0
  0
ATTDEF
  5
10C
330
FD
100
AcDbEntity
  8
E-ANNO-TAGS
100
AcDbText
 10
0.0
 20
0.0
 30
0.0
 40
2.5
  1
CFE G0100-04 Apéndice C
  7
PVSLD_STD
100
AcDbAttributeDefinition
  3
Norma de origen del símbolo
  2
SOURCE_STANDARD
 70
1
 71
1
 72
0
  0
ATTDEF
  5
10D
330
FD
100
AcDbEntity
  8
E-ANNO-TAGS
100
AcDbText
 10
15.0
 20
9.0
 30
0.0
 40
2.5
  1

  7
PVSLD_STD
100
AcDbAttributeDefinition
  3
Función
  2
ROLE
 70
0
 71
1
 72
0
  0
ATTDEF
  5
10E
330
FD
100
AcDbEntity
  8
E-ANNO-TAGS
100
AcDbText
 10
0.0
 20
0.0
 30
0.0
 40
2.5
  1

  7
PVSLD_STD
100
AcDbAttributeDefinition
  3
Polos
  2
POLES
 70
1
 71
1
 72
0
  0
ATTDEF
  5
10F
330
FD
100
AcDbEntity
  8
E-ANNO-TAGS
100
AcDbText
 10
0.0
 20
0.0
 30
0.0
 40
2.5
  1

  7
PVSLD_STD
100
AcDbAttributeDefinition
  3
Corriente nominal (A)
  2
RATING_A
 70
1
 71
1
 72
0
  0
ATTDEF
  5
110
330
FD
100
AcDbEntity
  8
E-ANNO-TAGS
100
AcDbText
 10
0.0
 20
0.0
 30
0.0
 40
2.5
  1

  7
PVSLD_STD
100
AcDbAttributeDefinition
  3
Tensión (V)
  2
VOLT_V
 70
1
 71
1
 72
0
  0
ENDBLK
  5
FF
330
FD
100
AcDbEntity
  8
0
100
AcDbBlockEnd
  0
BLOCK
  5
112
330
111
100
AcDbEntity
  8
0
100
AcDbBlockBegin
  2
PVSLD_XFMR_ISO
 70
2
 10
0.0
 20
0.0
 30
0.0
  3
PVSLD_XFMR_ISO
  1

  0
LINE
  5
114
330
111
100
AcDbEntity
  8
E-PVAC-EQPM
100
AcDbLine
 10
0.0
 20
0.0
 30
0.0
 11
7.5
 21
0.0
 31
0.0
  0
LINE
  5
115
330
111
100
AcDbEntity
  8
E-PVAC-EQPM
100
AcDbLine
 10
0.0
 20
-20.0
 30
0.0
 11
7.5
 21
-20.0
 31
0.0
  0
LINE
  5
116
330
111
100
AcDbEntity
  8
E-PVAC-EQPM
100
AcDbLine
 10
17.5
 20
0.0
 30
0.0
 11
25.0
 21
0.0
 31
0.0
  0
LINE
  5
117
330
111
100
AcDbEntity
  8
E-PVAC-EQPM
100
AcDbLine
 10
17.5
 20
-20.0
 30
0.0
 11
25.0
 21
-20.0
 31
0.0
  0
ARC
  5
118
330
111
100
AcDbEntity
  8
E-PVAC-EQPM
100
AcDbCircle
 10
6.9375
 20
-2.5
 30
0.0
 40
2.5625
100
AcDbArc
 50
-77.3196
 51
77.3196
  0
ARC
  5
119
330
111
100
AcDbEntity
  8
E-PVAC-EQPM
100
AcDbCircle
 10
6.9375
 20
-7.5
 30
0.0
 40
2.5625
100
AcDbArc
 50
-77.3196
 51
77.3196
  0
ARC
  5
11A
330
111
100
AcDbEntity
  8
E-PVAC-EQPM
100
AcDbCircle
 10
6.9375
 20
-12.5
 30
0.0
 40
2.5625
100
AcDbArc
 50
-77.3196
 51
77.3196
  0
ARC
  5
11B
330
111
100
AcDbEntity
  8
E-PVAC-EQPM
100
AcDbCircle
 10
6.9375
 20
-17.5
 30
0.0
 40
2.5625
100
AcDbArc
 50
-77.3196
 51
77.3196
  0
ARC
  5
11C
330
111
100
AcDbEntity
  8
E-PVAC-EQPM
100
AcDbCircle
 10
18.0625
 20
-2.5
 30
0.0
 40
2.5625
100
AcDbArc
 50
102.6804
 51
257.3196
  0
ARC
  5
11D
330
111
100
AcDbEntity
  8
E-PVAC-EQPM
100
AcDbCircle
 10
18.0625
 20
-7.5
 30
0.0
 40
2.5625
100
AcDbArc
 50
102.6804
 51
257.3196
  0
ARC
  5
11E
330
111
100
AcDbEntity
  8
E-PVAC-EQPM
100
AcDbCircle
 10
18.0625
 20
-12.5
 30
0.0
 40
2.5625
100
AcDbArc
 50
102.6804
 51
257.3196
  0
ARC
  5
11F
330
111
100
AcDbEntity
  8
E-PVAC-EQPM
100
AcDbCircle
 10
18.0625
 20
-17.5
 30
0.0
 40
2.5625
100
AcDbArc
 50
102.6804
 51
257.3196
  0
LINE
  5
120
330
111
100
AcDbEntity
  8
E-PVAC-EQPM
100
AcDbLine
 10
11.25
 20
0.0
 30
0.0
 11
11.25
 21
-20.0
 31
0.0
  0
LINE
  5
121
330
111
100
AcDbEntity
  8
E-PVAC-EQPM
100
AcDbLine
 10
13.75
 20
0.0
 30
0.0
 11
13.75
 21
-20.0
 31
0.0
  0
ATTDEF
  5
122
330
111
100
AcDbEntity
  8
E-ANNO-TAGS
100
AcDbText
 10
0.0
 20
4.0
 30
0.0
 40
3.5
  1

  7
PVSLD_STD
100
AcDbAttributeDefinition
  3
Identificador
  2
TAG
 70
0
 71
1
 72
0
  0
ATTDEF
  5
123
330
111
100
AcDbEntity
  8
E-ANNO-TAGS
100
AcDbText
 10
0.0
 20
-24.0
 30
0.0
 40
2.5
  1
Transformador de aislamiento
  7
PVSLD_STD
100
AcDbAttributeDefinition
  3
Descripción
  2
DESC
 70
0
 71
1
 72
0
  0
ATTDEF
  5
124
330
111
100
AcDbEntity
  8
E-ANNO-TAGS
100
AcDbText
 10
0.0
 20
0.0
 30
0.0
 40
2.5
  1

  7
PVSLD_STD
100
AcDbAttributeDefinition
  3
Identificador en el modelo
  2
COMP_ID
 70
1
 71
1
 72
0
  0
ATTDEF
  5
125
330
111
100
AcDbEntity
  8
E-ANNO-TAGS
100
AcDbText
 10
0.0
 20
0.0
 30
0.0
 40
2.5
  1
-
  7
PVSLD_STD
100
AcDbAttributeDefinition
  3
Referencia IEC 60617
  2
IEC_REF
 70
1
 71
1
 72
0
  0
ATTDEF
  5
126
330
111
100
AcDbEntity
  8
E-ANNO-TAGS
100
AcDbText
 10
0.0
 20
0.0
 30
0.0
 40
2.5
  1
NMX-J-136-ANCE (pendiente)
  7
PVSLD_STD
100
AcDbAttributeDefinition
  3
Referencia NMX-J-136-ANCE
  2
NMX_REF
 70
1
 71
1
 72
0
  0
ATTDEF
  5
127
330
111
100
AcDbEntity
  8
E-ANNO-TAGS
100
AcDbText
 10
0.0
 20
0.0
 30
0.0
 40
2.5
  1
CFE G0100-04 Apéndice C
  7
PVSLD_STD
100
AcDbAttributeDefinition
  3
Norma de origen del símbolo
  2
SOURCE_STANDARD
 70
1
 71
1
 72
0
  0
ATTDEF
  5
128
330
111
100
AcDbEntity
  8
E-ANNO-TAGS
100
AcDbText
 10
0.0
 20
-28.0
 30
0.0
 40
2.5
  1

  7
PVSLD_STD
100
AcDbAttributeDefinition
  3
Potencia y relación
  2
SPEC
 70
0
 71
1
 72
0
  0
ATTDEF
  5
129
330
111
100
AcDbEntity
  8
E-ANNO-TAGS
100
AcDbText
 10
0.0
 20
0.0
 30
0.0
 40
2.5
  1

  7
PVSLD_STD
100
AcDbAttributeDefinition
  3
Potencia (kVA)
  2
KVA
 70
1
 71
1
 72
0
  0
ATTDEF
  5
12A
330
111
100
AcDbEntity
  8
E-ANNO-TAGS
100
AcDbText
 10
0.0
 20
0.0
 30
0.0
 40
2.5
  1

  7
PVSLD_STD
100
AcDbAttributeDefinition
  3
Tensión primaria (V)
  2
VOLT_PRI_V
 70
1
 71
1
 72
0
  0
ATTDEF
  5
12B
330
111
100
AcDbEntity
  8
E-ANNO-TAGS
100
AcDbText
 10
0.0
 20
0.0
 30
0.0
 40
2.5
  1

  7
PVSLD_STD
100
AcDbAttributeDefinition
  3
Tensión secundaria (V)
  2
VOLT_SEC_V
 70
1
 71
1
 72
0
  0
ATTDEF
  5
12C
330
111
100
AcDbEntity
  8
E-ANNO-TAGS
100
AcDbText
 10
0.0
 20
0.0
 30
0.0
 40
2.5
  1

  7
PVSLD_STD
100
AcDbAttributeDefinition
  3
Frecuencia (Hz)
  2
FREQ_HZ
 70
1
 71
1
 72
0
  0
ENDBLK
  5
113
330
111
100
AcDbEntity
  8
0
100
AcDbBlockEnd
  0
BLOCK
  5
12E
330
12D
100
AcDbEntity
  8
0
100
AcDbBlockBegin
  2
PVSLD_LOAD_RECEPT
 70
2
 10
0.0
 20
0.0
 30
0.0
  3
PVSLD_LOAD_RECEPT
  1

  0
CIRCLE
  5
130
330
12D
100
AcDbEntity
  8
E-PVAC-EQPM
100
AcDbCircle
 10
5.0
 20
0.0
 30
0.0
 40
5.0
  0
LINE
  5
131
330
12D
100
AcDbEntity
  8
E-PVAC-EQPM
100
AcDbLine
 10
2.3289
 20
-4.2267
 30
0.0
 11
9.2267
 21
2.6711
 31
0.0
  0
LINE
  5
132
330
12D
100
AcDbEntity
  8
E-PVAC-EQPM
100
AcDbLine
 10
0.7733
 20
-2.6711
 30
0.0
 11
7.6711
 21
4.2267
 31
0.0
  0
ATTDEF
  5
133
330
12D
100
AcDbEntity
  8
E-ANNO-TAGS
100
AcDbText
 10
0.0
 20
8.0
 30
0.0
 40
3.5
  1

  7
PVSLD_STD
100
AcDbAttributeDefinition
  3
Identificador
  2
TAG
 70
0
 71
1
 72
0
  0
ATTDEF
  5
134
330
12D
100
AcDbEntity
  8
E-ANNO-TAGS
100
AcDbText
 10
0.0
 20
-9.0
 30
0.0
 40
2.5
  1
Carga de contactos
  7
PVSLD_STD
100
AcDbAttributeDefinition
  3
Descripción
  2
DESC
 70
0
 71
1
 72
0
  0
ATTDEF
  5
135
330
12D
100
AcDbEntity
  8
E-ANNO-TAGS
100
AcDbText
 10
0.0
 20
0.0
 30
0.0
 40
2.5
  1

  7
PVSLD_STD
100
AcDbAttributeDefinition
  3
Identificador en el modelo
  2
COMP_ID
 70
1
 71
1
 72
0
  0
ATTDEF
  5
136
330
12D
100
AcDbEntity
  8
E-ANNO-TAGS
100
AcDbText
 10
0.0
 20
0.0
 30
0.0
 40
2.5
  1
-
  7
PVSLD_STD
100
AcDbAttributeDefinition
  3
Referencia IEC 60617
  2
IEC_REF
 70
1
 71
1
 72
0
  0
ATTDEF
  5
137
330
12D
100
AcDbEntity
  8
E-ANNO-TAGS
100
AcDbText
 10
0.0
 20
0.0
 30
0.0
 40
2.5
  1
NMX-J-136-ANCE (pendiente)
  7
PVSLD_STD
100
AcDbAttributeDefinition
  3
Referencia NMX-J-136-ANCE
  2
NMX_REF
 70
1
 71
1
 72
0
  0
ATTDEF
  5
138
330
12D
100
AcDbEntity
  8
E-ANNO-TAGS
100
AcDbText
 10
0.0
 20
0.0
 30
0.0
 40
2.5
  1
CFE G0100-04 Apéndice C
  7
PVSLD_STD
100
AcDbAttributeDefinition
  3
Norma de origen del símbolo
  2
SOURCE_STANDARD
 70
1
 71
1
 72
0
  0
ATTDEF
  5
139
330
12D
100
AcDbEntity
  8
E-ANNO-TAGS
100
AcDbText
 10
0.0
 20
0.0
 30
0.0
 40
2.5
  1

  7
PVSLD_STD
100
AcDbAttributeDefinition
  3
Carga (W)
  2
LOAD_W
 70
1
 71
1
 72
0
  0
ATTDEF
  5
13A
330
12D
100
AcDbEntity
  8
E-ANNO-TAGS
100
AcDbText
 10
0.0
 20
0.0
 30
0.0
 40
2.5
  1

  7
PVSLD_STD
100
AcDbAttributeDefinition
  3
Tensión (V)
  2
VOLT_V
 70
1
 71
1
 72
0
  0
ATTDEF
  5
13B
330
12D
100
AcDbEntity
  8
E-ANNO-TAGS
100
AcDbText
 10
0.0
 20
0.0
 30
0.0
 40
2.5
  1

  7
PVSLD_STD
100
AcDbAttributeDefinition
  3
Circuito
  2
CIRCUIT
 70
1
 71
1
 72
0
  0
ENDBLK
  5
12F
330
12D
100
AcDbEntity
  8
0
100
AcDbBlockEnd
  0
BLOCK
  5
13D
330
13C
100
AcDbEntity
  8
0
100
AcDbBlockBegin
  2
PVSLD_GND
 70
2
 10
0.0
 20
0.0
 30
0.0
  3
PVSLD_GND
  1

  0
LINE
  5
13F
330
13C
100
AcDbEntity
  8
E-GRND-COND
  6
CONTINUOUS
100
AcDbLine
 10
0.0
 20
0.0
 30
0.0
 11
0.0
 21
-5.0
 31
0.0
  0
LINE
  5
140
330
13C
100
AcDbEntity
  8
E-GRND-COND
  6
CONTINUOUS
100
AcDbLine
 10
-6.0
 20
-5.0
 30
0.0
 11
6.0
 21
-5.0
 31
0.0
  0
LINE
  5
141
330
13C
100
AcDbEntity
  8
E-GRND-COND
  6
CONTINUOUS
100
AcDbLine
 10
-4.0
 20
-7.5
 30
0.0
 11
4.0
 21
-7.5
 31
0.0
  0
LINE
  5
142
330
13C
100
AcDbEntity
  8
E-GRND-COND
  6
CONTINUOUS
100
AcDbLine
 10
-2.0
 20
-10.0
 30
0.0
 11
2.0
 21
-10.0
 31
0.0
  0
ATTDEF
  5
143
330
13C
100
AcDbEntity
  8
E-ANNO-TAGS
100
AcDbText
 10
9.0
 20
-6.0
 30
0.0
 40
3.5
  1

  7
PVSLD_STD
100
AcDbAttributeDefinition
  3
Identificador
  2
TAG
 70
0
 71
1
 72
0
  0
ATTDEF
  5
144
330
13C
100
AcDbEntity
  8
E-ANNO-TAGS
100
AcDbText
 10
9.0
 20
-10.5
 30
0.0
 40
2.5
  1
Electrodo de puesta a tierra
  7
PVSLD_STD
100
AcDbAttributeDefinition
  3
Descripción
  2
DESC
 70
0
 71
1
 72
0
  0
ATTDEF
  5
145
330
13C
100
AcDbEntity
  8
E-ANNO-TAGS
100
AcDbText
 10
0.0
 20
0.0
 30
0.0
 40
2.5
  1

  7
PVSLD_STD
100
AcDbAttributeDefinition
  3
Identificador en el modelo
  2
COMP_ID
 70
1
 71
1
 72
0
  0
ATTDEF
  5
146
330
13C
100
AcDbEntity
  8
E-ANNO-TAGS
100
AcDbText
 10
0.0
 20
0.0
 30
0.0
 40
2.5
  1
IEC 60617 S00200
  7
PVSLD_STD
100
AcDbAttributeDefinition
  3
Referencia IEC 60617
  2
IEC_REF
 70
1
 71
1
 72
0
  0
ATTDEF
  5
147
330
13C
100
AcDbEntity
  8
E-ANNO-TAGS
100
AcDbText
 10
0.0
 20
0.0
 30
0.0
 40
2.5
  1
NMX-J-136-ANCE (pendiente)
  7
PVSLD_STD
100
AcDbAttributeDefinition
  3
Referencia NMX-J-136-ANCE
  2
NMX_REF
 70
1
 71
1
 72
0
  0
ATTDEF
  5
148
330
13C
100
AcDbEntity
  8
E-ANNO-TAGS
100
AcDbText
 10
0.0
 20
0.0
 30
0.0
 40
2.5
  1
CFE G0100-04 Apéndice D
  7
PVSLD_STD
100
AcDbAttributeDefinition
  3
Norma de origen del símbolo
  2
SOURCE_STANDARD
 70
1
 71
1
 72
0
  0
ATTDEF
  5
149
330
13C
100
AcDbEntity
  8
E-ANNO-TAGS
100
AcDbText
 10
9.0
 20
-14.5
 30
0.0
 40
2.5
  1

  7
PVSLD_STD
100
AcDbAttributeDefinition
  3
Electrodo y resistencia
  2
SPEC
 70
0
 71
1
 72
0
  0
ATTDEF
  5
14A
330
13C
100
AcDbEntity
  8
E-ANNO-TAGS
100
AcDbText
 10
0.0
 20
0.0
 30
0.0
 40
2.5
  1

  7
PVSLD_STD
100
AcDbAttributeDefinition
  3
Tipo de electrodo
  2
ELECTRODE
 70
1
 71
1
 72
0
  0
ATTDEF
  5
14B
330
13C
100
AcDbEntity
  8
E-ANNO-TAGS
100
AcDbText
 10
0.0
 20
0.0
 30
0.0
 40
2.5
  1

  7
PVSLD_STD
100
AcDbAttributeDefinition
  3
Resistencia de diseño (Ω)
  2
R_OHM
 70
1
 71
1
 72
0
  0
ATTDEF
  5
14C
330
13C
100
AcDbEntity
  8
E-ANNO-TAGS
100
AcDbText
 10
0.0
 20
0.0
 30
0.0
 40
2.5
  1

  7
PVSLD_STD
100
AcDbAttributeDefinition
  3
Calibre del conductor al electrodo
  2
GEC_SIZE
 70
1
 71
1
 72
0
  0
ENDBLK
  5
13E
330
13C
100
AcDbEntity
  8
0
100
AcDbBlockEnd
  0
BLOCK
  5
14E
330
14D
100
AcDbEntity
  8
0
100
AcDbBlockBegin
  2
PVSLD_COND_MARK
 70
2
 10
0.0
 20
0.0
 30
0.0
  3
PVSLD_COND_MARK
  1

  0
LINE
  5
150
330
14D
100
AcDbEntity
  8
E-ANNO-LABL
100
AcDbLine
 10
-2.5
 20
-2.5
 30
0.0
 11
0.0
 21
2.5
 31
0.0
  0
LINE
  5
151
330
14D
100
AcDbEntity
  8
E-ANNO-LABL
100
AcDbLine
 10
0.0
 20
-2.5
 30
0.0
 11
2.5
 21
2.5
 31
0.0
  0
ATTDEF
  5
152
330
14D
100
AcDbEntity
  8
E-ANNO-TAGS
100
AcDbText
 10
0.0
 20
0.0
 30
0.0
 40
3.5
  1

  7
PVSLD_STD
100
AcDbAttributeDefinition
  3
Identificador
  2
TAG
 70
1
 71
1
 72
0
  0
ATTDEF
  5
153
330
14D
100
AcDbEntity
  8
E-ANNO-TAGS
100
AcDbText
 10
0.0
 20
0.0
 30
0.0
 40
2.5
  1
Marca de número de conductores
  7
PVSLD_STD
100
AcDbAttributeDefinition
  3
Descripción
  2
DESC
 70
1
 71
1
 72
0
  0
ATTDEF
  5
154
330
14D
100
AcDbEntity
  8
E-ANNO-TAGS
100
AcDbText
 10
0.0
 20
0.0
 30
0.0
 40
2.5
  1

  7
PVSLD_STD
100
AcDbAttributeDefinition
  3
Identificador en el modelo
  2
COMP_ID
 70
1
 71
1
 72
0
  0
ATTDEF
  5
155
330
14D
100
AcDbEntity
  8
E-ANNO-TAGS
100
AcDbText
 10
0.0
 20
0.0
 30
0.0
 40
2.5
  1
-
  7
PVSLD_STD
100
AcDbAttributeDefinition
  3
Referencia IEC 60617
  2
IEC_REF
 70
1
 71
1
 72
0
  0
ATTDEF
  5
156
330
14D
100
AcDbEntity
  8
E-ANNO-TAGS
100
AcDbText
 10
0.0
 20
0.0
 30
0.0
 40
2.5
  1
NMX-J-136-ANCE (pendiente)
  7
PVSLD_STD
100
AcDbAttributeDefinition
  3
Referencia NMX-J-136-ANCE
  2
NMX_REF
 70
1
 71
1
 72
0
  0
ATTDEF
  5
157
330
14D
100
AcDbEntity
  8
E-ANNO-TAGS
100
AcDbText
 10
0.0
 20
0.0
 30
0.0
 40
2.5
  1
CFE G0100-04 Apéndice D
  7
PVSLD_STD
100
AcDbAttributeDefinition
  3
Norma de origen del símbolo
  2
SOURCE_STANDARD
 70
1
 71
1
 72
0
  0
ATTDEF
  5
158
330
14D
100
AcDbEntity
  8
E-ANNO-TAGS
100
AcDbText
 10
-1.5
 20
4.0
 30
0.0
 40
2.5
  1

  7
PVSLD_STD
100
AcDbAttributeDefinition
  3
Número de conductores
  2
N_COND
 70
0
 71
1
 72
0
  0
ENDBLK
  5
14F
330
14D
100
AcDbEntity
  8
0
100
AcDbBlockEnd
  0
BLOCK
  5
15A
330
159
100
AcDbEntity
  8
0
100
AcDbBlockBegin
  2
PVSLD_POL_POS
 70
2
 10
0.0
 20
0.0
 30
0.0
  3
PVSLD_POL_POS
  1

  0
LINE
  5
15C
330
159
100
AcDbEntity
  8
E-ANNO-LABL
100
AcDbLine
 10
-2.0
 20
0.0
 30
0.0
 11
2.0
 21
0.0
 31
0.0
  0
LINE
  5
15D
330
159
100
AcDbEntity
  8
E-ANNO-LABL
100
AcDbLine
 10
0.0
 20
-2.0
 30
0.0
 11
0.0
 21
2.0
 31
0.0
  0
ATTDEF
  5
15E
330
159
100
AcDbEntity
  8
E-ANNO-TAGS
100
AcDbText
 10
0.0
 20
0.0
 30
0.0
 40
3.5
  1

  7
PVSLD_STD
100
AcDbAttributeDefinition
  3
Identificador
  2
TAG
 70
1
 71
1
 72
0
  0
ATTDEF
  5
15F
330
159
100
AcDbEntity
  8
E-ANNO-TAGS
100
AcDbText
 10
0.0
 20
0.0
 30
0.0
 40
2.5
  1
Polaridad positiva (+)
  7
PVSLD_STD
100
AcDbAttributeDefinition
  3
Descripción
  2
DESC
 70
1
 71
1
 72
0
  0
ATTDEF
  5
160
330
159
100
AcDbEntity
  8
E-ANNO-TAGS
100
AcDbText
 10
0.0
 20
0.0
 30
0.0
 40
2.5
  1

  7
PVSLD_STD
100
AcDbAttributeDefinition
  3
Identificador en el modelo
  2
COMP_ID
 70
1
 71
1
 72
0
  0
ATTDEF
  5
161
330
159
100
AcDbEntity
  8
E-ANNO-TAGS
100
AcDbText
 10
0.0
 20
0.0
 30
0.0
 40
2.5
  1
-
  7
PVSLD_STD
100
AcDbAttributeDefinition
  3
Referencia IEC 60617
  2
IEC_REF
 70
1
 71
1
 72
0
  0
ATTDEF
  5
162
330
159
100
AcDbEntity
  8
E-ANNO-TAGS
100
AcDbText
 10
0.0
 20
0.0
 30
0.0
 40
2.5
  1
NMX-J-136-ANCE (pendiente)
  7
PVSLD_STD
100
AcDbAttributeDefinition
  3
Referencia NMX-J-136-ANCE
  2
NMX_REF
 70
1
 71
1
 72
0
  0
ATTDEF
  5
163
330
159
100
AcDbEntity
  8
E-ANNO-TAGS
100
AcDbText
 10
0.0
 20
0.0
 30
0.0
 40
2.5
  1
CFE G0100-04 Apéndice D
  7
PVSLD_STD
100
AcDbAttributeDefinition
  3
Norma de origen del símbolo
  2
SOURCE_STANDARD
 70
1
 71
1
 72
0
  0
ENDBLK
  5
15B
330
159
100
AcDbEntity
  8
0
100
AcDbBlockEnd
  0
BLOCK
  5
165
330
164
100
AcDbEntity
  8
0
100
AcDbBlockBegin
  2
PVSLD_POL_NEG
 70
2
 10
0.0
 20
0.0
 30
0.0
  3
PVSLD_POL_NEG
  1

  0
LINE
  5
167
330
164
100
AcDbEntity
  8
E-ANNO-LABL
100
AcDbLine
 10
-2.0
 20
0.0
 30
0.0
 11
2.0
 21
0.0
 31
0.0
  0
ATTDEF
  5
168
330
164
100
AcDbEntity
  8
E-ANNO-TAGS
100
AcDbText
 10
0.0
 20
0.0
 30
0.0
 40
3.5
  1

  7
PVSLD_STD
100
AcDbAttributeDefinition
  3
Identificador
  2
TAG
 70
1
 71
1
 72
0
  0
ATTDEF
  5
169
330
164
100
AcDbEntity
  8
E-ANNO-TAGS
100
AcDbText
 10
0.0
 20
0.0
 30
0.0
 40
2.5
  1
Polaridad negativa (-)
  7
PVSLD_STD
100
AcDbAttributeDefinition
  3
Descripción
  2
DESC
 70
1
 71
1
 72
0
  0
ATTDEF
  5
16A
330
164
100
AcDbEntity
  8
E-ANNO-TAGS
100
AcDbText
 10
0.0
 20
0.0
 30
0.0
 40
2.5
  1

  7
PVSLD_STD
100
AcDbAttributeDefinition
  3
Identificador en el modelo
  2
COMP_ID
 70
1
 71
1
 72
0
  0
ATTDEF
  5
16B
330
164
100
AcDbEntity
  8
E-ANNO-TAGS
100
AcDbText
 10
0.0
 20
0.0
 30
0.0
 40
2.5
  1
-
  7
PVSLD_STD
100
AcDbAttributeDefinition
  3
Referencia IEC 60617
  2
IEC_REF
 70
1
 71
1
 72
0
  0
ATTDEF
  5
16C
330
164
100
AcDbEntity
  8
E-ANNO-TAGS
100
AcDbText
 10
0.0
 20
0.0
 30
0.0
 40
2.5
  1
NMX-J-136-ANCE (pendiente)
  7
PVSLD_STD
100
AcDbAttributeDefinition
  3
Referencia NMX-J-136-ANCE
  2
NMX_REF
 70
1
 71
1
 72
0
  0
ATTDEF
  5
16D
330
164
100
AcDbEntity
  8
E-ANNO-TAGS
100
AcDbText
 10
0.0
 20
0.0
 30
0.0
 40
2.5
  1
CFE G0100-04 Apéndice D
  7
PVSLD_STD
100
AcDbAttributeDefinition
  3
Norma de origen del símbolo
  2
SOURCE_STANDARD
 70
1
 71
1
 72
0
  0
ENDBLK
  5
166
330
164
100
AcDbEntity
  8
0
100
AcDbBlockEnd
  0
BLOCK
  5
16F
330
16E
100
AcDbEntity
  8
0
100
AcDbBlockBegin
  2
PVSLD_JUNCTION
 70
2
 10
0.0
 20
0.0
 30
0.0
  3
PVSLD_JUNCTION
  1

  0
HATCH
  5
171
330
16E
100
AcDbEntity
  8
E-PVDC-COND
100
AcDbHatch
 10
0.0
 20
0.0
 30
0.0
210
0.0
220
0.0
230
1.0
  2
SOLID
 70
1
 71
0
 91
1
 92
3
 72
1
 73
1
 93
2
 10
-1.0
 20
0.0
 42
1.0
 10
1.0
 20
0.0
 42
1.0
 97
0
 75
0
 76
1
 98
0
  0
ATTDEF
  5
172
330
16E
100
AcDbEntity
  8
E-ANNO-TAGS
100
AcDbText
 10
0.0
 20
0.0
 30
0.0
 40
3.5
  1

  7
PVSLD_STD
100
AcDbAttributeDefinition
  3
Identificador
  2
TAG
 70
1
 71
1
 72
0
  0
ATTDEF
  5
173
330
16E
100
AcDbEntity
  8
E-ANNO-TAGS
100
AcDbText
 10
0.0
 20
0.0
 30
0.0
 40
2.5
  1
Unión de conductores (punto)
  7
PVSLD_STD
100
AcDbAttributeDefinition
  3
Descripción
  2
DESC
 70
1
 71
1
 72
0
  0
ATTDEF
  5
174
330
16E
100
AcDbEntity
  8
E-ANNO-TAGS
100
AcDbText
 10
0.0
 20
0.0
 30
0.0
 40
2.5
  1

  7
PVSLD_STD
100
AcDbAttributeDefinition
  3
Identificador en el modelo
  2
COMP_ID
 70
1
 71
1
 72
0
  0
ATTDEF
  5
175
330
16E
100
AcDbEntity
  8
E-ANNO-TAGS
100
AcDbText
 10
0.0
 20
0.0
 30
0.0
 40
2.5
  1
-
  7
PVSLD_STD
100
AcDbAttributeDefinition
  3
Referencia IEC 60617
  2
IEC_REF
 70
1
 71
1
 72
0
  0
ATTDEF
  5
176
330
16E
100
AcDbEntity
  8
E-ANNO-TAGS
100
AcDbText
 10
0.0
 20
0.0
 30
0.0
 40
2.5
  1
NMX-J-136-ANCE (pendiente)
  7
PVSLD_STD
100
AcDbAttributeDefinition
  3
Referencia NMX-J-136-ANCE
  2
NMX_REF
 70
1
 71
1
 72
0
  0
ATTDEF
  5
177
330
16E
100
AcDbEntity
  8
E-ANNO-TAGS
100
AcDbText
 10
0.0
 20
0.0
 30
0.0
 40
2.5
  1
CFE G0100-04 Apéndice D
  7
PVSLD_STD
100
AcDbAttributeDefinition
  3
Norma de origen del símbolo
  2
SOURCE_STANDARD
 70
1
 71
1
 72
0
  0
ENDBLK
  5
170
330
16E
100
AcDbEntity
  8
0
100
AcDbBlockEnd
  0
BLOCK
  5
179
330
178
100
AcDbEntity
  8
0
100
AcDbBlockBegin
  2
PVSLD_PV_STRING
 70
2
 10
0.0
 20
0.0
 30
0.0
  3
PVSLD_PV_STRING
  1

  0
LWPOLYLINE
  5
17B
330
178
100
AcDbEntity
  8
E-PVDC-EQPM
100
AcDbPolyline
 90
4
 70
1
 10
0.0
 20
-10.0
 10
10.0
 20
-10.0
 10
10.0
 20
10.0
 10
0.0
 20
10.0
  0
LWPOLYLINE
  5
17C
330
178
100
AcDbEntity
  8
E-PVDC-EQPM
100
AcDbPolyline
 90
3
 70
0
 10
0.0
 20
10.0
 10
5.0
 20
2.5
 10
10.0
 20
10.0
  0
LWPOLYLINE
  5
17D
330
178
100
AcDbEntity
  8
E-PVDC-EQPM
100
AcDbPolyline
 90
4
 70
1
 10
20.0
 20
-10.0
 10
30.0
 20
-10.0
 10
30.0
 20
10.0
 10
20.0
 20
10.0
  0
LWPOLYLINE
  5
17E
330
178
100
AcDbEntity
  8
E-PVDC-EQPM
100
AcDbPolyline
 90
3
 70
0
 10
20.0
 20
10.0
 10
25.0
 20
2.5
 10
30.0
 20
10.0
  0
HATCH
  5
17F
330
178
100
AcDbEntity
  8
E-PVDC-EQPM
100
AcDbHatch
 10
0.0
 20
0.0
 30
0.0
210
0.0
220
0.0
230
1.0
  2
SOLID
 70
1
 71
0
 91
1
 92
3
 72
1
 73
1
 93
2
 10
11.9
 20
0.0
 42
1.0
 10
13.1
 20
0.0
 42
1.0
 97
0
 75
0
 76
1
 98
0
  0
HATCH
  5
180
330
178
100
AcDbEntity
  8
E-PVDC-EQPM
100
AcDbHatch
 10
0.0
 20
0.0
 30
0.0
210
0.0
220
0.0
230
1.0
  2
SOLID
 70
1
 71
0
 91
1
 92
3
 72
1
 73
1
 93
2
 10
14.4
 20
0.0
 42
1.0
 10
15.6
 20
0.0
 42
1.0
 97
0
 75
0
 76
1
 98
0
  0
HATCH
  5
181
330
178
100
AcDbEntity
  8
E-PVDC-EQPM
100
AcDbHatch
 10
0.0
 20
0.0
 30
0.0
210
0.0
220
0.0
230
1.0
  2
SOLID
 70
1
 71
0
 91
1
 92
3
 72
1
 73
1
 93
2
 10
16.9
 20
0.0
 42
1.0
 10
18.1
 20
0.0
 42
1.0
 97
0
 75
0
 76
1
 98
0
  0
ATTDEF
  5
182
330
178
100
AcDbEntity
  8
E-ANNO-TAGS
100
AcDbText
 10
0.0
 20
12.5
 30
0.0
 40
3.5
  1

  7
PVSLD_STD
100
AcDbAttributeDefinition
  3
Identificador
  2
TAG
 70
0
 71
1
 72
0
  0
ATTDEF
  5
183
330
178
100
AcDbEntity
  8
E-ANNO-TAGS
100
AcDbText
 10
0.0
 20
-14.5
 30
0.0
 40
2.5
  1
Rama de módulos fotovoltaicos en serie
  7
PVSLD_STD
100
AcDbAttributeDefinition
  3
Descripción
  2
DESC
 70
0
 71
1
 72
0
  0
ATTDEF
  5
184
330
178
100
AcDbEntity
  8
E-ANNO-TAGS
100
AcDbText
 10
0.0
 20
0.0
 30
0.0
 40
2.5
  1

  7
PVSLD_STD
100
AcDbAttributeDefinition
  3
Identificador en el modelo
  2
COMP_ID
 70
1
 71
1
 72
0
  0
ATTDEF
  5
185
330
178
100
AcDbEntity
  8
E-ANNO-TAGS
100
AcDbText
 10
0.0
 20
0.0
 30
0.0
 40
2.5
  1
IEC 60617 S00908
  7
PVSLD_STD
100
AcDbAttributeDefinition
  3
Referencia IEC 60617
  2
IEC_REF
 70
1
 71
1
 72
0
  0
ATTDEF
  5
186
330
178
100
AcDbEntity
  8
E-ANNO-TAGS
100
AcDbText
 10
0.0
 20
0.0
 30
0.0
 40
2.5
  1
NMX-J-136-ANCE (pendiente)
  7
PVSLD_STD
100
AcDbAttributeDefinition
  3
Referencia NMX-J-136-ANCE
  2
NMX_REF
 70
1
 71
1
 72
0
  0
ATTDEF
  5
187
330
178
100
AcDbEntity
  8
E-ANNO-TAGS
100
AcDbText
 10
0.0
 20
0.0
 30
0.0
 40
2.5
  1
CFE G0100-04 Apéndices C y D
  7
PVSLD_STD
100
AcDbAttributeDefinition
  3
Norma de origen del símbolo
  2
SOURCE_STANDARD
 70
1
 71
1
 72
0
  0
ATTDEF
  5
188
330
178
100
AcDbEntity
  8
E-ANNO-TAGS
100
AcDbText
 10
0.0
 20
-18.5
 30
0.0
 40
2.5
  1

  7
PVSLD_STD
100
AcDbAttributeDefinition
  3
Modelo del módulo
  2
MODEL
 70
0
 71
1
 72
0
  0
ATTDEF
  5
189
330
178
100
AcDbEntity
  8
E-ANNO-TAGS
100
AcDbText
 10
0.0
 20
0.0
 30
0.0
 40
2.5
  1

  7
PVSLD_STD
100
AcDbAttributeDefinition
  3
Fabricante del módulo
  2
MFR
 70
1
 71
1
 72
0
  0
ATTDEF
  5
18A
330
178
100
AcDbEntity
  8
E-ANNO-TAGS
100
AcDbText
 10
0.0
 20
0.0
 30
0.0
 40
2.5
  1

  7
PVSLD_STD
100
AcDbAttributeDefinition
  3
Entrada MPPT del inversor
  2
MPPT
 70
1
 71
1
 72
0
  0
ATTDEF
  5
18B
330
178
100
AcDbEntity
  8
E-ANNO-TAGS
100
AcDbText
 10
0.0
 20
0.0
 30
0.0
 40
2.5
  1

  7
PVSLD_STD
100
AcDbAttributeDefinition
  3
Potencia del módulo (W)
  2
PMAX_W
 70
1
 71
1
 72
0
  0
ATTDEF
  5
18C
330
178
100
AcDbEntity
  8
E-ANNO-TAGS
100
AcDbText
 10
0.0
 20
0.0
 30
0.0
 40
2.5
  1

  7
PVSLD_STD
100
AcDbAttributeDefinition
  3
Módulos en serie
  2
N_SERIES
 70
1
 71
1
 72
0
  0
ATTDEF
  5
18D
330
178
100
AcDbEntity
  8
E-ANNO-TAGS
100
AcDbText
 10
0.0
 20
0.0
 30
0.0
 40
2.5
  1

  7
PVSLD_STD
100
AcDbAttributeDefinition
  3
Potencia de la rama (kWp)
  2
KWP
 70
1
 71
1
 72
0
  0
ATTDEF
  5
18E
330
178
100
AcDbEntity
  8
E-ANNO-TAGS
100
AcDbText
 10
0.0
 20
0.0
 30
0.0
 40
2.5
  1

  7
PVSLD_STD
100
AcDbAttributeDefinition
  3
Voc máxima a T mín (V)
  2
VOC_MAX_V
 70
1
 71
1
 72
0
  0
ATTDEF
  5
18F
330
178
100
AcDbEntity
  8
E-ANNO-TAGS
100
AcDbText
 10
0.0
 20
0.0
 30
0.0
 40
2.5
  1

  7
PVSLD_STD
100
AcDbAttributeDefinition
  3
Vmp en STC de la rama (V)
  2
VMP_V
 70
1
 71
1
 72
0
  0
ATTDEF
  5
190
330
178
100
AcDbEntity
  8
E-ANNO-TAGS
100
AcDbText
 10
0.0
 20
0.0
 30
0.0
 40
2.5
  1

  7
PVSLD_STD
100
AcDbAttributeDefinition
  3
Isc del módulo (A)
  2
ISC_A
 70
1
 71
1
 72
0
  0
ATTDEF
  5
191
330
178
100
AcDbEntity
  8
E-ANNO-TAGS
100
AcDbText
 10
0.0
 20
0.0
 30
0.0
 40
2.5
  1

  7
PVSLD_STD
100
AcDbAttributeDefinition
  3
Imp del módulo (A)
  2
IMP_A
 70
1
 71
1
 72
0
  0
ENDBLK
  5
17A
330
178
100
AcDbEntity
  8
0
100
AcDbBlockEnd
  0
BLOCK
  5
193
330
192
100
AcDbEntity
  8
0
100
AcDbBlockBegin
  2
PVSLD_PANEL
 70
2
 10
0.0
 20
0.0
 30
0.0
  3
PVSLD_PANEL
  1

  0
LWPOLYLINE
  5
195
330
192
100
AcDbEntity
  8
E-ANNO-ENCL
100
AcDbPolyline
 90
4
 70
1
 10
0.0
 20
-27.5
 10
45.0
 20
-27.5
 10
45.0
 20
27.5
 10
0.0
 20
27.5
  0
LINE
  5
196
330
192
100
AcDbEntity
  8
E-PVAC-EQPM
100
AcDbLine
 10
0.0
 20
0.0
 30
0.0
 11
45.0
 21
0.0
 31
0.0
  0
LINE
  5
197
330
192
100
AcDbEntity
  8
E-PVAC-COND
370
70
100
AcDbLine
 10
22.5
 20
-15.0
 30
0.0
 11
22.5
 21
22.5
 31
0.0
  0
LINE
  5
198
330
192
100
AcDbEntity
  8
E-GRND-COND
  6
CONTINUOUS
100
AcDbLine
 10
12.5
 20
-22.5
 30
0.0
 11
32.5
 21
-22.5
 31
0.0
  0
LINE
  5
199
330
192
100
AcDbEntity
  8
E-GRND-COND
  6
CONTINUOUS
100
AcDbLine
 10
22.5
 20
-27.5
 30
0.0
 11
22.5
 21
-22.5
 31
0.0
  0
ATTDEF
  5
19A
330
192
100
AcDbEntity
  8
E-ANNO-TAGS
100
AcDbText
 10
0.0
 20
40.0
 30
0.0
 40
3.5
  1

  7
PVSLD_STD
100
AcDbAttributeDefinition
  3
Identificador
  2
TAG
 70
0
 71
1
 72
0
  0
ATTDEF
  5
19B
330
192
100
AcDbEntity
  8
E-ANNO-TAGS
100
AcDbText
 10
0.0
 20
35.5
 30
0.0
 40
2.5
  1
Centro de carga o tablero con barra
  7
PVSLD_STD
100
AcDbAttributeDefinition
  3
Descripción
  2
DESC
 70
0
 71
1
 72
0
  0
ATTDEF
  5
19C
330
192
100
AcDbEntity
  8
E-ANNO-TAGS
100
AcDbText
 10
0.0
 20
0.0
 30
0.0
 40
2.5
  1

  7
PVSLD_STD
100
AcDbAttributeDefinition
  3
Identificador en el modelo
  2
COMP_ID
 70
1
 71
1
 72
0
  0
ATTDEF
  5
19D
330
192
100
AcDbEntity
  8
E-ANNO-TAGS
100
AcDbText
 10
0.0
 20
0.0
 30
0.0
 40
2.5
  1
IEC 60617 S00062
  7
PVSLD_STD
100
AcDbAttributeDefinition
  3
Referencia IEC 60617
  2
IEC_REF
 70
1
 71
1
 72
0
  0
ATTDEF
  5
19E
330
192
100
AcDbEntity
  8
E-ANNO-TAGS
100
AcDbText
 10
0.0
 20
0.0
 30
0.0
 40
2.5
  1
NMX-J-136-ANCE (pendiente)
  7
PVSLD_STD
100
AcDbAttributeDefinition
  3
Referencia NMX-J-136-ANCE
  2
NMX_REF
 70
1
 71
1
 72
0
  0
ATTDEF
  5
19F
330
192
100
AcDbEntity
  8
E-ANNO-TAGS
100
AcDbText
 10
0.0
 20
0.0
 30
0.0
 40
2.5
  1
CFE G0100-04 Apéndice D
  7
PVSLD_STD
100
AcDbAttributeDefinition
  3
Norma de origen del símbolo
  2
SOURCE_STANDARD
 70
1
 71
1
 72
0
  0
ATTDEF
  5
1A0
330
192
100
AcDbEntity
  8
E-ANNO-TAGS
100
AcDbText
 10
0.0
 20
31.0
 30
0.0
 40
2.5
  1

  7
PVSLD_STD
100
AcDbAttributeDefinition
  3
Datos de la barra
  2
SPEC
 70
0
 71
1
 72
0
  0
ATTDEF
  5
1A1
330
192
100
AcDbEntity
  8
E-ANNO-TAGS
100
AcDbText
 10
0.0
 20
0.0
 30
0.0
 40
2.5
  1

  7
PVSLD_STD
100
AcDbAttributeDefinition
  3
Nombre del tablero
  2
NAME
 70
1
 71
1
 72
0
  0
ATTDEF
  5
1A2
330
192
100
AcDbEntity
  8
E-ANNO-TAGS
100
AcDbText
 10
0.0
 20
0.0
 30
0.0
 40
2.5
  1

  7
PVSLD_STD
100
AcDbAttributeDefinition
  3
Barra (A)
  2
BUS_A
 70
1
 71
1
 72
0
  0
ATTDEF
  5
1A3
330
192
100
AcDbEntity
  8
E-ANNO-TAGS
100
AcDbText
 10
0.0
 20
0.0
 30
0.0
 40
2.5
  1

  7
PVSLD_STD
100
AcDbAttributeDefinition
  3
Interruptor principal
  2
MAIN_ID
 70
1
 71
1
 72
0
  0
ATTDEF
  5
1A4
330
192
100
AcDbEntity
  8
E-ANNO-TAGS
100
AcDbText
 10
0.0
 20
0.0
 30
0.0
 40
2.5
  1

  7
PVSLD_STD
100
AcDbAttributeDefinition
  3
Principal (A)
  2
MAIN_A
 70
1
 71
1
 72
0
  0
ATTDEF
  5
1A5
330
192
100
AcDbEntity
  8
E-ANNO-TAGS
100
AcDbText
 10
0.0
 20
0.0
 30
0.0
 40
2.5
  1

  7
PVSLD_STD
100
AcDbAttributeDefinition
  3
Sistema
  2
SYSTEM
 70
1
 71
1
 72
0
  0
ATTDEF
  5
1A6
330
192
100
AcDbEntity
  8
E-ANNO-TAGS
100
AcDbText
 10
0.0
 20
0.0
 30
0.0
 40
2.5
  1

  7
PVSLD_STD
100
AcDbAttributeDefinition
  3
Capacidad interruptiva (kA)
  2
KAIC_KA
 70
1
 71
1
 72
0
  0
ENDBLK
  5
194
330
192
100
AcDbEntity
  8
0
100
AcDbBlockEnd
  0
BLOCK
  5
1A8
330
1A7
100
AcDbEntity
  8
0
100
AcDbBlockBegin
  2
PVSLD_PI
 70
2
 10
0.0
 20
0.0
 30
0.0
  3
PVSLD_PI
  1

  0
CIRCLE
  5
1AA
330
1A7
100
AcDbEntity
  8
E-UTIL-EQPM
100
AcDbCircle
 10
5.0
 20
0.0
 30
0.0
 40
5.0
  0
CIRCLE
  5
1AB
330
1A7
100
AcDbEntity
  8
E-UTIL-EQPM
100
AcDbCircle
 10
5.0
 20
0.0
 30
0.0
 40
1.5
  0
ATTDEF
  5
1AC
330
1A7
100
AcDbEntity
  8
E-ANNO-TAGS
100
AcDbText
 10
0.0
 20
7.5
 30
0.0
 40
3.5
  1

  7
PVSLD_STD
100
AcDbAttributeDefinition
  3
Identificador
  2
TAG
 70
0
 71
1
 72
0
  0
ATTDEF
  5
1AD
330
1A7
100
AcDbEntity
  8
E-ANNO-TAGS
100
AcDbText
 10
-20.0
 20
-10.5
 30
0.0
 40
2.5
  1
Punto de interconexión (PI) con la red de distribución
  7
PVSLD_STD
100
AcDbAttributeDefinition
  3
Descripción
  2
DESC
 70
0
 71
1
 72
0
  0
ATTDEF
  5
1AE
330
1A7
100
AcDbEntity
  8
E-ANNO-TAGS
100
AcDbText
 10
0.0
 20
0.0
 30
0.0
 40
2.5
  1

  7
PVSLD_STD
100
AcDbAttributeDefinition
  3
Identificador en el modelo
  2
COMP_ID
 70
1
 71
1
 72
0
  0
ATTDEF
  5
1AF
330
1A7
100
AcDbEntity
  8
E-ANNO-TAGS
100
AcDbText
 10
0.0
 20
0.0
 30
0.0
 40
2.5
  1
-
  7
PVSLD_STD
100
AcDbAttributeDefinition
  3
Referencia IEC 60617
  2
IEC_REF
 70
1
 71
1
 72
0
  0
ATTDEF
  5
1B0
330
1A7
100
AcDbEntity
  8
E-ANNO-TAGS
100
AcDbText
 10
0.0
 20
0.0
 30
0.0
 40
2.5
  1
NMX-J-136-ANCE (pendiente)
  7
PVSLD_STD
100
AcDbAttributeDefinition
  3
Referencia NMX-J-136-ANCE
  2
NMX_REF
 70
1
 71
1
 72
0
  0
ATTDEF
  5
1B1
330
1A7
100
AcDbEntity
  8
E-ANNO-TAGS
100
AcDbText
 10
0.0
 20
0.0
 30
0.0
 40
2.5
  1
pvsld (sin símbolo en CFE G0100-04 ni IEC 60617)
  7
PVSLD_STD
100
AcDbAttributeDefinition
  3
Norma de origen del símbolo
  2
SOURCE_STANDARD
 70
1
 71
1
 72
0
  0
ATTDEF
  5
1B2
330
1A7
100
AcDbEntity
  8
E-ANNO-TAGS
100
AcDbText
 10
0.0
 20
0.0
 30
0.0
 40
2.5
  1

  7
PVSLD_STD
100
AcDbAttributeDefinition
  3
Tipo de conexión
  2
PI_TYPE
 70
1
 71
1
 72
0
  0
ATTDEF
  5
1B3
330
1A7
100
AcDbEntity
  8
E-ANNO-TAGS
100
AcDbText
 10
0.0
 20
0.0
 30
0.0
 40
2.5
  1

  7
PVSLD_STD
100
AcDbAttributeDefinition
  3
Tablero de conexión
  2
PANEL
 70
1
 71
1
 72
0
  0
ATTDEF
  5
1B4
330
1A7
100
AcDbEntity
  8
E-ANNO-TAGS
100
AcDbText
 10
0.0
 20
0.0
 30
0.0
 40
2.5
  1

  7
PVSLD_STD
100
AcDbAttributeDefinition
  3
Interruptor de conexión
  2
BREAKER
 70
1
 71
1
 72
0
  0
ENDBLK
  5
1A9
330
1A7
100
AcDbEntity
  8
0
100
AcDbBlockEnd
  0
BLOCK
  5
1B6
330
1B5
100
AcDbEntity
  8
0
100
AcDbBlockBegin
  2
PVSLD_TTLB
 70
2
 10
0.0
 20
0.0
 30
0.0
  3
PVSLD_TTLB
  1

  0
LWPOLYLINE
  5
1B8
330
1B5
100
AcDbEntity
  8
G-ANNO-TTLB
100
AcDbPolyline
 90
4
 70
1
 10
0.0
 20
0.0
 10
185.0
 20
0.0
 10
185.0
 20
60.0
 10
0.0
 20
60.0
  0
LINE
  5
1B9
330
1B5
100
AcDbEntity
  8
G-ANNO-TTLB
370
25
100
AcDbLine
 10
0.0
 20
50.0
 30
0.0
 11
185.0
 21
50.0
 31
0.0
  0
LINE
  5
1BA
330
1B5
100
AcDbEntity
  8
G-ANNO-TTLB
370
25
100
AcDbLine
 10
0.0
 20
40.0
 30
0.0
 11
185.0
 21
40.0
 31
0.0
  0
LINE
  5
1BB
330
1B5
100
AcDbEntity
  8
G-ANNO-TTLB
370
25
100
AcDbLine
 10
0.0
 20
30.0
 30
0.0
 11
185.0
 21
30.0
 31
0.0
  0
LINE
  5
1BC
330
1B5
100
AcDbEntity
  8
G-ANNO-TTLB
370
25
100
AcDbLine
 10
0.0
 20
20.0
 30
0.0
 11
185.0
 21
20.0
 31
0.0
  0
LINE
  5
1BD
330
1B5
100
AcDbEntity
  8
G-ANNO-TTLB
370
25
100
AcDbLine
 10
0.0
 20
10.0
 30
0.0
 11
185.0
 21
10.0
 31
0.0
  0
TEXT
  5
1BE
330
1B5
100
AcDbEntity
  8
G-ANNO-TTLB
100
AcDbText
 10
1.5
 20
56.2
 30
0.0
 40
2.5
  1
PROYECTO
  7
PVSLD_STD
 11
1.5
 21
56.2
 31
0.0
100
AcDbText
  0
TEXT
  5
1BF
330
1B5
100
AcDbEntity
  8
G-ANNO-TTLB
100
AcDbText
 10
1.5
 20
46.2
 30
0.0
 40
2.5
  1
CLIENTE
  7
PVSLD_STD
 11
1.5
 21
46.2
 31
0.0
100
AcDbText
  0
TEXT
  5
1C0
330
1B5
100
AcDbEntity
  8
G-ANNO-TTLB
100
AcDbText
 10
81.5
 20
46.2
 30
0.0
 40
2.5
  1
UBICACIÓN
  7
PVSLD_STD
 11
81.5
 21
46.2
 31
0.0
100
AcDbText
  0
LINE
  5
1C1
330
1B5
100
AcDbEntity
  8
G-ANNO-TTLB
370
25
100
AcDbLine
 10
80.0
 20
50.0
 30
0.0
 11
80.0
 21
40.0
 31
0.0
  0
TEXT
  5
1C2
330
1B5
100
AcDbEntity
  8
G-ANNO-TTLB
100
AcDbText
 10
1.5
 20
36.2
 30
0.0
 40
2.5
  1
RPU
  7
PVSLD_STD
 11
1.5
 21
36.2
 31
0.0
100
AcDbText
  0
TEXT
  5
1C3
330
1B5
100
AcDbEntity
  8
G-ANNO-TTLB
100
AcDbText
 10
41.5
 20
36.2
 30
0.0
 40
2.5
  1
NÚM. DE SERVICIO
  7
PVSLD_STD
 11
41.5
 21
36.2
 31
0.0
100
AcDbText
  0
LINE
  5
1C4
330
1B5
100
AcDbEntity
  8
G-ANNO-TTLB
370
25
100
AcDbLine
 10
40.0
 20
40.0
 30
0.0
 11
40.0
 21
30.0
 31
0.0
  0
TEXT
  5
1C5
330
1B5
100
AcDbEntity
  8
G-ANNO-TTLB
100
AcDbText
 10
91.5
 20
36.2
 30
0.0
 40
2.5
  1
NÚM. DE MEDIDOR
  7
PVSLD_STD
 11
91.5
 21
36.2
 31
0.0
100
AcDbText
  0
LINE
  5
1C6
330
1B5
100
AcDbEntity
  8
G-ANNO-TTLB
370
25
100
AcDbLine
 10
90.0
 20
40.0
 30
0.0
 11
90.0
 21
30.0
 31
0.0
  0
TEXT
  5
1C7
330
1B5
100
AcDbEntity
  8
G-ANNO-TTLB
100
AcDbText
 10
136.5
 20
36.2
 30
0.0
 40
2.5
  1
TARIFA
  7
PVSLD_STD
 11
136.5
 21
36.2
 31
0.0
100
AcDbText
  0
LINE
  5
1C8
330
1B5
100
AcDbEntity
  8
G-ANNO-TTLB
370
25
100
AcDbLine
 10
135.0
 20
40.0
 30
0.0
 11
135.0
 21
30.0
 31
0.0
  0
TEXT
  5
1C9
330
1B5
100
AcDbEntity
  8
G-ANNO-TTLB
100
AcDbText
 10
156.5
 20
36.2
 30
0.0
 40
2.5
  1
TENSIÓN
  7
PVSLD_STD
 11
156.5
 21
36.2
 31
0.0
100
AcDbText
  0
LINE
  5
1CA
330
1B5
100
AcDbEntity
  8
G-ANNO-TTLB
370
25
100
AcDbLine
 10
155.0
 20
40.0
 30
0.0
 11
155.0
 21
30.0
 31
0.0
  0
TEXT
  5
1CB
330
1B5
100
AcDbEntity
  8
G-ANNO-TTLB
100
AcDbText
 10
1.5
 20
26.2
 30
0.0
 40
2.5
  1
CAPACIDAD
  7
PVSLD_STD
 11
1.5
 21
26.2
 31
0.0
100
AcDbText
  0
TEXT
  5
1CC
330
1B5
100
AcDbEntity
  8
G-ANNO-TTLB
100
AcDbText
 10
47.5
 20
26.2
 30
0.0
 40
2.5
  1
RESPONSABLE
  7
PVSLD_STD
 11
47.5
 21
26.2
 31
0.0
100
AcDbText
  0
LINE
  5
1CD
330
1B5
100
AcDbEntity
  8
G-ANNO-TTLB
370
25
100
AcDbLine
 10
46.0
 20
30.0
 30
0.0
 11
46.0
 21
20.0
 31
0.0
  0
TEXT
  5
1CE
330
1B5
100
AcDbEntity
  8
G-ANNO-TTLB
100
AcDbText
 10
105.5
 20
26.2
 30
0.0
 40
2.5
  1
CÉDULA PROF.
  7
PVSLD_STD
 11
105.5
 21
26.2
 31
0.0
100
AcDbText
  0
LINE
  5
1CF
330
1B5
100
AcDbEntity
  8
G-ANNO-TTLB
370
25
100
AcDbLine
 10
104.0
 20
30.0
 30
0.0
 11
104.0
 21
20.0
 31
0.0
  0
TEXT
  5
1D0
330
1B5
100
AcDbEntity
  8
G-ANNO-TTLB
100
AcDbText
 10
139.5
 20
26.2
 30
0.0
 40
2.5
  1
UVIE
  7
PVSLD_STD
 11
139.5
 21
26.2
 31
0.0
100
AcDbText
  0
LINE
  5
1D1
330
1B5
100
AcDbEntity
  8
G-ANNO-TTLB
370
25
100
AcDbLine
 10
138.0
 20
30.0
 30
0.0
 11
138.0
 21
20.0
 31
0.0
  0
TEXT
  5
1D2
330
1B5
100
AcDbEntity
  8
G-ANNO-TTLB
100
AcDbText
 10
164.5
 20
26.2
 30
0.0
 40
2.5
  1
FECHA
  7
PVSLD_STD
 11
164.5
 21
26.2
 31
0.0
100
AcDbText
  0
LINE
  5
1D3
330
1B5
100
AcDbEntity
  8
G-ANNO-TTLB
370
25
100
AcDbLine
 10
163.0
 20
30.0
 30
0.0
 11
163.0
 21
20.0
 31
0.0
  0
TEXT
  5
1D4
330
1B5
100
AcDbEntity
  8
G-ANNO-TTLB
100
AcDbText
 10
1.5
 20
16.2
 30
0.0
 40
2.5
  1
EMPRESA
  7
PVSLD_STD
 11
1.5
 21
16.2
 31
0.0
100
AcDbText
  0
TEXT
  5
1D5
330
1B5
100
AcDbEntity
  8
G-ANNO-TTLB
100
AcDbText
 10
71.5
 20
16.2
 30
0.0
 40
2.5
  1
DIBUJÓ
  7
PVSLD_STD
 11
71.5
 21
16.2
 31
0.0
100
AcDbText
  0
LINE
  5
1D6
330
1B5
100
AcDbEntity
  8
G-ANNO-TTLB
370
25
100
AcDbLine
 10
70.0
 20
20.0
 30
0.0
 11
70.0
 21
10.0
 31
0.0
  0
TEXT
  5
1D7
330
1B5
100
AcDbEntity
  8
G-ANNO-TTLB
100
AcDbText
 10
93.5
 20
16.2
 30
0.0
 40
2.5
  1
REVISÓ
  7
PVSLD_STD
 11
93.5
 21
16.2
 31
0.0
100
AcDbText
  0
LINE
  5
1D8
330
1B5
100
AcDbEntity
  8
G-ANNO-TTLB
370
25
100
AcDbLine
 10
92.0
 20
20.0
 30
0.0
 11
92.0
 21
10.0
 31
0.0
  0
TEXT
  5
1D9
330
1B5
100
AcDbEntity
  8
G-ANNO-TTLB
100
AcDbText
 10
115.5
 20
16.2
 30
0.0
 40
2.5
  1
APROBÓ
  7
PVSLD_STD
 11
115.5
 21
16.2
 31
0.0
100
AcDbText
  0
LINE
  5
1DA
330
1B5
100
AcDbEntity
  8
G-ANNO-TTLB
370
25
100
AcDbLine
 10
114.0
 20
20.0
 30
0.0
 11
114.0
 21
10.0
 31
0.0
  0
TEXT
  5
1DB
330
1B5
100
AcDbEntity
  8
G-ANNO-TTLB
100
AcDbText
 10
137.5
 20
16.2
 30
0.0
 40
2.5
  1
NORMA
  7
PVSLD_STD
 11
137.5
 21
16.2
 31
0.0
100
AcDbText
  0
LINE
  5
1DC
330
1B5
100
AcDbEntity
  8
G-ANNO-TTLB
370
25
100
AcDbLine
 10
136.0
 20
20.0
 30
0.0
 11
136.0
 21
10.0
 31
0.0
  0
TEXT
  5
1DD
330
1B5
100
AcDbEntity
  8
G-ANNO-TTLB
100
AcDbText
 10
1.5
 20
6.2
 30
0.0
 40
2.5
  1
TÍTULO DEL PLANO
  7
PVSLD_STD
 11
1.5
 21
6.2
 31
0.0
100
AcDbText
  0
TEXT
  5
1DE
330
1B5
100
AcDbEntity
  8
G-ANNO-TTLB
100
AcDbText
 10
86.5
 20
6.2
 30
0.0
 40
2.5
  1
PLANO NÚM.
  7
PVSLD_STD
 11
86.5
 21
6.2
 31
0.0
100
AcDbText
  0
LINE
  5
1DF
330
1B5
100
AcDbEntity
  8
G-ANNO-TTLB
370
25
100
AcDbLine
 10
85.0
 20
10.0
 30
0.0
 11
85.0
 21
0.0
 31
0.0
  0
TEXT
  5
1E0
330
1B5
100
AcDbEntity
  8
G-ANNO-TTLB
100
AcDbText
 10
114.5
 20
6.2
 30
0.0
 40
2.5
  1
HOJA
  7
PVSLD_STD
 11
114.5
 21
6.2
 31
0.0
100
AcDbText
  0
LINE
  5
1E1
330
1B5
100
AcDbEntity
  8
G-ANNO-TTLB
370
25
100
AcDbLine
 10
113.0
 20
10.0
 30
0.0
 11
113.0
 21
0.0
 31
0.0
  0
TEXT
  5
1E2
330
1B5
100
AcDbEntity
  8
G-ANNO-TTLB
100
AcDbText
 10
136.5
 20
6.2
 30
0.0
 40
2.5
  1
REV.
  7
PVSLD_STD
 11
136.5
 21
6.2
 31
0.0
100
AcDbText
  0
LINE
  5
1E3
330
1B5
100
AcDbEntity
  8
G-ANNO-TTLB
370
25
100
AcDbLine
 10
135.0
 20
10.0
 30
0.0
 11
135.0
 21
0.0
 31
0.0
  0
TEXT
  5
1E4
330
1B5
100
AcDbEntity
  8
G-ANNO-TTLB
100
AcDbText
 10
151.5
 20
6.2
 30
0.0
 40
2.5
  1
ESCALA
  7
PVSLD_STD
 11
151.5
 21
6.2
 31
0.0
100
AcDbText
  0
LINE
  5
1E5
330
1B5
100
AcDbEntity
  8
G-ANNO-TTLB
370
25
100
AcDbLine
 10
150.0
 20
10.0
 30
0.0
 11
150.0
 21
0.0
 31
0.0
  0
ATTDEF
  5
1E6
330
1B5
100
AcDbEntity
  8
G-ANNO-TTLB
100
AcDbText
 10
1.5
 20
51.2
 30
0.0
 40
3.5
  1

  7
PVSLD_STD
100
AcDbAttributeDefinition
  3
Proyecto
  2
PROYECTO
 70
0
 71
1
 72
0
  0
ATTDEF
  5
1E7
330
1B5
100
AcDbEntity
  8
G-ANNO-TTLB
100
AcDbText
 10
1.5
 20
41.2
 30
0.0
 40
2.5
  1

  7
PVSLD_STD
100
AcDbAttributeDefinition
  3
Cliente
  2
CLIENTE
 70
0
 71
1
 72
0
  0
ATTDEF
  5
1E8
330
1B5
100
AcDbEntity
  8
G-ANNO-TTLB
100
AcDbText
 10
81.5
 20
41.2
 30
0.0
 40
2.5
  1

  7
PVSLD_STD
100
AcDbAttributeDefinition
  3
Ubicación
  2
UBICACION
 70
0
 71
1
 72
0
  0
ATTDEF
  5
1E9
330
1B5
100
AcDbEntity
  8
G-ANNO-TTLB
100
AcDbText
 10
1.5
 20
31.2
 30
0.0
 40
2.5
  1

  7
PVSLD_STD
100
AcDbAttributeDefinition
  3
Rpu
  2
RPU
 70
0
 71
1
 72
0
  0
ATTDEF
  5
1EA
330
1B5
100
AcDbEntity
  8
G-ANNO-TTLB
100
AcDbText
 10
41.5
 20
31.2
 30
0.0
 40
2.5
  1

  7
PVSLD_STD
100
AcDbAttributeDefinition
  3
Núm. De Servicio
  2
NUM_SERVICIO
 70
0
 71
1
 72
0
  0
ATTDEF
  5
1EB
330
1B5
100
AcDbEntity
  8
G-ANNO-TTLB
100
AcDbText
 10
91.5
 20
31.2
 30
0.0
 40
2.5
  1

  7
PVSLD_STD
100
AcDbAttributeDefinition
  3
Núm. De Medidor
  2
NUM_MEDIDOR
 70
0
 71
1
 72
0
  0
ATTDEF
  5
1EC
330
1B5
100
AcDbEntity
  8
G-ANNO-TTLB
100
AcDbText
 10
136.5
 20
31.2
 30
0.0
 40
2.5
  1

  7
PVSLD_STD
100
AcDbAttributeDefinition
  3
Tarifa
  2
TARIFA
 70
0
 71
1
 72
0
  0
ATTDEF
  5
1ED
330
1B5
100
AcDbEntity
  8
G-ANNO-TTLB
100
AcDbText
 10
156.5
 20
31.2
 30
0.0
 40
2.5
  1

  7
PVSLD_STD
100
AcDbAttributeDefinition
  3
Tensión
  2
TENSION_SUMINISTRO
 70
0
 71
1
 72
0
  0
ATTDEF
  5
1EE
330
1B5
100
AcDbEntity
  8
G-ANNO-TTLB
100
AcDbText
 10
1.5
 20
21.2
 30
0.0
 40
2.5
  1

  7
PVSLD_STD
100
AcDbAttributeDefinition
  3
Capacidad
  2
CAPACIDAD
 70
0
 71
1
 72
0
  0
ATTDEF
  5
1EF
330
1B5
100
AcDbEntity
  8
G-ANNO-TTLB
100
AcDbText
 10
47.5
 20
21.2
 30
0.0
 40
2.5
  1

  7
PVSLD_STD
100
AcDbAttributeDefinition
  3
Responsable
  2
RESPONSABLE
 70
0
 71
1
 72
0
  0
ATTDEF
  5
1F0
330
1B5
100
AcDbEntity
  8
G-ANNO-TTLB
100
AcDbText
 10
105.5
 20
21.2
 30
0.0
 40
2.5
  1

  7
PVSLD_STD
100
AcDbAttributeDefinition
  3
Cédula Prof.
  2
CEDULA
 70
0
 71
1
 72
0
  0
ATTDEF
  5
1F1
330
1B5
100
AcDbEntity
  8
G-ANNO-TTLB
100
AcDbText
 10
139.5
 20
21.2
 30
0.0
 40
2.5
  1

  7
PVSLD_STD
100
AcDbAttributeDefinition
  3
Uvie
  2
UVIE
 70
0
 71
1
 72
0
  0
ATTDEF
  5
1F2
330
1B5
100
AcDbEntity
  8
G-ANNO-TTLB
100
AcDbText
 10
164.5
 20
21.2
 30
0.0
 40
2.5
  1

  7
PVSLD_STD
100
AcDbAttributeDefinition
  3
Fecha
  2
FECHA
 70
0
 71
1
 72
0
  0
ATTDEF
  5
1F3
330
1B5
100
AcDbEntity
  8
G-ANNO-TTLB
100
AcDbText
 10
1.5
 20
11.2
 30
0.0
 40
2.5
  1

  7
PVSLD_STD
100
AcDbAttributeDefinition
  3
Empresa
  2
EMPRESA
 70
0
 71
1
 72
0
  0
ATTDEF
  5
1F4
330
1B5
100
AcDbEntity
  8
G-ANNO-TTLB
100
AcDbText
 10
71.5
 20
11.2
 30
0.0
 40
2.5
  1

  7
PVSLD_STD
100
AcDbAttributeDefinition
  3
Dibujó
  2
DIBUJO
 70
0
 71
1
 72
0
  0
ATTDEF
  5
1F5
330
1B5
100
AcDbEntity
  8
G-ANNO-TTLB
100
AcDbText
 10
93.5
 20
11.2
 30
0.0
 40
2.5
  1

  7
PVSLD_STD
100
AcDbAttributeDefinition
  3
Revisó
  2
REVISO
 70
0
 71
1
 72
0
  0
ATTDEF
  5
1F6
330
1B5
100
AcDbEntity
  8
G-ANNO-TTLB
100
AcDbText
 10
115.5
 20
11.2
 30
0.0
 40
2.5
  1

  7
PVSLD_STD
100
AcDbAttributeDefinition
  3
Aprobó
  2
APROBO
 70
0
 71
1
 72
0
  0
ATTDEF
  5
1F7
330
1B5
100
AcDbEntity
  8
G-ANNO-TTLB
100
AcDbText
 10
137.5
 20
11.2
 30
0.0
 40
2.5
  1

  7
PVSLD_STD
100
AcDbAttributeDefinition
  3
Norma
  2
NORMA
 70
0
 71
1
 72
0
  0
ATTDEF
  5
1F8
330
1B5
100
AcDbEntity
  8
G-ANNO-TTLB
100
AcDbText
 10
1.5
 20
1.1999999999999993
 30
0.0
 40
3.5
  1

  7
PVSLD_STD
100
AcDbAttributeDefinition
  3
Título Del Plano
  2
TITULO
 70
0
 71
1
 72
0
  0
ATTDEF
  5
1F9
330
1B5
100
AcDbEntity
  8
G-ANNO-TTLB
100
AcDbText
 10
86.5
 20
1.1999999999999993
 30
0.0
 40
3.5
  1

  7
PVSLD_STD
100
AcDbAttributeDefinition
  3
Plano Núm.
  2
PLANO_NO
 70
0
 71
1
 72
0
  0
ATTDEF
  5
1FA
330
1B5
100
AcDbEntity
  8
G-ANNO-TTLB
100
AcDbText
 10
114.5
 20
1.1999999999999993
 30
0.0
 40
2.5
  1

  7
PVSLD_STD
100
AcDbAttributeDefinition
  3
Hoja
  2
HOJA
 70
0
 71
1
 72
0
  0
ATTDEF
  5
1FB
330
1B5
100
AcDbEntity
  8
G-ANNO-TTLB
100
AcDbText
 10
136.5
 20
1.1999999999999993
 30
0.0
 40
3.5
  1

  7
PVSLD_STD
100
AcDbAttributeDefinition
  3
Rev.
  2
REV
 70
0
 71
1
 72
0
  0
ATTDEF
  5
1FC
330
1B5
100
AcDbEntity
  8
G-ANNO-TTLB
100
AcDbText
 10
151.5
 20
1.1999999999999993
 30
0.0
 40
2.5
  1

  7
PVSLD_STD
100
AcDbAttributeDefinition
  3
Escala
  2
ESCALA
 70
0
 71
1
 72
0
  0
ATTDEF
  5
1FD
330
1B5
100
AcDbEntity
  8
G-ANNO-TTLB
100
AcDbText
 10
0.0
 20
0.0
 30
0.0
 40
3.5
  1

  7
PVSLD_STD
100
AcDbAttributeDefinition
  3
Identificador
  2
TAG
 70
1
 71
1
 72
0
  0
ATTDEF
  5
1FE
330
1B5
100
AcDbEntity
  8
G-ANNO-TTLB
100
AcDbText
 10
0.0
 20
0.0
 30
0.0
 40
2.5
  1
Cuadro de datos del plano (pie de plano)
  7
PVSLD_STD
100
AcDbAttributeDefinition
  3
Descripción
  2
DESC
 70
1
 71
1
 72
0
  0
ATTDEF
  5
1FF
330
1B5
100
AcDbEntity
  8
G-ANNO-TTLB
100
AcDbText
 10
0.0
 20
0.0
 30
0.0
 40
2.5
  1

  7
PVSLD_STD
100
AcDbAttributeDefinition
  3
Identificador en el modelo
  2
COMP_ID
 70
1
 71
1
 72
0
  0
ATTDEF
  5
200
330
1B5
100
AcDbEntity
  8
G-ANNO-TTLB
100
AcDbText
 10
0.0
 20
0.0
 30
0.0
 40
2.5
  1
-
  7
PVSLD_STD
100
AcDbAttributeDefinition
  3
Referencia IEC 60617
  2
IEC_REF
 70
1
 71
1
 72
0
  0
ATTDEF
  5
201
330
1B5
100
AcDbEntity
  8
G-ANNO-TTLB
100
AcDbText
 10
0.0
 20
0.0
 30
0.0
 40
2.5
  1
NMX-J-136-ANCE Sección 5
  7
PVSLD_STD
100
AcDbAttributeDefinition
  3
Referencia NMX-J-136-ANCE
  2
NMX_REF
 70
1
 71
1
 72
0
  0
ATTDEF
  5
202
330
1B5
100
AcDbEntity
  8
G-ANNO-TTLB
100
AcDbText
 10
0.0
 20
0.0
 30
0.0
 40
2.5
  1
pvsld (sin símbolo en CFE G0100-04 ni IEC 60617)
  7
PVSLD_STD
100
AcDbAttributeDefinition
  3
Norma de origen del símbolo
  2
SOURCE_STANDARD
 70
1
 71
1
 72
0
  0
ENDBLK
  5
1B7
330
1B5
100
AcDbEntity
  8
0
100
AcDbBlockEnd
  0
ENDSEC
  0
SECTION
  2
ENTITIES
  0
VIEWPORT
  5
203
330
1B
100
AcDbEntity
 67
1
  8
0
100
AcDbViewport
 10
210.0
 20
148.5
 30
0.0
 40
462.00000000000006
 41
326.70000000000005
 68
1
 69
1
 12
210.0
 22
148.5
 13
0.0
 23
0.0
 14
10.0
 24
10.0
 15
10.0
 25
10.0
 16
0.0
 26
0.0
 36
1.0
 17
0.0
 27
0.0
 37
0.0
 42
50.0
 43
0.0
 44
0.0
 45
326.70000000000005
 50
0.0
 51
0.0
 72
100
 90
557088
  1

281
0
 71
0
 74
0
110
0.0
120
0.0
130
0.0
111
1.0
121
0.0
131
0.0
112
0.0
122
1.0
132
0.0
 79
0
146
0.0
282
0
  0
LWPOLYLINE
  5
204
330
1B
100
AcDbEntity
 67
1
  8
G-ANNO-TTLB
370
70
100
AcDbPolyline
 90
4
 70
1
 10
10.0
 20
10.0
 10
410.0
 20
10.0
 10
410.0
 20
287.0
 10
10.0
 20
287.0
  0
TEXT
  5
205
330
1B
100
AcDbEntity
 67
1
  8
G-ANNO-TTLB
100
AcDbText
 10
15.0
 20
277.0
 30
0.0
 40
6.0
  1
SIMBOLOGÍA — DIAGRAMAS UNIFILARES FV (CFE G0100-04 Apéndice C)
  7
PVSLD_STD
 11
15.0
 21
277.0
 31
0.0
100
AcDbText
  0
TEXT
  5
206
330
1B
100
AcDbEntity
 67
1
  8
E-ANNO-NOTE
100
AcDbText
 10
15.0
 20
269.0
 30
0.0
 40
3.5
  1
Biblioteca de símbolos pvsld v0.4.0 — 22 bloques — DXF R2018
  7
PVSLD_STD
 11
15.0
 21
269.0
 31
0.0
100
AcDbText
  0
LWPOLYLINE
  5
207
330
1B
100
AcDbEntity
 67
1
  8
E-ANNO-TABL
100
AcDbPolyline
 90
4
 70
1
 10
15.0
 20
263.0
 10
205.0
 20
263.0
 10
205.0
 20
32.0
 10
15.0
 20
32.0
  0
LINE
  5
208
330
1B
100
AcDbEntity
 67
1
  8
E-ANNO-TABL
100
AcDbLine
 10
61.0
 20
263.0
 30
0.0
 11
61.0
 21
32.0
 31
0.0
  0
LINE
  5
209
330
1B
100
AcDbEntity
 67
1
  8
E-ANNO-TABL
100
AcDbLine
 10
143.0
 20
263.0
 30
0.0
 11
143.0
 21
32.0
 31
0.0
  0
LINE
  5
20A
330
1B
100
AcDbEntity
 67
1
  8
E-ANNO-TABL
100
AcDbLine
 10
15.0
 20
255.0
 30
0.0
 11
205.0
 21
255.0
 31
0.0
  0
LINE
  5
20B
330
1B
100
AcDbEntity
 67
1
  8
E-ANNO-TABL
100
AcDbLine
 10
15.0
 20
234.72727272727272
 30
0.0
 11
205.0
 21
234.72727272727272
 31
0.0
  0
LINE
  5
20C
330
1B
100
AcDbEntity
 67
1
  8
E-ANNO-TABL
100
AcDbLine
 10
15.0
 20
214.45454545454544
 30
0.0
 11
205.0
 21
214.45454545454544
 31
0.0
  0
LINE
  5
20D
330
1B
100
AcDbEntity
 67
1
  8
E-ANNO-TABL
100
AcDbLine
 10
15.0
 20
194.1818181818182
 30
0.0
 11
205.0
 21
194.1818181818182
 31
0.0
  0
LINE
  5
20E
330
1B
100
AcDbEntity
 67
1
  8
E-ANNO-TABL
100
AcDbLine
 10
15.0
 20
173.9090909090909
 30
0.0
 11
205.0
 21
173.9090909090909
 31
0.0
  0
LINE
  5
20F
330
1B
100
AcDbEntity
 67
1
  8
E-ANNO-TABL
100
AcDbLine
 10
15.0
 20
153.63636363636363
 30
0.0
 11
205.0
 21
153.63636363636363
 31
0.0
  0
LINE
  5
210
330
1B
100
AcDbEntity
 67
1
  8
E-ANNO-TABL
100
AcDbLine
 10
15.0
 20
133.36363636363637
 30
0.0
 11
205.0
 21
133.36363636363637
 31
0.0
  0
LINE
  5
211
330
1B
100
AcDbEntity
 67
1
  8
E-ANNO-TABL
100
AcDbLine
 10
15.0
 20
113.0909090909091
 30
0.0
 11
205.0
 21
113.0909090909091
 31
0.0
  0
LINE
  5
212
330
1B
100
AcDbEntity
 67
1
  8
E-ANNO-TABL
100
AcDbLine
 10
15.0
 20
92.81818181818181
 30
0.0
 11
205.0
 21
92.81818181818181
 31
0.0
  0
LINE
  5
213
330
1B
100
AcDbEntity
 67
1
  8
E-ANNO-TABL
100
AcDbLine
 10
15.0
 20
72.54545454545453
 30
0.0
 11
205.0
 21
72.54545454545453
 31
0.0
  0
LINE
  5
214
330
1B
100
AcDbEntity
 67
1
  8
E-ANNO-TABL
100
AcDbLine
 10
15.0
 20
52.27272727272725
 30
0.0
 11
205.0
 21
52.27272727272725
 31
0.0
  0
LINE
  5
215
330
1B
100
AcDbEntity
 67
1
  8
E-ANNO-TABL
100
AcDbLine
 10
15.0
 20
32.0
 30
0.0
 11
205.0
 21
32.0
 31
0.0
  0
TEXT
  5
216
330
1B
100
AcDbEntity
 67
1
  8
E-ANNO-NOTE
100
AcDbText
 10
18.0
 20
257.5
 30
0.0
 40
3.5
  1
Símbolo
  7
PVSLD_STD
 11
18.0
 21
257.5
 31
0.0
100
AcDbText
  0
TEXT
  5
217
330
1B
100
AcDbEntity
 67
1
  8
E-ANNO-NOTE
100
AcDbText
 10
64.0
 20
257.5
 30
0.0
 40
3.5
  1
Designación
  7
PVSLD_STD
 11
64.0
 21
257.5
 31
0.0
100
AcDbText
  0
TEXT
  5
218
330
1B
100
AcDbEntity
 67
1
  8
E-ANNO-NOTE
100
AcDbText
 10
146.0
 20
257.5
 30
0.0
 40
3.5
  1
Fuente
  7
PVSLD_STD
 11
146.0
 21
257.5
 31
0.0
100
AcDbText
  0
INSERT
  5
219
330
1B
100
AcDbEntity
 67
1
  8
E-ANNO-NOTE
100
AcDbBlockReference
  2
PVSLD_PV_MODULE
 10
34.93
 20
244.8637
 30
0.0
 41
0.614
 42
0.614
 43
0.614
  0
TEXT
  5
21B
330
1B
100
AcDbEntity
 67
1
  8
E-ANNO-NOTE
100
AcDbText
 10
64.0
 20
248.5
 30
0.0
 40
3.2
  1
Módulo fotovoltaico
  7
PVSLD_STD
 11
64.0
 21
248.5
 31
0.0
100
AcDbText
  0
TEXT
  5
21C
330
1B
100
AcDbEntity
 67
1
  8
E-ANNO-NOTE
100
AcDbText
 10
64.0
 20
243.5
 30
0.0
 40
2.2
  1
PVSLD_PV_MODULE
  7
PVSLD_STD
 11
64.0
 21
243.5
 31
0.0
100
AcDbText
  0
TEXT
  5
21D
330
1B
100
AcDbEntity
 67
1
  8
E-ANNO-NOTE
100
AcDbText
 10
146.0
 20
248.5
 30
0.0
 40
2.8
  1
CFE G0100-04 Apéndice C
  7
PVSLD_STD
 11
146.0
 21
248.5
 31
0.0
100
AcDbText
  0
INSERT
  5
21E
330
1B
100
AcDbEntity
 67
1
  8
E-ANNO-NOTE
100
AcDbBlockReference
  2
PVSLD_SPD
 10
38.0
 20
230.7309
 30
0.0
 41
0.614
 42
0.614
 43
0.614
  0
TEXT
  5
220
330
1B
100
AcDbEntity
 67
1
  8
E-ANNO-NOTE
100
AcDbText
 10
64.0
 20
228.22727272727272
 30
0.0
 40
3.2
  1
Varistor (dispositivo de
  7
PVSLD_STD
 11
64.0
 21
228.22727272727272
 31
0.0
100
AcDbText
  0
TEXT
  5
221
330
1B
100
AcDbEntity
 67
1
  8
E-ANNO-NOTE
100
AcDbText
 10
64.0
 20
223.62727272727273
 30
0.0
 40
3.2
  1
protección contra sobretensiones)
  7
PVSLD_STD
 11
64.0
 21
223.62727272727273
 31
0.0
100
AcDbText
  0
TEXT
  5
222
330
1B
100
AcDbEntity
 67
1
  8
E-ANNO-NOTE
100
AcDbText
 10
64.0
 20
218.62727272727273
 30
0.0
 40
2.2
  1
PVSLD_SPD
  7
PVSLD_STD
 11
64.0
 21
218.62727272727273
 31
0.0
100
AcDbText
  0
TEXT
  5
223
330
1B
100
AcDbEntity
 67
1
  8
E-ANNO-NOTE
100
AcDbText
 10
146.0
 20
228.22727272727272
 30
0.0
 40
2.8
  1
CFE G0100-04 Apéndice C
  7
PVSLD_STD
 11
146.0
 21
228.22727272727272
 31
0.0
100
AcDbText
  0
INSERT
  5
224
330
1B
100
AcDbEntity
 67
1
  8
E-ANNO-NOTE
100
AcDbBlockReference
  2
PVSLD_CB
 10
28.0
 20
203.5682
 30
0.0
  0
TEXT
  5
226
330
1B
100
AcDbEntity
 67
1
  8
E-ANNO-NOTE
100
AcDbText
 10
64.0
 20
207.95454545454544
 30
0.0
 40
3.2
  1
Interruptor termomagnético (ITM)
  7
PVSLD_STD
 11
64.0
 21
207.95454545454544
 31
0.0
100
AcDbText
  0
TEXT
  5
227
330
1B
100
AcDbEntity
 67
1
  8
E-ANNO-NOTE
100
AcDbText
 10
64.0
 20
202.95454545454544
 30
0.0
 40
2.2
  1
PVSLD_CB
  7
PVSLD_STD
 11
64.0
 21
202.95454545454544
 31
0.0
100
AcDbText
  0
TEXT
  5
228
330
1B
100
AcDbEntity
 67
1
  8
E-ANNO-NOTE
100
AcDbText
 10
146.0
 20
207.95454545454544
 30
0.0
 40
2.8
  1
CFE G0100-04 Apéndice C
  7
PVSLD_STD
 11
146.0
 21
207.95454545454544
 31
0.0
100
AcDbText
  0
INSERT
  5
229
330
1B
100
AcDbEntity
 67
1
  8
E-ANNO-NOTE
100
AcDbBlockReference
  2
PVSLD_INV
 10
31.175
 20
184.0455
 30
0.0
 41
0.273
 42
0.273
 43
0.273
  0
TEXT
  5
22B
330
1B
100
AcDbEntity
 67
1
  8
E-ANNO-NOTE
100
AcDbText
 10
64.0
 20
187.6818181818182
 30
0.0
 40
3.2
  1
Inversor de red de cadena
  7
PVSLD_STD
 11
64.0
 21
187.6818181818182
 31
0.0
100
AcDbText
  0
TEXT
  5
22C
330
1B
100
AcDbEntity
 67
1
  8
E-ANNO-NOTE
100
AcDbText
 10
64.0
 20
182.6818181818182
 30
0.0
 40
2.2
  1
PVSLD_INV
  7
PVSLD_STD
 11
64.0
 21
182.6818181818182
 31
0.0
100
AcDbText
  0
TEXT
  5
22D
330
1B
100
AcDbEntity
 67
1
  8
E-ANNO-NOTE
100
AcDbText
 10
146.0
 20
187.6818181818182
 30
0.0
 40
2.8
  1
CFE G0100-04 Apéndice C
  7
PVSLD_STD
 11
146.0
 21
187.6818181818182
 31
0.0
100
AcDbText
  0
INSERT
  5
22E
330
1B
100
AcDbEntity
 67
1
  8
E-ANNO-NOTE
100
AcDbBlockReference
  2
PVSLD_METER
 10
33.395
 20
163.7728
 30
0.0
 41
0.614
 42
0.614
 43
0.614
  0
TEXT
  5
230
330
1B
100
AcDbEntity
 67
1
  8
E-ANNO-NOTE
100
AcDbText
 10
64.0
 20
167.4090909090909
 30
0.0
 40
3.2
  1
Medidor de energía bidireccional
  7
PVSLD_STD
 11
64.0
 21
167.4090909090909
 31
0.0
100
AcDbText
  0
TEXT
  5
231
330
1B
100
AcDbEntity
 67
1
  8
E-ANNO-NOTE
100
AcDbText
 10
64.0
 20
162.4090909090909
 30
0.0
 40
2.2
  1
PVSLD_METER
  7
PVSLD_STD
 11
64.0
 21
162.4090909090909
 31
0.0
100
AcDbText
  0
TEXT
  5
232
330
1B
100
AcDbEntity
 67
1
  8
E-ANNO-NOTE
100
AcDbText
 10
146.0
 20
167.4090909090909
 30
0.0
 40
2.8
  1
CFE G0100-04 Apéndice C
  7
PVSLD_STD
 11
146.0
 21
167.4090909090909
 31
0.0
100
AcDbText
  0
INSERT
  5
233
330
1B
100
AcDbEntity
 67
1
  8
E-ANNO-NOTE
100
AcDbBlockReference
  2
PVSLD_GRID
 10
31.86
 20
143.5
 30
0.0
 41
0.614
 42
0.614
 43
0.614
  0
TEXT
  5
235
330
1B
100
AcDbEntity
 67
1
  8
E-ANNO-NOTE
100
AcDbText
 10
64.0
 20
147.13636363636363
 30
0.0
 40
3.2
  1
Red eléctrica de distribución
  7
PVSLD_STD
 11
64.0
 21
147.13636363636363
 31
0.0
100
AcDbText
  0
TEXT
  5
236
330
1B
100
AcDbEntity
 67
1
  8
E-ANNO-NOTE
100
AcDbText
 10
64.0
 20
142.13636363636363
 30
0.0
 40
2.2
  1
PVSLD_GRID
  7
PVSLD_STD
 11
64.0
 21
142.13636363636363
 31
0.0
100
AcDbText
  0
TEXT
  5
237
330
1B
100
AcDbEntity
 67
1
  8
E-ANNO-NOTE
100
AcDbText
 10
146.0
 20
147.13636363636363
 30
0.0
 40
2.8
  1
CFE G0100-04 Apéndice C
  7
PVSLD_STD
 11
146.0
 21
147.13636363636363
 31
0.0
100
AcDbText
  0
INSERT
  5
238
330
1B
100
AcDbEntity
 67
1
  8
E-ANNO-NOTE
100
AcDbBlockReference
  2
PVSLD_ENCLOSURE
 10
29.82
 20
123.2273
 30
0.0
 41
0.409
 42
0.409
 43
0.409
  0
TEXT
  5
23A
330
1B
100
AcDbEntity
 67
1
  8
E-ANNO-NOTE
100
AcDbText
 10
64.0
 20
126.86363636363637
 30
0.0
 40
3.2
  1
Gabinete o estructura metálica
  7
PVSLD_STD
 11
64.0
 21
126.86363636363637
 31
0.0
100
AcDbText
  0
TEXT
  5
23B
330
1B
100
AcDbEntity
 67
1
  8
E-ANNO-NOTE
100
AcDbText
 10
64.0
 20
121.86363636363637
 30
0.0
 40
2.2
  1
PVSLD_ENCLOSURE
  7
PVSLD_STD
 11
64.0
 21
121.86363636363637
 31
0.0
100
AcDbText
  0
TEXT
  5
23C
330
1B
100
AcDbEntity
 67
1
  8
E-ANNO-NOTE
100
AcDbText
 10
146.0
 20
126.86363636363637
 30
0.0
 40
2.8
  1
CFE G0100-04 Apéndice C
  7
PVSLD_STD
 11
146.0
 21
126.86363636363637
 31
0.0
100
AcDbText
  0
INSERT
  5
23D
330
1B
100
AcDbEntity
 67
1
  8
E-ANNO-NOTE
100
AcDbBlockReference
  2
PVSLD_DIODE
 10
38.0
 20
109.0883
 30
0.0
 41
0.701
 42
0.701
 43
0.701
  0
TEXT
  5
23F
330
1B
100
AcDbEntity
 67
1
  8
E-ANNO-NOTE
100
AcDbText
 10
64.0
 20
106.5909090909091
 30
0.0
 40
3.2
  1
Diodo de paso
  7
PVSLD_STD
 11
64.0
 21
106.5909090909091
 31
0.0
100
AcDbText
  0
TEXT
  5
240
330
1B
100
AcDbEntity
 67
1
  8
E-ANNO-NOTE
100
AcDbText
 10
64.0
 20
101.5909090909091
 30
0.0
 40
2.2
  1
PVSLD_DIODE
  7
PVSLD_STD
 11
64.0
 21
101.5909090909091
 31
0.0
100
AcDbText
  0
TEXT
  5
241
330
1B
100
AcDbEntity
 67
1
  8
E-ANNO-NOTE
100
AcDbText
 10
146.0
 20
106.5909090909091
 30
0.0
 40
2.8
  1
CFE G0100-04 Apéndice C
  7
PVSLD_STD
 11
146.0
 21
106.5909090909091
 31
0.0
100
AcDbText
  0
INSERT
  5
242
330
1B
100
AcDbEntity
 67
1
  8
E-ANNO-NOTE
100
AcDbBlockReference
  2
PVSLD_LOAD_LIGHT
 10
33.0
 20
82.6819
 30
0.0
  0
TEXT
  5
244
330
1B
100
AcDbEntity
 67
1
  8
E-ANNO-NOTE
100
AcDbText
 10
64.0
 20
86.31818181818181
 30
0.0
 40
3.2
  1
Cargas de iluminación
  7
PVSLD_STD
 11
64.0
 21
86.31818181818181
 31
0.0
100
AcDbText
  0
TEXT
  5
245
330
1B
100
AcDbEntity
 67
1
  8
E-ANNO-NOTE
100
AcDbText
 10
64.0
 20
81.31818181818181
 30
0.0
 40
2.2
  1
PVSLD_LOAD_LIGHT
  7
PVSLD_STD
 11
64.0
 21
81.31818181818181
 31
0.0
100
AcDbText
  0
TEXT
  5
246
330
1B
100
AcDbEntity
 67
1
  8
E-ANNO-NOTE
100
AcDbText
 10
146.0
 20
86.31818181818181
 30
0.0
 40
2.8
  1
CFE G0100-04 Apéndice C
  7
PVSLD_STD
 11
146.0
 21
86.31818181818181
 31
0.0
100
AcDbText
  0
INSERT
  5
247
330
1B
100
AcDbEntity
 67
1
  8
E-ANNO-NOTE
100
AcDbBlockReference
  2
PVSLD_CT
 10
33.395
 20
65.4791
 30
0.0
 41
0.614
 42
0.614
 43
0.614
  0
TEXT
  5
249
330
1B
100
AcDbEntity
 67
1
  8
E-ANNO-NOTE
100
AcDbText
 10
64.0
 20
66.04545454545453
 30
0.0
 40
3.2
  1
Sensor de corriente
  7
PVSLD_STD
 11
64.0
 21
66.04545454545453
 31
0.0
100
AcDbText
  0
TEXT
  5
24A
330
1B
100
AcDbEntity
 67
1
  8
E-ANNO-NOTE
100
AcDbText
 10
64.0
 20
61.04545454545453
 30
0.0
 40
2.2
  1
PVSLD_CT
  7
PVSLD_STD
 11
64.0
 21
61.04545454545453
 31
0.0
100
AcDbText
  0
TEXT
  5
24B
330
1B
100
AcDbEntity
 67
1
  8
E-ANNO-NOTE
100
AcDbText
 10
146.0
 20
66.04545454545453
 30
0.0
 40
2.8
  1
CFE G0100-04 Apéndice C
  7
PVSLD_STD
 11
146.0
 21
66.04545454545453
 31
0.0
100
AcDbText
  0
INSERT
  5
24C
330
1B
100
AcDbEntity
 67
1
  8
E-ANNO-NOTE
100
AcDbBlockReference
  2
PVSLD_SWITCH
 10
27.775
 20
41.1139
 30
0.0
 41
0.818
 42
0.818
 43
0.818
  0
TEXT
  5
24E
330
1B
100
AcDbEntity
 67
1
  8
E-ANNO-NOTE
100
AcDbText
 10
64.0
 20
45.77272727272725
 30
0.0
 40
3.2
  1
Interruptor manual
  7
PVSLD_STD
 11
64.0
 21
45.77272727272725
 31
0.0
100
AcDbText
  0
TEXT
  5
24F
330
1B
100
AcDbEntity
 67
1
  8
E-ANNO-NOTE
100
AcDbText
 10
64.0
 20
40.77272727272725
 30
0.0
 40
2.2
  1
PVSLD_SWITCH
  7
PVSLD_STD
 11
64.0
 21
40.77272727272725
 31
0.0
100
AcDbText
  0
TEXT
  5
250
330
1B
100
AcDbEntity
 67
1
  8
E-ANNO-NOTE
100
AcDbText
 10
146.0
 20
45.77272727272725
 30
0.0
 40
2.8
  1
CFE G0100-04 Apéndice C
  7
PVSLD_STD
 11
146.0
 21
45.77272727272725
 31
0.0
100
AcDbText
  0
LWPOLYLINE
  5
251
330
1B
100
AcDbEntity
 67
1
  8
E-ANNO-TABL
100
AcDbPolyline
 90
4
 70
1
 10
215.0
 20
263.0
 10
405.0
 20
263.0
 10
405.0
 20
32.0
 10
215.0
 20
32.0
  0
LINE
  5
252
330
1B
100
AcDbEntity
 67
1
  8
E-ANNO-TABL
100
AcDbLine
 10
261.0
 20
263.0
 30
0.0
 11
261.0
 21
32.0
 31
0.0
  0
LINE
  5
253
330
1B
100
AcDbEntity
 67
1
  8
E-ANNO-TABL
100
AcDbLine
 10
343.0
 20
263.0
 30
0.0
 11
343.0
 21
32.0
 31
0.0
  0
LINE
  5
254
330
1B
100
AcDbEntity
 67
1
  8
E-ANNO-TABL
100
AcDbLine
 10
215.0
 20
255.0
 30
0.0
 11
405.0
 21
255.0
 31
0.0
  0
LINE
  5
255
330
1B
100
AcDbEntity
 67
1
  8
E-ANNO-TABL
100
AcDbLine
 10
215.0
 20
234.72727272727272
 30
0.0
 11
405.0
 21
234.72727272727272
 31
0.0
  0
LINE
  5
256
330
1B
100
AcDbEntity
 67
1
  8
E-ANNO-TABL
100
AcDbLine
 10
215.0
 20
214.45454545454544
 30
0.0
 11
405.0
 21
214.45454545454544
 31
0.0
  0
LINE
  5
257
330
1B
100
AcDbEntity
 67
1
  8
E-ANNO-TABL
100
AcDbLine
 10
215.0
 20
194.1818181818182
 30
0.0
 11
405.0
 21
194.1818181818182
 31
0.0
  0
LINE
  5
258
330
1B
100
AcDbEntity
 67
1
  8
E-ANNO-TABL
100
AcDbLine
 10
215.0
 20
173.9090909090909
 30
0.0
 11
405.0
 21
173.9090909090909
 31
0.0
  0
LINE
  5
259
330
1B
100
AcDbEntity
 67
1
  8
E-ANNO-TABL
100
AcDbLine
 10
215.0
 20
153.63636363636363
 30
0.0
 11
405.0
 21
153.63636363636363
 31
0.0
  0
LINE
  5
25A
330
1B
100
AcDbEntity
 67
1
  8
E-ANNO-TABL
100
AcDbLine
 10
215.0
 20
133.36363636363637
 30
0.0
 11
405.0
 21
133.36363636363637
 31
0.0
  0
LINE
  5
25B
330
1B
100
AcDbEntity
 67
1
  8
E-ANNO-TABL
100
AcDbLine
 10
215.0
 20
113.0909090909091
 30
0.0
 11
405.0
 21
113.0909090909091
 31
0.0
  0
LINE
  5
25C
330
1B
100
AcDbEntity
 67
1
  8
E-ANNO-TABL
100
AcDbLine
 10
215.0
 20
92.81818181818181
 30
0.0
 11
405.0
 21
92.81818181818181
 31
0.0
  0
LINE
  5
25D
330
1B
100
AcDbEntity
 67
1
  8
E-ANNO-TABL
100
AcDbLine
 10
215.0
 20
72.54545454545453
 30
0.0
 11
405.0
 21
72.54545454545453
 31
0.0
  0
LINE
  5
25E
330
1B
100
AcDbEntity
 67
1
  8
E-ANNO-TABL
100
AcDbLine
 10
215.0
 20
52.27272727272725
 30
0.0
 11
405.0
 21
52.27272727272725
 31
0.0
  0
LINE
  5
25F
330
1B
100
AcDbEntity
 67
1
  8
E-ANNO-TABL
100
AcDbLine
 10
215.0
 20
32.0
 30
0.0
 11
405.0
 21
32.0
 31
0.0
  0
TEXT
  5
260
330
1B
100
AcDbEntity
 67
1
  8
E-ANNO-NOTE
100
AcDbText
 10
218.0
 20
257.5
 30
0.0
 40
3.5
  1
Símbolo
  7
PVSLD_STD
 11
218.0
 21
257.5
 31
0.0
100
AcDbText
  0
TEXT
  5
261
330
1B
100
AcDbEntity
 67
1
  8
E-ANNO-NOTE
100
AcDbText
 10
264.0
 20
257.5
 30
0.0
 40
3.5
  1
Designación
  7
PVSLD_STD
 11
264.0
 21
257.5
 31
0.0
100
AcDbText
  0
TEXT
  5
262
330
1B
100
AcDbEntity
 67
1
  8
E-ANNO-NOTE
100
AcDbText
 10
346.0
 20
257.5
 30
0.0
 40
3.5
  1
Fuente
  7
PVSLD_STD
 11
346.0
 21
257.5
 31
0.0
100
AcDbText
  0
INSERT
  5
263
330
1B
100
AcDbEntity
 67
1
  8
E-ANNO-NOTE
100
AcDbBlockReference
  2
PVSLD_XFMR_ISO
 10
230.325
 20
251.0037
 30
0.0
 41
0.614
 42
0.614
 43
0.614
  0
TEXT
  5
265
330
1B
100
AcDbEntity
 67
1
  8
E-ANNO-NOTE
100
AcDbText
 10
264.0
 20
248.5
 30
0.0
 40
3.2
  1
Transformador de aislamiento
  7
PVSLD_STD
 11
264.0
 21
248.5
 31
0.0
100
AcDbText
  0
TEXT
  5
266
330
1B
100
AcDbEntity
 67
1
  8
E-ANNO-NOTE
100
AcDbText
 10
264.0
 20
243.5
 30
0.0
 40
2.2
  1
PVSLD_XFMR_ISO
  7
PVSLD_STD
 11
264.0
 21
243.5
 31
0.0
100
AcDbText
  0
TEXT
  5
267
330
1B
100
AcDbEntity
 67
1
  8
E-ANNO-NOTE
100
AcDbText
 10
346.0
 20
248.5
 30
0.0
 40
2.8
  1
CFE G0100-04 Apéndice C
  7
PVSLD_STD
 11
346.0
 21
248.5
 31
0.0
100
AcDbText
  0
INSERT
  5
268
330
1B
100
AcDbEntity
 67
1
  8
E-ANNO-NOTE
100
AcDbBlockReference
  2
PVSLD_LOAD_RECEPT
 10
233.0
 20
224.5909
 30
0.0
  0
TEXT
  5
26A
330
1B
100
AcDbEntity
 67
1
  8
E-ANNO-NOTE
100
AcDbText
 10
264.0
 20
228.22727272727272
 30
0.0
 40
3.2
  1
Carga de contactos
  7
PVSLD_STD
 11
264.0
 21
228.22727272727272
 31
0.0
100
AcDbText
  0
TEXT
  5
26B
330
1B
100
AcDbEntity
 67
1
  8
E-ANNO-NOTE
100
AcDbText
 10
264.0
 20
223.22727272727272
 30
0.0
 40
2.2
  1
PVSLD_LOAD_RECEPT
  7
PVSLD_STD
 11
264.0
 21
223.22727272727272
 31
0.0
100
AcDbText
  0
TEXT
  5
26C
330
1B
100
AcDbEntity
 67
1
  8
E-ANNO-NOTE
100
AcDbText
 10
346.0
 20
228.22727272727272
 30
0.0
 40
2.8
  1
CFE G0100-04 Apéndice C
  7
PVSLD_STD
 11
346.0
 21
228.22727272727272
 31
0.0
100
AcDbText
  0
INSERT
  5
26D
330
1B
100
AcDbEntity
 67
1
  8
E-ANNO-NOTE
100
AcDbBlockReference
  2
PVSLD_GND
 10
238.0
 20
209.3182
 30
0.0
  0
TEXT
  5
26F
330
1B
100
AcDbEntity
 67
1
  8
E-ANNO-NOTE
100
AcDbText
 10
264.0
 20
207.95454545454544
 30
0.0
 40
3.2
  1
Electrodo de puesta a tierra
  7
PVSLD_STD
 11
264.0
 21
207.95454545454544
 31
0.0
100
AcDbText
  0
TEXT
  5
270
330
1B
100
AcDbEntity
 67
1
  8
E-ANNO-NOTE
100
AcDbText
 10
264.0
 20
202.95454545454544
 30
0.0
 40
2.2
  1
PVSLD_GND
  7
PVSLD_STD
 11
264.0
 21
202.95454545454544
 31
0.0
100
AcDbText
  0
TEXT
  5
271
330
1B
100
AcDbEntity
 67
1
  8
E-ANNO-NOTE
100
AcDbText
 10
346.0
 20
207.95454545454544
 30
0.0
 40
2.8
  1
CFE G0100-04 Apéndice D
  7
PVSLD_STD
 11
346.0
 21
207.95454545454544
 31
0.0
100
AcDbText
  0
INSERT
  5
272
330
1B
100
AcDbEntity
 67
1
  8
E-ANNO-NOTE
100
AcDbBlockReference
  2
PVSLD_COND_MARK
 10
238.0
 20
184.0455
 30
0.0
  0
TEXT
  5
274
330
1B
100
AcDbEntity
 67
1
  8
E-ANNO-NOTE
100
AcDbText
 10
264.0
 20
187.6818181818182
 30
0.0
 40
3.2
  1
Marca de número de conductores
  7
PVSLD_STD
 11
264.0
 21
187.6818181818182
 31
0.0
100
AcDbText
  0
TEXT
  5
275
330
1B
100
AcDbEntity
 67
1
  8
E-ANNO-NOTE
100
AcDbText
 10
264.0
 20
182.6818181818182
 30
0.0
 40
2.2
  1
PVSLD_COND_MARK
  7
PVSLD_STD
 11
264.0
 21
182.6818181818182
 31
0.0
100
AcDbText
  0
TEXT
  5
276
330
1B
100
AcDbEntity
 67
1
  8
E-ANNO-NOTE
100
AcDbText
 10
346.0
 20
187.6818181818182
 30
0.0
 40
2.8
  1
CFE G0100-04 Apéndice D
  7
PVSLD_STD
 11
346.0
 21
187.6818181818182
 31
0.0
100
AcDbText
  0
INSERT
  5
277
330
1B
100
AcDbEntity
 67
1
  8
E-ANNO-NOTE
100
AcDbBlockReference
  2
PVSLD_POL_POS
 10
238.0
 20
163.7728
 30
0.0
  0
TEXT
  5
279
330
1B
100
AcDbEntity
 67
1
  8
E-ANNO-NOTE
100
AcDbText
 10
264.0
 20
167.4090909090909
 30
0.0
 40
3.2
  1
Polaridad positiva (+)
  7
PVSLD_STD
 11
264.0
 21
167.4090909090909
 31
0.0
100
AcDbText
  0
TEXT
  5
27A
330
1B
100
AcDbEntity
 67
1
  8
E-ANNO-NOTE
100
AcDbText
 10
264.0
 20
162.4090909090909
 30
0.0
 40
2.2
  1
PVSLD_POL_POS
  7
PVSLD_STD
 11
264.0
 21
162.4090909090909
 31
0.0
100
AcDbText
  0
TEXT
  5
27B
330
1B
100
AcDbEntity
 67
1
  8
E-ANNO-NOTE
100
AcDbText
 10
346.0
 20
167.4090909090909
 30
0.0
 40
2.8
  1
CFE G0100-04 Apéndice D
  7
PVSLD_STD
 11
346.0
 21
167.4090909090909
 31
0.0
100
AcDbText
  0
INSERT
  5
27C
330
1B
100
AcDbEntity
 67
1
  8
E-ANNO-NOTE
100
AcDbBlockReference
  2
PVSLD_POL_NEG
 10
238.0
 20
143.5
 30
0.0
  0
TEXT
  5
27E
330
1B
100
AcDbEntity
 67
1
  8
E-ANNO-NOTE
100
AcDbText
 10
264.0
 20
147.13636363636363
 30
0.0
 40
3.2
  1
Polaridad negativa (-)
  7
PVSLD_STD
 11
264.0
 21
147.13636363636363
 31
0.0
100
AcDbText
  0
TEXT
  5
27F
330
1B
100
AcDbEntity
 67
1
  8
E-ANNO-NOTE
100
AcDbText
 10
264.0
 20
142.13636363636363
 30
0.0
 40
2.2
  1
PVSLD_POL_NEG
  7
PVSLD_STD
 11
264.0
 21
142.13636363636363
 31
0.0
100
AcDbText
  0
TEXT
  5
280
330
1B
100
AcDbEntity
 67
1
  8
E-ANNO-NOTE
100
AcDbText
 10
346.0
 20
147.13636363636363
 30
0.0
 40
2.8
  1
CFE G0100-04 Apéndice D
  7
PVSLD_STD
 11
346.0
 21
147.13636363636363
 31
0.0
100
AcDbText
  0
INSERT
  5
281
330
1B
100
AcDbEntity
 67
1
  8
E-ANNO-NOTE
100
AcDbBlockReference
  2
PVSLD_JUNCTION
 10
238.0
 20
123.2273
 30
0.0
  0
TEXT
  5
283
330
1B
100
AcDbEntity
 67
1
  8
E-ANNO-NOTE
100
AcDbText
 10
264.0
 20
126.86363636363637
 30
0.0
 40
3.2
  1
Unión de conductores (punto)
  7
PVSLD_STD
 11
264.0
 21
126.86363636363637
 31
0.0
100
AcDbText
  0
TEXT
  5
284
330
1B
100
AcDbEntity
 67
1
  8
E-ANNO-NOTE
100
AcDbText
 10
264.0
 20
121.86363636363637
 30
0.0
 40
2.2
  1
PVSLD_JUNCTION
  7
PVSLD_STD
 11
264.0
 21
121.86363636363637
 31
0.0
100
AcDbText
  0
TEXT
  5
285
330
1B
100
AcDbEntity
 67
1
  8
E-ANNO-NOTE
100
AcDbText
 10
346.0
 20
126.86363636363637
 30
0.0
 40
2.8
  1
CFE G0100-04 Apéndice D
  7
PVSLD_STD
 11
346.0
 21
126.86363636363637
 31
0.0
100
AcDbText
  0
INSERT
  5
286
330
1B
100
AcDbEntity
 67
1
  8
E-ANNO-NOTE
100
AcDbBlockReference
  2
PVSLD_PV_STRING
 10
228.79
 20
102.9546
 30
0.0
 41
0.614
 42
0.614
 43
0.614
  0
TEXT
  5
288
330
1B
100
AcDbEntity
 67
1
  8
E-ANNO-NOTE
100
AcDbText
 10
264.0
 20
106.5909090909091
 30
0.0
 40
3.2
  1
Rama de módulos fotovoltaicos en
  7
PVSLD_STD
 11
264.0
 21
106.5909090909091
 31
0.0
100
AcDbText
  0
TEXT
  5
289
330
1B
100
AcDbEntity
 67
1
  8
E-ANNO-NOTE
100
AcDbText
 10
264.0
 20
101.9909090909091
 30
0.0
 40
3.2
  1
serie
  7
PVSLD_STD
 11
264.0
 21
101.9909090909091
 31
0.0
100
AcDbText
  0
TEXT
  5
28A
330
1B
100
AcDbEntity
 67
1
  8
E-ANNO-NOTE
100
AcDbText
 10
264.0
 20
96.9909090909091
 30
0.0
 40
2.2
  1
PVSLD_PV_STRING
  7
PVSLD_STD
 11
264.0
 21
96.9909090909091
 31
0.0
100
AcDbText
  0
TEXT
  5
28B
330
1B
100
AcDbEntity
 67
1
  8
E-ANNO-NOTE
100
AcDbText
 10
346.0
 20
106.5909090909091
 30
0.0
 40
2.8
  1
CFE G0100-04 Apéndices C y D
  7
PVSLD_STD
 11
346.0
 21
106.5909090909091
 31
0.0
100
AcDbText
  0
INSERT
  5
28C
330
1B
100
AcDbEntity
 67
1
  8
E-ANNO-NOTE
100
AcDbBlockReference
  2
PVSLD_PANEL
 10
232.9825
 20
82.6819
 30
0.0
 41
0.223
 42
0.223
 43
0.223
  0
TEXT
  5
28E
330
1B
100
AcDbEntity
 67
1
  8
E-ANNO-NOTE
100
AcDbText
 10
264.0
 20
86.31818181818181
 30
0.0
 40
3.2
  1
Centro de carga o tablero con
  7
PVSLD_STD
 11
264.0
 21
86.31818181818181
 31
0.0
100
AcDbText
  0
TEXT
  5
28F
330
1B
100
AcDbEntity
 67
1
  8
E-ANNO-NOTE
100
AcDbText
 10
264.0
 20
81.71818181818182
 30
0.0
 40
3.2
  1
barra
  7
PVSLD_STD
 11
264.0
 21
81.71818181818182
 31
0.0
100
AcDbText
  0
TEXT
  5
290
330
1B
100
AcDbEntity
 67
1
  8
E-ANNO-NOTE
100
AcDbText
 10
264.0
 20
76.71818181818182
 30
0.0
 40
2.2
  1
PVSLD_PANEL
  7
PVSLD_STD
 11
264.0
 21
76.71818181818182
 31
0.0
100
AcDbText
  0
TEXT
  5
291
330
1B
100
AcDbEntity
 67
1
  8
E-ANNO-NOTE
100
AcDbText
 10
346.0
 20
86.31818181818181
 30
0.0
 40
2.8
  1
CFE G0100-04 Apéndice D
  7
PVSLD_STD
 11
346.0
 21
86.31818181818181
 31
0.0
100
AcDbText
  0
INSERT
  5
292
330
1B
100
AcDbEntity
 67
1
  8
E-ANNO-NOTE
100
AcDbBlockReference
  2
PVSLD_PI
 10
233.0
 20
62.4091
 30
0.0
  0
TEXT
  5
294
330
1B
100
AcDbEntity
 67
1
  8
E-ANNO-NOTE
100
AcDbText
 10
264.0
 20
66.04545454545453
 30
0.0
 40
3.2
  1
Punto de interconexión (PI) con la
  7
PVSLD_STD
 11
264.0
 21
66.04545454545453
 31
0.0
100
AcDbText
  0
TEXT
  5
295
330
1B
100
AcDbEntity
 67
1
  8
E-ANNO-NOTE
100
AcDbText
 10
264.0
 20
61.44545454545453
 30
0.0
 40
3.2
  1
red de distribución
  7
PVSLD_STD
 11
264.0
 21
61.44545454545453
 31
0.0
100
AcDbText
  0
TEXT
  5
296
330
1B
100
AcDbEntity
 67
1
  8
E-ANNO-NOTE
100
AcDbText
 10
264.0
 20
56.44545454545453
 30
0.0
 40
2.2
  1
PVSLD_PI
  7
PVSLD_STD
 11
264.0
 21
56.44545454545453
 31
0.0
100
AcDbText
  0
TEXT
  5
297
330
1B
100
AcDbEntity
 67
1
  8
E-ANNO-NOTE
100
AcDbText
 10
346.0
 20
66.04545454545453
 30
0.0
 40
2.8
  1
pvsld (sin símbolo en CFE
  7
PVSLD_STD
 11
346.0
 21
66.04545454545453
 31
0.0
100
AcDbText
  0
TEXT
  5
298
330
1B
100
AcDbEntity
 67
1
  8
E-ANNO-NOTE
100
AcDbText
 10
346.0
 20
62.04545454545453
 30
0.0
 40
2.8
  1
G0100-04 ni IEC 60617)
  7
PVSLD_STD
 11
346.0
 21
62.04545454545453
 31
0.0
100
AcDbText
  0
INSERT
  5
299
330
1B
100
AcDbEntity
 67
1
  8
E-ANNO-NOTE
100
AcDbBlockReference
  2
PVSLD_TTLB
 10
219.0375
 20
35.9864
 30
0.0
 41
0.205
 42
0.205
 43
0.205
  0
TEXT
  5
29B
330
1B
100
AcDbEntity
 67
1
  8
E-ANNO-NOTE
100
AcDbText
 10
264.0
 20
45.77272727272725
 30
0.0
 40
3.2
  1
Cuadro de datos del plano (pie de
  7
PVSLD_STD
 11
264.0
 21
45.77272727272725
 31
0.0
100
AcDbText
  0
TEXT
  5
29C
330
1B
100
AcDbEntity
 67
1
  8
E-ANNO-NOTE
100
AcDbText
 10
264.0
 20
41.17272727272725
 30
0.0
 40
3.2
  1
plano)
  7
PVSLD_STD
 11
264.0
 21
41.17272727272725
 31
0.0
100
AcDbText
  0
TEXT
  5
29D
330
1B
100
AcDbEntity
 67
1
  8
E-ANNO-NOTE
100
AcDbText
 10
264.0
 20
36.17272727272725
 30
0.0
 40
2.2
  1
PVSLD_TTLB
  7
PVSLD_STD
 11
264.0
 21
36.17272727272725
 31
0.0
100
AcDbText
  0
TEXT
  5
29E
330
1B
100
AcDbEntity
 67
1
  8
E-ANNO-NOTE
100
AcDbText
 10
346.0
 20
45.77272727272725
 30
0.0
 40
2.8
  1
pvsld (sin símbolo en CFE
  7
PVSLD_STD
 11
346.0
 21
45.77272727272725
 31
0.0
100
AcDbText
  0
TEXT
  5
29F
330
1B
100
AcDbEntity
 67
1
  8
E-ANNO-NOTE
100
AcDbText
 10
346.0
 20
41.77272727272725
 30
0.0
 40
2.8
  1
G0100-04 ni IEC 60617)
  7
PVSLD_STD
 11
346.0
 21
41.77272727272725
 31
0.0
100
AcDbText
  0
TEXT
  5
2A0
330
1B
100
AcDbEntity
 67
1
  8
E-ANNO-NOTE
100
AcDbText
 10
15.0
 20
28.0
 30
0.0
 40
2.5
  1
Símbolos redibujados como geometría vectorial a partir de CFE G0100-04, Apéndices C y D (informativos); la especificación no se incluye ni se copia.
  7
PVSLD_STD
 11
15.0
 21
28.0
 31
0.0
100
AcDbText
  0
TEXT
  5
2A1
330
1B
100
AcDbEntity
 67
1
  8
E-ANNO-NOTE
100
AcDbText
 10
15.0
 20
24.4
 30
0.0
 40
2.5
  1
Cada símbolo es un bloque PVSLD_<FUNCIÓN> con los atributos TAG y DESC y, ocultos, COMP_ID, IEC_REF, NMX_REF y SOURCE_STANDARD; los puertos están en XDATA (aplicación PVSLD).
  7
PVSLD_STD
 11
15.0
 21
24.4
 31
0.0
100
AcDbText
  0
TEXT
  5
2A2
330
1B
100
AcDbEntity
 67
1
  8
E-ANNO-NOTE
100
AcDbText
 10
15.0
 20
20.799999999999997
 30
0.0
 40
2.5
  1
Dimensiones en mm a escala 1:1 dentro del bloque; en esta hoja cada símbolo se reduce, si hace falta, para caber en su celda.
  7
PVSLD_STD
 11
15.0
 21
20.799999999999997
 31
0.0
100
AcDbText
  0
ENDSEC
  0
SECTION
  2
OBJECTS
  0
DICTIONARY
  5
A
330
0
100
AcDbDictionary
281
1
  3
ACAD_COLOR
350
B
  3
ACAD_GROUP
350
C
  3
ACAD_LAYOUT
350
D
  3
ACAD_MATERIAL
350
E
  3
ACAD_MLEADERSTYLE
350
F
  3
ACAD_MLINESTYLE
350
10
  3
ACAD_PLOTSETTINGS
350
11
  3
ACAD_PLOTSTYLENAME
350
12
  3
ACAD_SCALELIST
350
14
  3
ACAD_TABLESTYLE
350
15
  3
ACAD_VISUALSTYLE
350
16
  3
EZDXF_META
350
2D
  0
DICTIONARY
  5
B
330
A
100
AcDbDictionary
281
1
  0
DICTIONARY
  5
C
330
A
100
AcDbDictionary
281
1
  0
DICTIONARY
  5
D
330
A
100
AcDbDictionary
281
1
  3
Model
350
1A
  3
Legend
350
1E
  0
DICTIONARY
  5
E
330
A
100
AcDbDictionary
281
1
  3
ByBlock
350
1F
  3
ByLayer
350
20
  3
Global
350
21
  0
DICTIONARY
  5
F
330
A
100
AcDbDictionary
281
1
  3
Standard
350
2C
  0
DICTIONARY
  5
10
330
A
100
AcDbDictionary
281
1
  3
Standard
350
22
  0
DICTIONARY
  5
11
330
A
100
AcDbDictionary
281
1
  0
ACDBDICTIONARYWDFLT
  5
12
330
A
100
AcDbDictionary
281
1
  3
Normal
350
13
100
AcDbDictionaryWithDefault
340
13
  0
ACDBPLACEHOLDER
  5
13
330
12
  0
DICTIONARY
  5
14
330
A
100
AcDbDictionary
281
1
  0
DICTIONARY
  5
15
330
A
100
AcDbDictionary
281
1
  0
DICTIONARY
  5
16
330
A
100
AcDbDictionary
281
1
  0
LAYOUT
  5
1A
330
D
100
AcDbPlotSettings
  1

  4
A3
  6

 40
7.5
 41
20.0
 42
7.5
 43
20.0
 44
420.0
 45
297.0
 46
0.0
 47
0.0
 48
0.0
 49
0.0
140
0.0
141
0.0
142
1.0
143
1.0
 70
1024
 72
1
 73
0
 74
5
  7

 75
16
 76
0
 77
2
 78
300
147
1.0
148
0.0
149
0.0
100
AcDbLayout
  1
Model
 70
1
 71
0
 10
0.0
 20
0.0
 11
420.0
 21
297.0
 12
0.0
 22
0.0
 32
0.0
 14
1e+20
 24
1e+20
 34
1e+20
 15
-1e+20
 25
-1e+20
 35
-1e+20
146
0.0
 13
0.0
 23
0.0
 33
0.0
 16
1.0
 26
0.0
 36
0.0
 17
0.0
 27
1.0
 37
0.0
 76
1
330
17
  0
LAYOUT
  5
1E
330
D
100
AcDbPlotSettings
  1

  2
DWG To PDF.pc3
  4
ISO_full_bleed_A3_(420.00_x_297.00_MM)
  6

 40
0.0
 41
0.0
 42
0.0
 43
0.0
 44
420.0
 45
297.0
 46
0.0
 47
0.0
 48
0.0
 49
0.0
140
0.0
141
0.0
142
1.0
143
1.0
 70
672
 72
1
 73
0
 74
5
  7

 75
16
 76
0
 77
2
 78
300
147
1.0
148
0.0
149
0.0
100
AcDbLayout
  1
Legend
 70
1
 71
1
 10
-0.0
 20
-0.0
 11
420.0
 21
297.0
 12
0.0
 22
0.0
 32
0.0
 14
1e+20
 24
1e+20
 34
1e+20
 15
-1e+20
 25
-1e+20
 35
-1e+20
146
0.0
 13
0.0
 23
0.0
 33
0.0
 16
1.0
 26
0.0
 36
0.0
 17
0.0
 27
1.0
 37
0.0
 76
1
330
1B
331
203
  0
MATERIAL
  5
1F
102
{ACAD_REACTORS
330
E
102
}
330
E
100
AcDbMaterial
  1
ByBlock
  2

 70
0
 40
1.0
 71
1
 41
1.0
 91
-1023410177
 42
1.0
 72
1
  3

 73
1
 74
1
 75
1
 44
0.5
 73
0
 45
1.0
 46
1.0
 77
1
  4

 78
1
 79
1
170
1
 48
1.0
171
1
  6

172
1
173
1
174
1
140
1.0
141
1.0
175
1
  7

176
1
177
1
178
1
143
1.0
179
1
  8

270
1
271
1
272
1
145
1.0
146
1.0
273
1
  9

274
1
275
1
276
1
 42
1.0
 72
1
  3

 73
1
 74
1
 75
1
 94
63
  0
MATERIAL
  5
20
102
{ACAD_REACTORS
330
E
102
}
330
E
100
AcDbMaterial
  1
ByLayer
  2

 70
0
 40
1.0
 71
1
 41
1.0
 91
-1023410177
 42
1.0
 72
1
  3

 73
1
 74
1
 75
1
 44
0.5
 73
0
 45
1.0
 46
1.0
 77
1
  4

 78
1
 79
1
170
1
 48
1.0
171
1
  6

172
1
173
1
174
1
140
1.0
141
1.0
175
1
  7

176
1
177
1
178
1
143
1.0
179
1
  8

270
1
271
1
272
1
145
1.0
146
1.0
273
1
  9

274
1
275
1
276
1
 42
1.0
 72
1
  3

 73
1
 74
1
 75
1
 94
63
  0
MATERIAL
  5
21
102
{ACAD_REACTORS
330
E
102
}
330
E
100
AcDbMaterial
  1
Global
  2

 70
0
 40
1.0
 71
1
 41
1.0
 91
-1023410177
 42
1.0
 72
1
  3

 73
1
 74
1
 75
1
 44
0.5
 73
0
 45
1.0
 46
1.0
 77
1
  4

 78
1
 79
1
170
1
 48
1.0
171
1
  6

172
1
173
1
174
1
140
1.0
141
1.0
175
1
  7

176
1
177
1
178
1
143
1.0
179
1
  8

270
1
271
1
272
1
145
1.0
146
1.0
273
1
  9

274
1
275
1
276
1
 42
1.0
 72
1
  3

 73
1
 74
1
 75
1
 94
63
  0
MLINESTYLE
  5
22
102
{ACAD_REACTORS
330
10
102
}
330
10
100
AcDbMlineStyle
  2
Standard
 70
0
  3

 62
256
 51
90.0
 52
90.0
 71
2
 49
0.5
 62
256
  6
BYLAYER
 49
-0.5
 62
256
  6
BYLAYER
  0
MLEADERSTYLE
  5
2C
102
{ACAD_REACTORS
330
F
102
}
330
F
100
AcDbMLeaderStyle
179
2
170
2
171
1
172
0
 90
2
 40
0.0
 41
0.0
173
1
 91
-1056964608
 92
-2
290
1
 42
2.0
291
1
 43
8.0
  3
Standard
 44
4.0
300

342
29
174
1
175
1
176
0
178
1
 93
-1056964608
 45
4.0
292
0
297
0
 46
4.0
 94
-1056964608
 47
1.0
 49
1.0
140
1.0
294
1
141
0.0
177
0
142
1.0
295
0
296
0
143
3.75
271
0
272
9
273
9
  0
DICTIONARY
  5
2D
330
A
100
AcDbDictionary
280
1
281
1
  3
CREATED_BY_EZDXF
350
2E
  3
PVSLD_LIBRARY_VERSION
350
2A3
  3
WRITTEN_BY_EZDXF
350
2A6
  0
DICTIONARYVAR
  5
2E
330
2D
100
DictionaryVariables
280
0
  1
0.0 @ 2000-01-01T00:00:00.000000+00:00
  0
DICTIONARYVAR
  5
2A3
330
2D
100
DictionaryVariables
280
0
  1
0.4.0
  0
DICTIONARYVAR
  5
2A6
330
2D
100
DictionaryVariables
280
0
  1
0.0 @ 2000-01-01T00:00:00.000000+00:00
  0
ENDSEC
  0
EOF
